<svg width="287" height="291" viewBox="0 0 287 291" fill="none" xmlns="http://www.w3.org/2000/svg">
<path d="M31.1917 105.816L31.1913 105.816L6.78496 130.139C1.08918 135.815 1.10042 145.043 6.80999 150.705L31.1956 174.89C40.2405 183.86 48.5234 192.034 54.5767 197.968C57.6026 200.934 60.0753 203.344 61.8087 205.014C62.674 205.848 63.3629 206.505 63.8471 206.957C64.0866 207.181 64.2909 207.368 64.447 207.505C64.5209 207.57 64.6108 207.648 64.7 207.718C64.7394 207.749 64.8212 207.813 64.9237 207.88C64.9716 207.911 65.0742 207.977 65.2107 208.043C65.212 208.044 65.2139 208.045 65.2165 208.046C65.2794 208.078 65.7188 208.298 66.314 208.298C66.8563 208.298 67.2634 208.123 67.3827 208.071C67.5603 207.994 67.7055 207.91 67.8 207.851C67.9926 207.732 68.1753 207.597 68.3235 207.481C68.6301 207.242 68.9887 206.932 69.3576 206.599C70.1053 205.923 71.0252 205.036 71.9128 204.146C72.8004 203.255 73.6843 202.333 74.3571 201.584C74.6891 201.214 74.9979 200.855 75.2356 200.549C75.3505 200.401 75.4851 200.219 75.6029 200.027C75.6607 199.933 75.7445 199.789 75.8213 199.612C75.8724 199.495 76.0483 199.087 76.0483 198.544C76.0483 198.082 75.9178 197.738 75.8765 197.633C75.8186 197.484 75.7584 197.372 75.7248 197.312C75.6569 197.192 75.5929 197.102 75.5661 197.064C75.5059 196.981 75.4501 196.914 75.4243 196.883C75.3643 196.812 75.2981 196.738 75.2417 196.677C75.1225 196.547 74.9588 196.374 74.7618 196.168C74.3638 195.753 73.7844 195.159 73.0477 194.41C71.5723 192.909 69.4425 190.762 66.8186 188.13C61.5697 182.864 54.3319 175.647 46.3717 167.752C38.4164 159.862 31.1863 152.652 25.9467 147.386C23.326 144.752 21.2077 142.609 19.7468 141.112C19.5069 140.866 19.2856 140.639 19.0835 140.43C19.2776 140.23 19.4893 140.012 19.7183 139.777C21.1603 138.299 23.2508 136.183 25.8363 133.584C31.0055 128.388 38.1351 121.277 45.9698 113.507C55.5379 104.018 62.6915 96.8041 67.4583 91.8162C69.8377 89.3264 71.6473 87.3655 72.8715 85.9422C73.479 85.2359 73.9776 84.6213 74.3368 84.1189C74.5136 83.8716 74.6934 83.6006 74.8395 83.327L74.8444 83.3179C74.9348 83.1488 75.2445 82.5698 75.2445 81.8383C75.2445 81.0056 74.8907 80.269 74.71 79.9132C74.4725 79.4458 74.1646 78.9561 73.841 78.4865C73.1885 77.5398 72.3425 76.4876 71.5018 75.5378C70.668 74.5958 69.7708 73.6766 69.0033 73.0259C68.646 72.7229 68.1824 72.3613 67.6921 72.1164C67.4747 72.0078 66.9994 71.7899 66.3914 71.7693C65.7164 71.7464 64.8208 71.9916 64.2122 72.7628C64.1958 72.7799 64.1764 72.8001 64.1537 72.8237C64.0396 72.942 63.8692 73.1167 63.642 73.348C63.1891 73.8092 62.5277 74.4782 61.6783 75.3342C59.9804 77.0455 57.5409 79.4948 54.5374 82.5034C48.5308 88.5201 40.2734 96.7692 31.1917 105.816Z" fill="#50FA7B" stroke="#13201E" stroke-width="5" stroke-linejoin="round"/>
<path d="M213.617 75.8584L213.593 75.8811C212.571 76.8542 211.617 77.8002 210.908 78.5461C210.558 78.9145 210.24 79.262 209.999 79.5526C209.882 79.6925 209.747 79.8633 209.627 80.0416C209.569 80.1279 209.48 80.2666 209.397 80.4382C209.396 80.4402 209.395 80.4424 209.394 80.4448C209.344 80.5478 209.126 80.9933 209.126 81.5926C209.126 82.0577 209.258 82.404 209.301 82.5142C209.361 82.6665 209.423 82.783 209.46 82.8472C209.533 82.9773 209.605 83.0784 209.641 83.1287C209.721 83.2385 209.806 83.3406 209.869 83.415C210.003 83.5737 210.18 83.7695 210.38 83.986C210.786 84.4263 211.372 85.0409 212.109 85.8021C213.587 87.3288 215.717 89.4923 218.337 92.1317C223.579 97.4129 230.805 104.623 238.751 112.508C246.689 120.385 253.902 127.622 259.128 132.946C261.742 135.61 263.85 137.786 265.3 139.321C265.598 139.636 265.865 139.922 266.102 140.177C265.862 140.434 265.591 140.722 265.289 141.04C263.828 142.583 261.705 144.776 259.076 147.459C253.82 152.824 246.567 160.12 238.59 168.036L212.917 193.511C210.093 196.314 209.973 200.838 212.636 203.785C213.815 205.175 215.102 206.461 216.038 207.224L217.617 205.286L216.038 207.224C216.735 207.792 217.618 208.117 218.571 208.062C219.495 208.008 220.276 207.61 220.857 207.109C224.295 204.148 237.971 190.822 253.827 175.088C270.096 158.945 277.575 151.102 281.394 146.756C285.322 142.285 284.72 136.286 280.763 132.234C274.87 126.202 264.456 115.764 252.864 104.261L252.862 104.259L224.345 76.0324C221.393 73.1104 216.662 73.0337 213.617 75.8584ZM267.29 141.512C267.29 141.512 267.29 141.511 267.289 141.511C267.292 141.514 267.292 141.515 267.29 141.512Z" fill="#50FA7B" stroke="#13201E" stroke-width="5" stroke-linejoin="round"/>
<path d="M132.779 64.39L174.526 75.5759L140.099 204.059C138.383 210.46 131.803 214.259 125.402 212.544L106.838 207.57C100.436 205.854 96.6369 199.274 98.3522 192.873L132.779 64.39Z" fill="#13201E"/>
<path d="M141.197 66.3956L167.288 73.3868L134.811 194.593C133.096 200.995 126.516 204.793 120.114 203.078L117.205 202.299C110.803 200.583 107.004 194.003 108.72 187.602L141.197 66.3956Z" fill="white"/>
<path d="M131.128 119.627L149.392 124.521L130.58 194.73C129.579 198.464 125.741 200.68 122.007 199.679L117.265 198.409C113.531 197.408 111.315 193.57 112.316 189.836L131.128 119.627Z" fill="#50FA7B"/>
<path d="M128.438 51.3926C130.12 45.1133 136.575 41.3869 142.854 43.0695L177.418 52.3308C183.697 54.0133 187.423 60.4676 185.741 66.7469C184.058 73.0261 177.604 76.7525 171.325 75.07L153.588 70.3175L139.944 66.6617L136.761 65.8087C130.482 64.1262 126.755 57.6719 128.438 51.3926Z" fill="#13201E"/>
<rect x="136.609" y="46.9892" width="46.1412" height="12.2415" rx="6.12077" transform="rotate(15 136.609 46.9892)" fill="white"/>
<rect x="142.595" y="61.1772" width="13.506" height="6.75299" transform="rotate(15 142.595 61.1772)" fill="white"/>
<path d="M138.969 118.287L149.645 124.439L128.356 124.548L129.687 119.902L138.969 118.287Z" fill="white"/>
<rect x="148.877" y="27.0161" width="10.8372" height="11.2263" rx="5.41858" fill="#50FA7B" stroke="#13201E" stroke-width="5"/>
<path d="M174.726 20.4006C171.518 20.4006 168.918 23.0008 168.918 26.2084C168.918 29.4159 171.518 32.0161 174.726 32.0161C177.933 32.0161 180.534 29.4159 180.534 26.2084C180.534 23.0008 177.933 20.4006 174.726 20.4006Z" fill="#50FA7B" stroke="#13201E" stroke-width="5"/>
<path d="M163.635 2.5C160.213 2.5 157.438 5.27443 157.438 8.69687C157.438 12.1193 160.213 14.8937 163.635 14.8937C167.058 14.8937 169.832 12.1193 169.832 8.69687C169.832 5.27443 167.058 2.5 163.635 2.5Z" fill="#50FA7B" stroke="#13201E" stroke-width="5"/>
<mask id="path-13-outside-1_238_3650" maskUnits="userSpaceOnUse" x="27" y="233.98" width="229" height="37" fill="black">
<rect fill="white" x="27" y="233.98" width="229" height="37"/>
<path d="M34.8048 267.98C33.9248 267.98 33.1115 267.766 32.3648 267.34C31.6448 266.913 31.0715 266.34 30.6448 265.62C30.2181 264.873 30.0048 264.06 30.0048 263.18V243.98C30.0048 243.1 30.2181 242.3 30.6448 241.58C31.0715 240.833 31.6448 240.246 32.3648 239.82C33.1115 239.393 33.9248 239.18 34.8048 239.18H58.7248V242.42H34.8048C34.3781 242.42 34.0048 242.58 33.6848 242.9C33.3915 243.193 33.2448 243.553 33.2448 243.98V263.18C33.2448 263.606 33.3915 263.98 33.6848 264.3C34.0048 264.593 34.3781 264.74 34.8048 264.74H58.7248V267.98H34.8048ZM67.5354 267.98C66.6554 267.98 65.8421 267.766 65.0954 267.34C64.3754 266.886 63.7888 266.3 63.3354 265.58C62.9088 264.833 62.6954 264.02 62.6954 263.14V249.62C62.6954 248.74 62.9088 247.94 63.3354 247.22C63.7888 246.473 64.3754 245.886 65.0954 245.46C65.8421 245.006 66.6554 244.78 67.5354 244.78H81.4554C82.3621 244.78 83.1754 245.006 83.8954 245.46C84.6421 245.886 85.2288 246.473 85.6554 247.22C86.1088 247.94 86.3354 248.74 86.3354 249.62V263.14C86.3354 264.02 86.1088 264.833 85.6554 265.58C85.2288 266.3 84.6421 266.886 83.8954 267.34C83.1754 267.766 82.3621 267.98 81.4554 267.98H67.5354ZM67.5354 264.7H81.4554C81.8821 264.7 82.2421 264.553 82.5354 264.26C82.8554 263.94 83.0154 263.566 83.0154 263.14V249.62C83.0154 249.193 82.8554 248.833 82.5354 248.54C82.2421 248.22 81.8821 248.06 81.4554 248.06H67.5354C67.1088 248.06 66.7354 248.22 66.4154 248.54C66.1221 248.833 65.9754 249.193 65.9754 249.62V263.14C65.9754 263.566 66.1221 263.94 66.4154 264.26C66.7354 264.553 67.1088 264.7 67.5354 264.7ZM94.1507 267.98C93.2441 267.98 92.4174 267.766 91.6707 267.34C90.9507 266.886 90.3641 266.3 89.9107 265.58C89.4841 264.833 89.2707 264.02 89.2707 263.14V249.62C89.2707 248.74 89.4841 247.94 89.9107 247.22C90.3641 246.473 90.9507 245.886 91.6707 245.46C92.4174 245.006 93.2441 244.78 94.1507 244.78H109.631V237.18H112.911V267.98H94.1507ZM94.1507 264.7H108.071C108.497 264.7 108.857 264.553 109.151 264.26C109.471 263.94 109.631 263.566 109.631 263.14V249.62C109.631 249.193 109.471 248.833 109.151 248.54C108.857 248.22 108.497 248.06 108.071 248.06H94.1507C93.7241 248.06 93.3507 248.22 93.0307 248.54C92.7374 248.833 92.5907 249.193 92.5907 249.62V263.14C92.5907 263.566 92.7374 263.94 93.0307 264.26C93.3507 264.553 93.7241 264.7 94.1507 264.7ZM121.129 267.98C120.249 267.98 119.436 267.766 118.689 267.34C117.969 266.886 117.383 266.3 116.929 265.58C116.503 264.833 116.289 264.02 116.289 263.14V249.62C116.289 248.74 116.503 247.94 116.929 247.22C117.383 246.473 117.969 245.886 118.689 245.46C119.436 245.006 120.249 244.78 121.129 244.78H135.049C135.956 244.78 136.769 245.006 137.489 245.46C138.236 245.886 138.823 246.473 139.249 247.22C139.703 247.94 139.929 248.74 139.929 249.62V258.02H119.569V263.14C119.569 263.566 119.716 263.94 120.009 264.26C120.329 264.553 120.703 264.7 121.129 264.7H139.929V267.98H121.129ZM119.569 254.74H136.609V249.62C136.609 249.193 136.449 248.833 136.129 248.54C135.836 248.22 135.476 248.06 135.049 248.06H121.129C120.703 248.06 120.329 248.22 120.009 248.54C119.716 248.833 119.569 249.193 119.569 249.62V254.74Z"/>
<path d="M144.224 267.98V239.14H147.464V264.74H173.024V267.98H144.224ZM180.036 267.98C179.156 267.98 178.343 267.766 177.596 267.34C176.876 266.886 176.29 266.3 175.836 265.58C175.41 264.833 175.196 264.02 175.196 263.14V254.74H195.516V249.62C195.516 249.193 195.356 248.833 195.036 248.54C194.743 248.22 194.383 248.06 193.956 248.06H175.196V244.78H193.956C194.863 244.78 195.676 245.006 196.396 245.46C197.143 245.886 197.73 246.473 198.156 247.22C198.61 247.94 198.836 248.74 198.836 249.62V267.98H180.036ZM180.036 264.7H195.516V258.02H178.476V263.14C178.476 263.566 178.623 263.94 178.916 264.26C179.236 264.553 179.61 264.7 180.036 264.7ZM202.034 267.98V237.18H205.314V244.78H220.834C221.714 244.78 222.514 245.006 223.234 245.46C223.981 245.886 224.568 246.473 224.994 247.22C225.448 247.94 225.674 248.74 225.674 249.62V263.14C225.674 264.02 225.448 264.833 224.994 265.58C224.568 266.3 223.981 266.886 223.234 267.34C222.514 267.766 221.714 267.98 220.834 267.98H202.034ZM206.914 264.7H220.834C221.261 264.7 221.621 264.553 221.914 264.26C222.234 263.94 222.394 263.566 222.394 263.14V249.62C222.394 249.193 222.234 248.833 221.914 248.54C221.621 248.22 221.261 248.06 220.834 248.06H206.914C206.488 248.06 206.114 248.22 205.794 248.54C205.474 248.833 205.314 249.193 205.314 249.62V263.14C205.314 263.566 205.474 263.94 205.794 264.26C206.114 264.553 206.488 264.7 206.914 264.7ZM233.314 267.98C232.434 267.98 231.621 267.766 230.874 267.34C230.154 266.886 229.567 266.3 229.114 265.58C228.687 264.833 228.474 264.02 228.474 263.14V262.82H231.754V263.14C231.754 263.566 231.901 263.94 232.194 264.26C232.514 264.553 232.887 264.7 233.314 264.7H247.234C247.661 264.7 248.021 264.553 248.314 264.26C248.634 263.94 248.794 263.566 248.794 263.14V259.58C248.794 259.153 248.634 258.793 248.314 258.5C248.021 258.18 247.661 258.02 247.234 258.02H233.314C232.434 258.02 231.621 257.806 230.874 257.38C230.154 256.926 229.567 256.34 229.114 255.62C228.687 254.873 228.474 254.06 228.474 253.18V249.62C228.474 248.74 228.687 247.94 229.114 247.22C229.567 246.473 230.154 245.886 230.874 245.46C231.621 245.006 232.434 244.78 233.314 244.78H247.234C248.141 244.78 248.954 245.006 249.674 245.46C250.421 245.886 251.007 246.473 251.434 247.22C251.887 247.94 252.114 248.74 252.114 249.62V249.94H248.794V249.62C248.794 249.193 248.634 248.833 248.314 248.54C248.021 248.22 247.661 248.06 247.234 248.06H233.314C232.887 248.06 232.514 248.22 232.194 248.54C231.901 248.833 231.754 249.193 231.754 249.62V253.18C231.754 253.606 231.901 253.98 232.194 254.3C232.514 254.593 232.887 254.74 233.314 254.74H247.234C248.141 254.74 248.954 254.966 249.674 255.42C250.421 255.846 251.007 256.433 251.434 257.18C251.887 257.9 252.114 258.7 252.114 259.58V263.14C252.114 264.02 251.887 264.833 251.434 265.58C251.007 266.3 250.421 266.886 249.674 267.34C248.954 267.766 248.141 267.98 247.234 267.98H233.314Z"/>
</mask>
<path d="M34.8048 267.98C33.9248 267.98 33.1115 267.766 32.3648 267.34C31.6448 266.913 31.0715 266.34 30.6448 265.62C30.2181 264.873 30.0048 264.06 30.0048 263.18V243.98C30.0048 243.1 30.2181 242.3 30.6448 241.58C31.0715 240.833 31.6448 240.246 32.3648 239.82C33.1115 239.393 33.9248 239.18 34.8048 239.18H58.7248V242.42H34.8048C34.3781 242.42 34.0048 242.58 33.6848 242.9C33.3915 243.193 33.2448 243.553 33.2448 243.98V263.18C33.2448 263.606 33.3915 263.98 33.6848 264.3C34.0048 264.593 34.3781 264.74 34.8048 264.74H58.7248V267.98H34.8048ZM67.5354 267.98C66.6554 267.98 65.8421 267.766 65.0954 267.34C64.3754 266.886 63.7888 266.3 63.3354 265.58C62.9088 264.833 62.6954 264.02 62.6954 263.14V249.62C62.6954 248.74 62.9088 247.94 63.3354 247.22C63.7888 246.473 64.3754 245.886 65.0954 245.46C65.8421 245.006 66.6554 244.78 67.5354 244.78H81.4554C82.3621 244.78 83.1754 245.006 83.8954 245.46C84.6421 245.886 85.2288 246.473 85.6554 247.22C86.1088 247.94 86.3354 248.74 86.3354 249.62V263.14C86.3354 264.02 86.1088 264.833 85.6554 265.58C85.2288 266.3 84.6421 266.886 83.8954 267.34C83.1754 267.766 82.3621 267.98 81.4554 267.98H67.5354ZM67.5354 264.7H81.4554C81.8821 264.7 82.2421 264.553 82.5354 264.26C82.8554 263.94 83.0154 263.566 83.0154 263.14V249.62C83.0154 249.193 82.8554 248.833 82.5354 248.54C82.2421 248.22 81.8821 248.06 81.4554 248.06H67.5354C67.1088 248.06 66.7354 248.22 66.4154 248.54C66.1221 248.833 65.9754 249.193 65.9754 249.62V263.14C65.9754 263.566 66.1221 263.94 66.4154 264.26C66.7354 264.553 67.1088 264.7 67.5354 264.7ZM94.1507 267.98C93.2441 267.98 92.4174 267.766 91.6707 267.34C90.9507 266.886 90.3641 266.3 89.9107 265.58C89.4841 264.833 89.2707 264.02 89.2707 263.14V249.62C89.2707 248.74 89.4841 247.94 89.9107 247.22C90.3641 246.473 90.9507 245.886 91.6707 245.46C92.4174 245.006 93.2441 244.78 94.1507 244.78H109.631V237.18H112.911V267.98H94.1507ZM94.1507 264.7H108.071C108.497 264.7 108.857 264.553 109.151 264.26C109.471 263.94 109.631 263.566 109.631 263.14V249.62C109.631 249.193 109.471 248.833 109.151 248.54C108.857 248.22 108.497 248.06 108.071 248.06H94.1507C93.7241 248.06 93.3507 248.22 93.0307 248.54C92.7374 248.833 92.5907 249.193 92.5907 249.62V263.14C92.5907 263.566 92.7374 263.94 93.0307 264.26C93.3507 264.553 93.7241 264.7 94.1507 264.7ZM121.129 267.98C120.249 267.98 119.436 267.766 118.689 267.34C117.969 266.886 117.383 266.3 116.929 265.58C116.503 264.833 116.289 264.02 116.289 263.14V249.62C116.289 248.74 116.503 247.94 116.929 247.22C117.383 246.473 117.969 245.886 118.689 245.46C119.436 245.006 120.249 244.78 121.129 244.78H135.049C135.956 244.78 136.769 245.006 137.489 245.46C138.236 245.886 138.823 246.473 139.249 247.22C139.703 247.94 139.929 248.74 139.929 249.62V258.02H119.569V263.14C119.569 263.566 119.716 263.94 120.009 264.26C120.329 264.553 120.703 264.7 121.129 264.7H139.929V267.98H121.129ZM119.569 254.74H136.609V249.62C136.609 249.193 136.449 248.833 136.129 248.54C135.836 248.22 135.476 248.06 135.049 248.06H121.129C120.703 248.06 120.329 248.22 120.009 248.54C119.716 248.833 119.569 249.193 119.569 249.62V254.74Z" fill="#50FA7B"/>
<path d="M144.224 267.98V239.14H147.464V264.74H173.024V267.98H144.224ZM180.036 267.98C179.156 267.98 178.343 267.766 177.596 267.34C176.876 266.886 176.29 266.3 175.836 265.58C175.41 264.833 175.196 264.02 175.196 263.14V254.74H195.516V249.62C195.516 249.193 195.356 248.833 195.036 248.54C194.743 248.22 194.383 248.06 193.956 248.06H175.196V244.78H193.956C194.863 244.78 195.676 245.006 196.396 245.46C197.143 245.886 197.73 246.473 198.156 247.22C198.61 247.94 198.836 248.74 198.836 249.62V267.98H180.036ZM180.036 264.7H195.516V258.02H178.476V263.14C178.476 263.566 178.623 263.94 178.916 264.26C179.236 264.553 179.61 264.7 180.036 264.7ZM202.034 267.98V237.18H205.314V244.78H220.834C221.714 244.78 222.514 245.006 223.234 245.46C223.981 245.886 224.568 246.473 224.994 247.22C225.448 247.94 225.674 248.74 225.674 249.62V263.14C225.674 264.02 225.448 264.833 224.994 265.58C224.568 266.3 223.981 266.886 223.234 267.34C222.514 267.766 221.714 267.98 220.834 267.98H202.034ZM206.914 264.7H220.834C221.261 264.7 221.621 264.553 221.914 264.26C222.234 263.94 222.394 263.566 222.394 263.14V249.62C222.394 249.193 222.234 248.833 221.914 248.54C221.621 248.22 221.261 248.06 220.834 248.06H206.914C206.488 248.06 206.114 248.22 205.794 248.54C205.474 248.833 205.314 249.193 205.314 249.62V263.14C205.314 263.566 205.474 263.94 205.794 264.26C206.114 264.553 206.488 264.7 206.914 264.7ZM233.314 267.98C232.434 267.98 231.621 267.766 230.874 267.34C230.154 266.886 229.567 266.3 229.114 265.58C228.687 264.833 228.474 264.02 228.474 263.14V262.82H231.754V263.14C231.754 263.566 231.901 263.94 232.194 264.26C232.514 264.553 232.887 264.7 233.314 264.7H247.234C247.661 264.7 248.021 264.553 248.314 264.26C248.634 263.94 248.794 263.566 248.794 263.14V259.58C248.794 259.153 248.634 258.793 248.314 258.5C248.021 258.18 247.661 258.02 247.234 258.02H233.314C232.434 258.02 231.621 257.806 230.874 257.38C230.154 256.926 229.567 256.34 229.114 255.62C228.687 254.873 228.474 254.06 228.474 253.18V249.62C228.474 248.74 228.687 247.94 229.114 247.22C229.567 246.473 230.154 245.886 230.874 245.46C231.621 245.006 232.434 244.78 233.314 244.78H247.234C248.141 244.78 248.954 245.006 249.674 245.46C250.421 245.886 251.007 246.473 251.434 247.22C251.887 247.94 252.114 248.74 252.114 249.62V249.94H248.794V249.62C248.794 249.193 248.634 248.833 248.314 248.54C248.021 248.22 247.661 248.06 247.234 248.06H233.314C232.887 248.06 232.514 248.22 232.194 248.54C231.901 248.833 231.754 249.193 231.754 249.62V253.18C231.754 253.606 231.901 253.98 232.194 254.3C232.514 254.593 232.887 254.74 233.314 254.74H247.234C248.141 254.74 248.954 254.966 249.674 255.42C250.421 255.846 251.007 256.433 251.434 257.18C251.887 257.9 252.114 258.7 252.114 259.58V263.14C252.114 264.02 251.887 264.833 251.434 265.58C251.007 266.3 250.421 266.886 249.674 267.34C248.954 267.766 248.141 267.98 247.234 267.98H233.314Z" fill="#F8F8F2"/>
<path d="M32.3648 267.34L30.8354 269.921L30.8558 269.933L30.8764 269.944L32.3648 267.34ZM30.6448 265.62L28.0401 267.108L28.0518 267.129L28.0639 267.149L30.6448 265.62ZM30.6448 241.58L33.2257 243.109L33.2378 243.089L33.2495 243.068L30.6448 241.58ZM32.3648 239.82L30.8764 237.215L30.8558 237.227L30.8354 237.239L32.3648 239.82ZM58.7248 239.18H61.7248V236.18H58.7248V239.18ZM58.7248 242.42V245.42H61.7248V242.42H58.7248ZM33.6848 242.9L35.8061 245.021V245.021L33.6848 242.9ZM33.6848 264.3L31.4733 266.327L31.5615 266.423L31.6576 266.511L33.6848 264.3ZM58.7248 264.74H61.7248V261.74H58.7248V264.74ZM58.7248 267.98V270.98H61.7248V267.98H58.7248ZM34.8048 264.98C34.4342 264.98 34.1357 264.896 33.8532 264.735L30.8764 269.944C32.0873 270.636 33.4154 270.98 34.8048 270.98V264.98ZM33.8942 264.759C33.6074 264.589 33.3956 264.377 33.2257 264.09L28.0639 267.149C28.7473 268.302 29.6822 269.237 30.8354 269.921L33.8942 264.759ZM33.2495 264.131C33.0881 263.849 33.0048 263.55 33.0048 263.18H27.0048C27.0048 264.569 27.3481 265.897 28.0401 267.108L33.2495 264.131ZM33.0048 263.18V243.98H27.0048V263.18H33.0048ZM33.0048 243.98C33.0048 243.609 33.0877 243.342 33.2257 243.109L28.0639 240.05C27.3485 241.258 27.0048 242.59 27.0048 243.98H33.0048ZM33.2495 243.068C33.4258 242.76 33.6339 242.555 33.8942 242.401L30.8354 237.239C29.6557 237.938 28.7171 238.906 28.0401 240.091L33.2495 243.068ZM33.8532 242.424C34.1357 242.263 34.4342 242.18 34.8048 242.18V236.18C33.4154 236.18 32.0873 236.523 30.8764 237.215L33.8532 242.424ZM34.8048 242.18H58.7248V236.18H34.8048V242.18ZM55.7248 239.18V242.42H61.7248V239.18H55.7248ZM58.7248 239.42H34.8048V245.42H58.7248V239.42ZM34.8048 239.42C33.5305 239.42 32.4082 239.934 31.5635 240.778L35.8061 245.021C35.727 245.1 35.5886 245.211 35.3866 245.297C35.1811 245.385 34.9769 245.42 34.8048 245.42V239.42ZM31.5635 240.778C30.6898 241.652 30.2448 242.783 30.2448 243.98H36.2448C36.2448 244.116 36.2199 244.309 36.1331 244.522C36.0456 244.736 35.923 244.904 35.8061 245.021L31.5635 240.778ZM30.2448 243.98V263.18H36.2448V243.98H30.2448ZM30.2448 263.18C30.2448 264.371 30.6826 265.464 31.4733 266.327L35.8963 262.273C35.9781 262.362 36.0749 262.499 36.1471 262.683C36.2196 262.867 36.2448 263.042 36.2448 263.18H30.2448ZM31.6576 266.511C32.5202 267.302 33.6132 267.74 34.8048 267.74V261.74C34.9427 261.74 35.1172 261.765 35.3018 261.837C35.4855 261.91 35.6227 262.006 35.712 262.088L31.6576 266.511ZM34.8048 267.74H58.7248V261.74H34.8048V267.74ZM55.7248 264.74V267.98H61.7248V264.74H55.7248ZM58.7248 264.98H34.8048V270.98H58.7248V264.98ZM65.0954 267.34L63.497 269.878L63.5513 269.913L63.607 269.944L65.0954 267.34ZM63.3354 265.58L60.7307 267.068L60.7625 267.124L60.7967 267.178L63.3354 265.58ZM63.3354 247.22L60.7711 245.663L60.7627 245.676L60.7546 245.69L63.3354 247.22ZM65.0954 245.46L66.6248 248.041L66.6386 248.032L66.6524 248.024L65.0954 245.46ZM83.8954 245.46L82.297 247.998L82.3513 248.033L82.407 248.064L83.8954 245.46ZM85.6554 247.22L83.0507 248.708L83.0825 248.764L83.1167 248.818L85.6554 247.22ZM85.6554 265.58L83.0911 264.023L83.0827 264.036L83.0745 264.05L85.6554 265.58ZM83.8954 267.34L85.4248 269.921L85.4386 269.912L85.4524 269.904L83.8954 267.34ZM82.5354 264.26L84.6567 266.381L84.6568 266.381L82.5354 264.26ZM82.5354 248.54L80.324 250.567L80.4121 250.663L80.5082 250.751L82.5354 248.54ZM66.4154 248.54L68.5367 250.661L66.4154 248.54ZM66.4154 264.26L64.204 266.287L64.2921 266.383L64.3883 266.471L66.4154 264.26ZM67.5354 264.98C67.1648 264.98 66.8663 264.896 66.5838 264.735L63.607 269.944C64.8179 270.636 66.1461 270.98 67.5354 270.98V264.98ZM66.6939 264.801C66.3537 264.587 66.0883 264.321 65.8741 263.981L60.7967 267.178C61.4892 268.278 62.3972 269.186 63.497 269.878L66.6939 264.801ZM65.9402 264.091C65.7788 263.809 65.6954 263.51 65.6954 263.14H59.6954C59.6954 264.529 60.0388 265.857 60.7307 267.068L65.9402 264.091ZM65.6954 263.14V249.62H59.6954V263.14H65.6954ZM65.6954 249.62C65.6954 249.249 65.7784 248.982 65.9163 248.749L60.7546 245.69C60.0392 246.898 59.6954 248.23 59.6954 249.62H65.6954ZM65.8998 248.777C66.109 248.432 66.3474 248.205 66.6248 248.041L63.566 242.879C62.4034 243.568 61.4685 244.514 60.7711 245.663L65.8998 248.777ZM66.6524 248.024C66.926 247.858 67.2002 247.78 67.5354 247.78V241.78C66.1107 241.78 64.7582 242.155 63.5385 242.895L66.6524 248.024ZM67.5354 247.78H81.4554V241.78H67.5354V247.78ZM81.4554 247.78C81.8352 247.78 82.0874 247.866 82.297 247.998L85.4939 242.921C84.2634 242.146 82.889 241.78 81.4554 241.78V247.78ZM82.407 248.064C82.6886 248.225 82.8898 248.427 83.0507 248.708L88.2602 245.731C87.5677 244.52 86.5956 243.547 85.3838 242.855L82.407 248.064ZM83.1167 248.818C83.258 249.042 83.3354 249.285 83.3354 249.62H89.3354C89.3354 248.194 88.9595 246.837 88.1941 245.621L83.1167 248.818ZM83.3354 249.62V263.14H89.3354V249.62H83.3354ZM83.3354 263.14C83.3354 263.475 83.2572 263.749 83.0911 264.023L88.2198 267.137C88.9603 265.917 89.3354 264.564 89.3354 263.14H83.3354ZM83.0745 264.05C82.9102 264.328 82.6831 264.566 82.3385 264.775L85.4524 269.904C86.6011 269.207 87.5474 268.272 88.2363 267.109L83.0745 264.05ZM82.366 264.759C82.1473 264.888 81.8703 264.98 81.4554 264.98V270.98C82.8539 270.98 84.2035 270.644 85.4248 269.921L82.366 264.759ZM81.4554 264.98H67.5354V270.98H81.4554V264.98ZM67.5354 267.7H81.4554V261.7H67.5354V267.7ZM81.4554 267.7C82.6524 267.7 83.7831 267.255 84.6567 266.381L80.4141 262.138C80.5309 262.022 80.6989 261.899 80.9135 261.811C81.1265 261.725 81.3187 261.7 81.4554 261.7V267.7ZM84.6568 266.381C85.5015 265.536 86.0154 264.414 86.0154 263.14H80.0154C80.0154 262.968 80.0499 262.763 80.138 262.558C80.2246 262.356 80.335 262.217 80.4141 262.138L84.6568 266.381ZM86.0154 263.14V249.62H80.0154V263.14H86.0154ZM86.0154 249.62C86.0154 248.336 85.4902 247.179 84.5626 246.328L80.5082 250.751C80.3956 250.648 80.2577 250.481 80.154 250.248C80.0497 250.014 80.0154 249.791 80.0154 249.62H86.0154ZM84.7469 246.513C83.8966 245.585 82.7395 245.06 81.4554 245.06V251.06C81.2843 251.06 81.0616 251.025 80.827 250.921C80.5937 250.817 80.4272 250.679 80.324 250.567L84.7469 246.513ZM81.4554 245.06H67.5354V251.06H81.4554V245.06ZM67.5354 245.06C66.2611 245.06 65.1388 245.574 64.2941 246.418L68.5367 250.661C68.4576 250.74 68.3192 250.851 68.1172 250.937C67.9117 251.025 67.7075 251.06 67.5354 251.06V245.06ZM64.2941 246.418C63.4205 247.292 62.9754 248.423 62.9754 249.62H68.9754C68.9754 249.756 68.9505 249.949 68.8637 250.162C68.7762 250.376 68.6536 250.544 68.5367 250.661L64.2941 246.418ZM62.9754 249.62V263.14H68.9754V249.62H62.9754ZM62.9754 263.14C62.9754 264.331 63.4132 265.424 64.204 266.287L68.6269 262.233C68.7087 262.322 68.8055 262.459 68.8777 262.643C68.9502 262.827 68.9754 263.002 68.9754 263.14H62.9754ZM64.3883 266.471C65.2509 267.262 66.3438 267.7 67.5354 267.7V261.7C67.6734 261.7 67.8478 261.725 68.0324 261.797C68.2161 261.87 68.3533 261.966 68.4426 262.048L64.3883 266.471ZM91.6707 267.34L90.0723 269.878L90.1266 269.913L90.1823 269.944L91.6707 267.34ZM89.9107 265.58L87.306 267.068L87.3378 267.124L87.372 267.178L89.9107 265.58ZM89.9107 247.22L87.3464 245.663L87.338 245.676L87.3299 245.69L89.9107 247.22ZM91.6707 245.46L93.2001 248.041L93.214 248.032L93.2277 248.024L91.6707 245.46ZM109.631 244.78V247.78H112.631V244.78H109.631ZM109.631 237.18V234.18H106.631V237.18H109.631ZM112.911 237.18H115.911V234.18H112.911V237.18ZM112.911 267.98V270.98H115.911V267.98H112.911ZM109.151 264.26L111.272 266.381L111.272 266.381L109.151 264.26ZM109.151 248.54L106.939 250.567L107.027 250.663L107.124 250.751L109.151 248.54ZM93.0307 248.54L90.9094 246.418V246.418L93.0307 248.54ZM93.0307 264.26L90.8193 266.287L90.9074 266.383L91.0036 266.471L93.0307 264.26ZM94.1507 264.98C93.7367 264.98 93.4276 264.888 93.1592 264.735L90.1823 269.944C91.4072 270.644 92.7514 270.98 94.1507 270.98V264.98ZM93.2692 264.801C92.929 264.587 92.6636 264.321 92.4494 263.981L87.372 267.178C88.0645 268.278 88.9725 269.186 90.0723 269.878L93.2692 264.801ZM92.5155 264.091C92.3541 263.809 92.2707 263.51 92.2707 263.14H86.2707C86.2707 264.529 86.6141 265.857 87.306 267.068L92.5155 264.091ZM92.2707 263.14V249.62H86.2707V263.14H92.2707ZM92.2707 249.62C92.2707 249.249 92.3537 248.982 92.4916 248.749L87.3299 245.69C86.6145 246.898 86.2707 248.23 86.2707 249.62H92.2707ZM92.4751 248.777C92.6843 248.432 92.9227 248.205 93.2001 248.041L90.1413 242.879C88.9787 243.568 88.0438 244.514 87.3464 245.663L92.4751 248.777ZM93.2277 248.024C93.4867 247.867 93.7713 247.78 94.1507 247.78V241.78C92.7169 241.78 91.3481 242.146 90.1138 242.895L93.2277 248.024ZM94.1507 247.78H109.631V241.78H94.1507V247.78ZM112.631 244.78V237.18H106.631V244.78H112.631ZM109.631 240.18H112.911V234.18H109.631V240.18ZM109.911 237.18V267.98H115.911V237.18H109.911ZM112.911 264.98H94.1507V270.98H112.911V264.98ZM94.1507 267.7H108.071V261.7H94.1507V267.7ZM108.071 267.7C109.268 267.7 110.398 267.255 111.272 266.381L107.029 262.138C107.146 262.022 107.314 261.899 107.529 261.811C107.742 261.725 107.934 261.7 108.071 261.7V267.7ZM111.272 266.381C112.117 265.536 112.631 264.414 112.631 263.14H106.631C106.631 262.968 106.665 262.763 106.753 262.558C106.84 262.356 106.95 262.217 107.029 262.138L111.272 266.381ZM112.631 263.14V249.62H106.631V263.14H112.631ZM112.631 249.62C112.631 248.336 112.106 247.179 111.178 246.328L107.124 250.751C107.011 250.648 106.873 250.481 106.769 250.248C106.665 250.014 106.631 249.791 106.631 249.62H112.631ZM111.362 246.513C110.512 245.585 109.355 245.06 108.071 245.06V251.06C107.9 251.06 107.677 251.025 107.442 250.921C107.209 250.817 107.043 250.679 106.939 250.567L111.362 246.513ZM108.071 245.06H94.1507V251.06H108.071V245.06ZM94.1507 245.06C92.8764 245.06 91.7542 245.574 90.9094 246.418L95.1521 250.661C95.073 250.74 94.9345 250.851 94.7325 250.937C94.527 251.025 94.3228 251.06 94.1507 251.06V245.06ZM90.9094 246.418C90.0358 247.292 89.5907 248.423 89.5907 249.62H95.5907C95.5907 249.756 95.5658 249.949 95.479 250.162C95.3916 250.376 95.2689 250.544 95.1521 250.661L90.9094 246.418ZM89.5907 249.62V263.14H95.5907V249.62H89.5907ZM89.5907 263.14C89.5907 264.331 90.0285 265.424 90.8193 266.287L95.2422 262.233C95.3241 262.322 95.4208 262.459 95.493 262.643C95.5655 262.827 95.5907 263.002 95.5907 263.14H89.5907ZM91.0036 266.471C91.8662 267.262 92.9591 267.7 94.1507 267.7V261.7C94.2887 261.7 94.4631 261.725 94.6477 261.797C94.8314 261.87 94.9686 261.966 95.0579 262.048L91.0036 266.471ZM118.689 267.34L117.091 269.878L117.145 269.913L117.201 269.944L118.689 267.34ZM116.929 265.58L114.324 267.068L114.356 267.124L114.39 267.178L116.929 265.58ZM116.929 247.22L114.365 245.663L114.356 245.676L114.348 245.69L116.929 247.22ZM118.689 245.46L120.219 248.041L120.232 248.032L120.246 248.024L118.689 245.46ZM137.489 245.46L135.891 247.998L135.945 248.033L136.001 248.064L137.489 245.46ZM139.249 247.22L136.644 248.708L136.676 248.764L136.71 248.818L139.249 247.22ZM139.929 258.02V261.02H142.929V258.02H139.929ZM119.569 258.02V255.02H116.569V258.02H119.569ZM120.009 264.26L117.798 266.287L117.886 266.383L117.982 266.471L120.009 264.26ZM139.929 264.7H142.929V261.7H139.929V264.7ZM139.929 267.98V270.98H142.929V267.98H139.929ZM119.569 254.74H116.569V257.74H119.569V254.74ZM136.609 254.74V257.74H139.609V254.74H136.609ZM136.129 248.54L133.918 250.567L134.006 250.663L134.102 250.751L136.129 248.54ZM120.009 248.54L122.13 250.661L120.009 248.54ZM121.129 264.98C120.759 264.98 120.46 264.896 120.178 264.735L117.201 269.944C118.412 270.636 119.74 270.98 121.129 270.98V264.98ZM120.288 264.801C119.947 264.587 119.682 264.321 119.468 263.981L114.39 267.178C115.083 268.278 115.991 269.186 117.091 269.878L120.288 264.801ZM119.534 264.091C119.373 263.809 119.289 263.51 119.289 263.14H113.289C113.289 264.529 113.633 265.857 114.324 267.068L119.534 264.091ZM119.289 263.14V249.62H113.289V263.14H119.289ZM119.289 249.62C119.289 249.249 119.372 248.982 119.51 248.749L114.348 245.69C113.633 246.898 113.289 248.23 113.289 249.62H119.289ZM119.494 248.777C119.703 248.432 119.941 248.205 120.219 248.041L117.16 242.879C115.997 243.568 115.062 244.514 114.365 245.663L119.494 248.777ZM120.246 248.024C120.52 247.858 120.794 247.78 121.129 247.78V241.78C119.704 241.78 118.352 242.155 117.132 242.895L120.246 248.024ZM121.129 247.78H135.049V241.78H121.129V247.78ZM135.049 247.78C135.429 247.78 135.681 247.866 135.891 247.998L139.088 242.921C137.857 242.146 136.483 241.78 135.049 241.78V247.78ZM136.001 248.064C136.282 248.225 136.484 248.427 136.644 248.708L141.854 245.731C141.161 244.52 140.189 243.547 138.978 242.855L136.001 248.064ZM136.71 248.818C136.852 249.042 136.929 249.285 136.929 249.62H142.929C142.929 248.194 142.553 246.837 141.788 245.621L136.71 248.818ZM136.929 249.62V258.02H142.929V249.62H136.929ZM139.929 255.02H119.569V261.02H139.929V255.02ZM116.569 258.02V263.14H122.569V258.02H116.569ZM116.569 263.14C116.569 264.331 117.007 265.424 117.798 266.287L122.221 262.233C122.302 262.322 122.399 262.459 122.471 262.643C122.544 262.827 122.569 263.002 122.569 263.14H116.569ZM117.982 266.471C118.845 267.262 119.938 267.7 121.129 267.7V261.7C121.267 261.7 121.442 261.725 121.626 261.797C121.81 261.87 121.947 261.966 122.036 262.048L117.982 266.471ZM121.129 267.7H139.929V261.7H121.129V267.7ZM136.929 264.7V267.98H142.929V264.7H136.929ZM139.929 264.98H121.129V270.98H139.929V264.98ZM119.569 257.74H136.609V251.74H119.569V257.74ZM139.609 254.74V249.62H133.609V254.74H139.609ZM139.609 249.62C139.609 248.336 139.084 247.179 138.156 246.328L134.102 250.751C133.989 250.648 133.851 250.481 133.748 250.248C133.643 250.014 133.609 249.791 133.609 249.62H139.609ZM138.341 246.513C137.49 245.585 136.333 245.06 135.049 245.06V251.06C134.878 251.06 134.655 251.025 134.421 250.921C134.187 250.817 134.021 250.679 133.918 250.567L138.341 246.513ZM135.049 245.06H121.129V251.06H135.049V245.06ZM121.129 245.06C119.855 245.06 118.733 245.574 117.888 246.418L122.13 250.661C122.051 250.74 121.913 250.851 121.711 250.937C121.505 251.025 121.301 251.06 121.129 251.06V245.06ZM117.888 246.418C117.014 247.292 116.569 248.423 116.569 249.62H122.569C122.569 249.756 122.544 249.949 122.457 250.162C122.37 250.376 122.247 250.544 122.13 250.661L117.888 246.418ZM116.569 249.62V254.74H122.569V249.62H116.569ZM144.224 267.98H141.224V270.98H144.224V267.98ZM144.224 239.14V236.14H141.224V239.14H144.224ZM147.464 239.14H150.464V236.14H147.464V239.14ZM147.464 264.74H144.464V267.74H147.464V264.74ZM173.024 264.74H176.024V261.74H173.024V264.74ZM173.024 267.98V270.98H176.024V267.98H173.024ZM147.224 267.98V239.14H141.224V267.98H147.224ZM144.224 242.14H147.464V236.14H144.224V242.14ZM144.464 239.14V264.74H150.464V239.14H144.464ZM147.464 267.74H173.024V261.74H147.464V267.74ZM170.024 264.74V267.98H176.024V264.74H170.024ZM173.024 264.98H144.224V270.98H173.024V264.98ZM177.596 267.34L175.998 269.878L176.052 269.913L176.108 269.944L177.596 267.34ZM175.836 265.58L173.232 267.068L173.263 267.124L173.298 267.178L175.836 265.58ZM175.196 254.74V251.74H172.196V254.74H175.196ZM195.516 254.74V257.74H198.516V254.74H195.516ZM195.036 248.54L192.825 250.567L192.913 250.663L193.009 250.751L195.036 248.54ZM175.196 248.06H172.196V251.06H175.196V248.06ZM175.196 244.78V241.78H172.196V244.78H175.196ZM196.396 245.46L194.798 247.998L194.852 248.033L194.908 248.064L196.396 245.46ZM198.156 247.22L195.552 248.708L195.583 248.764L195.618 248.818L198.156 247.22ZM198.836 267.98V270.98H201.836V267.98H198.836ZM195.516 264.7V267.7H198.516V264.7H195.516ZM195.516 258.02H198.516V255.02H195.516V258.02ZM178.476 258.02V255.02H175.476V258.02H178.476ZM178.916 264.26L176.705 266.287L176.793 266.383L176.889 266.471L178.916 264.26ZM180.036 264.98C179.666 264.98 179.367 264.896 179.085 264.735L176.108 269.944C177.319 270.636 178.647 270.98 180.036 270.98V264.98ZM179.195 264.801C178.855 264.587 178.589 264.321 178.375 263.981L173.298 267.178C173.99 268.278 174.898 269.186 175.998 269.878L179.195 264.801ZM178.441 264.091C178.28 263.809 178.196 263.51 178.196 263.14H172.196C172.196 264.529 172.54 265.857 173.232 267.068L178.441 264.091ZM178.196 263.14V254.74H172.196V263.14H178.196ZM175.196 257.74H195.516V251.74H175.196V257.74ZM198.516 254.74V249.62H192.516V254.74H198.516ZM198.516 249.62C198.516 248.336 197.991 247.179 197.064 246.328L193.009 250.751C192.897 250.648 192.759 250.481 192.655 250.248C192.551 250.014 192.516 249.791 192.516 249.62H198.516ZM197.248 246.513C196.398 245.585 195.24 245.06 193.956 245.06V251.06C193.785 251.06 193.562 251.025 193.328 250.921C193.095 250.817 192.928 250.679 192.825 250.567L197.248 246.513ZM193.956 245.06H175.196V251.06H193.956V245.06ZM178.196 248.06V244.78H172.196V248.06H178.196ZM175.196 247.78H193.956V241.78H175.196V247.78ZM193.956 247.78C194.336 247.78 194.588 247.866 194.798 247.998L197.995 242.921C196.764 242.146 195.39 241.78 193.956 241.78V247.78ZM194.908 248.064C195.19 248.225 195.391 248.427 195.552 248.708L200.761 245.731C200.069 244.52 199.097 243.547 197.885 242.855L194.908 248.064ZM195.618 248.818C195.759 249.042 195.836 249.285 195.836 249.62H201.836C201.836 248.194 201.46 246.837 200.695 245.621L195.618 248.818ZM195.836 249.62V267.98H201.836V249.62H195.836ZM198.836 264.98H180.036V270.98H198.836V264.98ZM180.036 267.7H195.516V261.7H180.036V267.7ZM198.516 264.7V258.02H192.516V264.7H198.516ZM195.516 255.02H178.476V261.02H195.516V255.02ZM175.476 258.02V263.14H181.476V258.02H175.476ZM175.476 263.14C175.476 264.331 175.914 265.424 176.705 266.287L181.128 262.233C181.21 262.322 181.306 262.459 181.379 262.643C181.451 262.827 181.476 263.002 181.476 263.14H175.476ZM176.889 266.471C177.752 267.262 178.845 267.7 180.036 267.7V261.7C180.174 261.7 180.349 261.725 180.533 261.797C180.717 261.87 180.854 261.966 180.944 262.048L176.889 266.471ZM202.034 267.98H199.034V270.98H202.034V267.98ZM202.034 237.18V234.18H199.034V237.18H202.034ZM205.314 237.18H208.314V234.18H205.314V237.18ZM205.314 244.78H202.314V247.78H205.314V244.78ZM223.234 245.46L221.636 247.998L221.69 248.033L221.746 248.064L223.234 245.46ZM224.994 247.22L222.389 248.708L222.421 248.764L222.455 248.818L224.994 247.22ZM224.994 265.58L222.43 264.023L222.421 264.036L222.413 264.05L224.994 265.58ZM223.234 267.34L224.764 269.921L224.777 269.912L224.791 269.904L223.234 267.34ZM221.914 264.26L219.793 262.138L219.793 262.138L221.914 264.26ZM221.914 248.54L219.703 250.567L219.791 250.663L219.887 250.751L221.914 248.54ZM205.794 248.54L207.821 250.751L207.869 250.707L207.915 250.661L205.794 248.54ZM205.794 264.26L203.673 266.381L203.719 266.427L203.767 266.471L205.794 264.26ZM205.034 267.98V237.18H199.034V267.98H205.034ZM202.034 240.18H205.314V234.18H202.034V240.18ZM202.314 237.18V244.78H208.314V237.18H202.314ZM205.314 247.78H220.834V241.78H205.314V247.78ZM220.834 247.78C221.169 247.78 221.411 247.857 221.636 247.998L224.833 242.921C223.617 242.156 222.259 241.78 220.834 241.78V247.78ZM221.746 248.064C222.027 248.225 222.229 248.427 222.389 248.708L227.599 245.731C226.906 244.52 225.934 243.547 224.723 242.855L221.746 248.064ZM222.455 248.818C222.597 249.042 222.674 249.285 222.674 249.62H228.674C228.674 248.194 228.298 246.837 227.533 245.621L222.455 248.818ZM222.674 249.62V263.14H228.674V249.62H222.674ZM222.674 263.14C222.674 263.475 222.596 263.749 222.43 264.023L227.559 267.137C228.299 265.917 228.674 264.564 228.674 263.14H222.674ZM222.413 264.05C222.249 264.328 222.022 264.566 221.677 264.775L224.791 269.904C225.94 269.207 226.886 268.272 227.575 267.109L222.413 264.05ZM221.705 264.759C221.472 264.897 221.205 264.98 220.834 264.98V270.98C222.223 270.98 223.556 270.636 224.764 269.921L221.705 264.759ZM220.834 264.98H202.034V270.98H220.834V264.98ZM206.914 267.7H220.834V261.7H206.914V267.7ZM220.834 267.7C222.031 267.7 223.162 267.255 224.035 266.381L219.793 262.138C219.91 262.022 220.078 261.899 220.292 261.811C220.505 261.725 220.697 261.7 220.834 261.7V267.7ZM224.035 266.381C224.88 265.536 225.394 264.414 225.394 263.14H219.394C219.394 262.968 219.429 262.763 219.517 262.558C219.603 262.356 219.714 262.217 219.793 262.138L224.035 266.381ZM225.394 263.14V249.62H219.394V263.14H225.394ZM225.394 249.62C225.394 248.336 224.869 247.179 223.941 246.328L219.887 250.751C219.774 250.648 219.636 250.481 219.533 250.248C219.428 250.014 219.394 249.791 219.394 249.62H225.394ZM224.126 246.513C223.275 245.585 222.118 245.06 220.834 245.06V251.06C220.663 251.06 220.44 251.025 220.206 250.921C219.972 250.817 219.806 250.679 219.703 250.567L224.126 246.513ZM220.834 245.06H206.914V251.06H220.834V245.06ZM206.914 245.06C205.64 245.06 204.518 245.574 203.673 246.418L207.915 250.661C207.836 250.74 207.698 250.851 207.496 250.937C207.29 251.025 207.086 251.06 206.914 251.06V245.06ZM203.767 246.328C202.839 247.179 202.314 248.336 202.314 249.62H208.314C208.314 249.791 208.28 250.014 208.176 250.248C208.072 250.481 207.934 250.648 207.821 250.751L203.767 246.328ZM202.314 249.62V263.14H208.314V249.62H202.314ZM202.314 263.14C202.314 264.414 202.828 265.536 203.673 266.381L207.915 262.138C207.995 262.217 208.105 262.356 208.192 262.558C208.28 262.763 208.314 262.968 208.314 263.14H202.314ZM203.767 266.471C204.63 267.262 205.723 267.7 206.914 267.7V261.7C207.052 261.7 207.227 261.725 207.411 261.797C207.595 261.87 207.732 261.966 207.821 262.048L203.767 266.471ZM230.874 267.34L229.275 269.878L229.33 269.913L229.385 269.944L230.874 267.34ZM229.114 265.58L226.509 267.068L226.541 267.124L226.575 267.178L229.114 265.58ZM228.474 262.82V259.82H225.474V262.82H228.474ZM231.754 262.82H234.754V259.82H231.754V262.82ZM232.194 264.26L229.982 266.287L230.071 266.383L230.167 266.471L232.194 264.26ZM248.314 264.26L246.193 262.138L246.193 262.138L248.314 264.26ZM248.314 258.5L246.102 260.527L246.191 260.623L246.287 260.711L248.314 258.5ZM230.874 257.38L229.275 259.918L229.33 259.953L229.385 259.984L230.874 257.38ZM229.114 255.62L226.509 257.108L226.541 257.164L226.575 257.218L229.114 255.62ZM229.114 247.22L226.549 245.663L226.541 245.676L226.533 245.69L229.114 247.22ZM230.874 245.46L232.403 248.041L232.417 248.032L232.431 248.024L230.874 245.46ZM249.674 245.46L248.075 247.998L248.13 248.033L248.185 248.064L249.674 245.46ZM251.434 247.22L248.829 248.708L248.861 248.764L248.895 248.818L251.434 247.22ZM252.114 249.94V252.94H255.114V249.94H252.114ZM248.794 249.94H245.794V252.94H248.794V249.94ZM248.314 248.54L246.102 250.567L246.191 250.663L246.287 250.751L248.314 248.54ZM232.194 248.54L230.073 246.418V246.418L232.194 248.54ZM232.194 254.3L229.982 256.327L230.071 256.423L230.167 256.511L232.194 254.3ZM249.674 255.42L248.075 257.958L248.13 257.993L248.185 258.024L249.674 255.42ZM251.434 257.18L248.829 258.668L248.861 258.724L248.895 258.778L251.434 257.18ZM251.434 265.58L248.87 264.023L248.861 264.036L248.853 264.05L251.434 265.58ZM249.674 267.34L251.203 269.921L251.217 269.912L251.231 269.904L249.674 267.34ZM233.314 264.98C232.943 264.98 232.645 264.896 232.362 264.735L229.385 269.944C230.596 270.636 231.924 270.98 233.314 270.98V264.98ZM232.472 264.801C232.132 264.587 231.867 264.321 231.653 263.981L226.575 267.178C227.268 268.278 228.176 269.186 229.275 269.878L232.472 264.801ZM231.719 264.091C231.557 263.809 231.474 263.51 231.474 263.14H225.474C225.474 264.529 225.817 265.857 226.509 267.068L231.719 264.091ZM231.474 263.14V262.82H225.474V263.14H231.474ZM228.474 265.82H231.754V259.82H228.474V265.82ZM228.754 262.82V263.14H234.754V262.82H228.754ZM228.754 263.14C228.754 264.331 229.192 265.424 229.982 266.287L234.405 262.233C234.487 262.322 234.584 262.459 234.656 262.643C234.729 262.827 234.754 263.002 234.754 263.14H228.754ZM230.167 266.471C231.029 267.262 232.122 267.7 233.314 267.7V261.7C233.452 261.7 233.626 261.725 233.811 261.797C233.995 261.87 234.132 261.966 234.221 262.048L230.167 266.471ZM233.314 267.7H247.234V261.7H233.314V267.7ZM247.234 267.7C248.431 267.7 249.562 267.255 250.435 266.381L246.193 262.138C246.309 262.022 246.477 261.899 246.692 261.811C246.905 261.725 247.097 261.7 247.234 261.7V267.7ZM250.435 266.381C251.28 265.536 251.794 264.414 251.794 263.14H245.794C245.794 262.968 245.828 262.763 245.916 262.558C246.003 262.356 246.113 262.217 246.193 262.138L250.435 266.381ZM251.794 263.14V259.58H245.794V263.14H251.794ZM251.794 259.58C251.794 258.296 251.269 257.139 250.341 256.288L246.287 260.711C246.174 260.608 246.036 260.441 245.932 260.208C245.828 259.974 245.794 259.751 245.794 259.58H251.794ZM250.525 256.473C249.675 255.545 248.518 255.02 247.234 255.02V261.02C247.063 261.02 246.84 260.985 246.605 260.881C246.372 260.777 246.206 260.639 246.102 260.527L250.525 256.473ZM247.234 255.02H233.314V261.02H247.234V255.02ZM233.314 255.02C232.943 255.02 232.645 254.936 232.362 254.775L229.385 259.984C230.596 260.676 231.924 261.02 233.314 261.02V255.02ZM232.472 254.841C232.132 254.627 231.867 254.361 231.653 254.021L226.575 257.218C227.268 258.318 228.176 259.226 229.275 259.918L232.472 254.841ZM231.719 254.131C231.557 253.849 231.474 253.55 231.474 253.18H225.474C225.474 254.569 225.817 255.897 226.509 257.108L231.719 254.131ZM231.474 253.18V249.62H225.474V253.18H231.474ZM231.474 249.62C231.474 249.249 231.557 248.982 231.695 248.749L226.533 245.69C225.818 246.898 225.474 248.23 225.474 249.62H231.474ZM231.678 248.777C231.887 248.432 232.126 248.205 232.403 248.041L229.344 242.879C228.182 243.568 227.247 244.514 226.549 245.663L231.678 248.777ZM232.431 248.024C232.704 247.858 232.979 247.78 233.314 247.78V241.78C231.889 241.78 230.537 242.155 229.317 242.895L232.431 248.024ZM233.314 247.78H247.234V241.78H233.314V247.78ZM247.234 247.78C247.614 247.78 247.866 247.866 248.075 247.998L251.272 242.921C250.042 242.146 248.667 241.78 247.234 241.78V247.78ZM248.185 248.064C248.467 248.225 248.668 248.427 248.829 248.708L254.039 245.731C253.346 244.52 252.374 243.547 251.162 242.855L248.185 248.064ZM248.895 248.818C249.036 249.042 249.114 249.285 249.114 249.62H255.114C255.114 248.194 254.738 246.837 253.973 245.621L248.895 248.818ZM249.114 249.62V249.94H255.114V249.62H249.114ZM252.114 246.94H248.794V252.94H252.114V246.94ZM251.794 249.94V249.62H245.794V249.94H251.794ZM251.794 249.62C251.794 248.336 251.269 247.179 250.341 246.328L246.287 250.751C246.174 250.648 246.036 250.481 245.932 250.248C245.828 250.014 245.794 249.791 245.794 249.62H251.794ZM250.525 246.513C249.675 245.585 248.518 245.06 247.234 245.06V251.06C247.063 251.06 246.84 251.025 246.605 250.921C246.372 250.817 246.206 250.679 246.102 250.567L250.525 246.513ZM247.234 245.06H233.314V251.06H247.234V245.06ZM233.314 245.06C232.04 245.06 230.917 245.574 230.073 246.418L234.315 250.661C234.236 250.74 234.098 250.851 233.896 250.937C233.69 251.025 233.486 251.06 233.314 251.06V245.06ZM230.073 246.418C229.199 247.292 228.754 248.423 228.754 249.62H234.754C234.754 249.756 234.729 249.949 234.642 250.162C234.555 250.376 234.432 250.544 234.315 250.661L230.073 246.418ZM228.754 249.62V253.18H234.754V249.62H228.754ZM228.754 253.18C228.754 254.371 229.192 255.464 229.982 256.327L234.405 252.273C234.487 252.362 234.584 252.499 234.656 252.683C234.729 252.867 234.754 253.042 234.754 253.18H228.754ZM230.167 256.511C231.029 257.302 232.122 257.74 233.314 257.74V251.74C233.452 251.74 233.626 251.765 233.811 251.837C233.995 251.91 234.132 252.006 234.221 252.088L230.167 256.511ZM233.314 257.74H247.234V251.74H233.314V257.74ZM247.234 257.74C247.614 257.74 247.866 257.826 248.075 257.958L251.272 252.881C250.042 252.106 248.667 251.74 247.234 251.74V257.74ZM248.185 258.024C248.467 258.185 248.668 258.387 248.829 258.668L254.039 255.691C253.346 254.48 252.374 253.507 251.162 252.815L248.185 258.024ZM248.895 258.778C249.036 259.002 249.114 259.245 249.114 259.58H255.114C255.114 258.154 254.738 256.797 253.973 255.581L248.895 258.778ZM249.114 259.58V263.14H255.114V259.58H249.114ZM249.114 263.14C249.114 263.475 249.036 263.749 248.87 264.023L253.998 267.137C254.739 265.917 255.114 264.564 255.114 263.14H249.114ZM248.853 264.05C248.689 264.328 248.462 264.566 248.117 264.775L251.231 269.904C252.38 269.207 253.326 268.272 254.015 267.109L248.853 264.05ZM248.144 264.759C247.926 264.888 247.649 264.98 247.234 264.98V270.98C248.632 270.98 249.982 270.644 251.203 269.921L248.144 264.759ZM247.234 264.98H233.314V270.98H247.234V264.98Z" fill="#13201E" mask="url(#path-13-outside-1_238_3650)"/>
</svg>
