<svg width="53" height="41" viewBox="0 0 53 41" fill="none" xmlns="http://www.w3.org/2000/svg">
<path d="M28.3013 12.269H23.3583C18.9694 12.269 15.4115 15.8339 15.4115 20.2313V32.9549C15.4115 37.3523 18.9694 40.9172 23.3583 40.9172H28.3013C32.6902 40.9172 36.2481 37.3523 36.2481 32.9549V20.2313C36.2481 15.8339 32.6902 12.269 28.3013 12.269Z" fill="#F9D075"/>
<path d="M15.0269 8.62848C15.0269 8.62848 12.6619 4.33205 13.8221 0.220356C13.8221 0.220356 18.8191 -1.12048 22.2108 2.81286L15.0269 8.62848Z" fill="#F9D075"/>
<path d="M15.7548 7.52328C15.7548 7.52328 13.9969 4.33839 14.8583 1.26815C14.8583 1.26815 18.5743 0.271276 21.0982 3.19819L15.7548 7.52328Z" fill="#FFE9A1"/>
<path d="M37.2399 7.52328C37.2399 7.52328 38.9978 4.33839 38.1363 1.26815C38.1363 1.26815 34.4204 0.271276 31.8965 3.19819L37.2399 7.52328Z" fill="#FFE9A1"/>
<path d="M37.9646 8.62848C37.9646 8.62848 40.3296 4.33205 39.1693 0.220356C39.1693 0.220356 34.1723 -1.12048 30.7806 2.81286L37.9646 8.62848Z" fill="#F9D075"/>
<path d="M37.2399 7.52328C37.2399 7.52328 38.9978 4.33839 38.1363 1.26815C38.1363 1.26815 34.4204 0.271276 31.8965 3.19819L37.2399 7.52328Z" fill="#FFE9A1"/>
<path d="M39.1662 13.8008C39.1662 14.1405 39.1513 14.4781 39.1217 14.8136C38.5845 21.056 33.1361 25.9607 26.4958 25.9607C20.5515 25.9607 15.5609 22.0306 14.1941 16.7245C13.9487 15.7683 13.8248 14.7849 13.8253 13.7976C13.8253 7.08386 19.4994 1.6377 26.4958 1.6377C33.4921 1.6377 39.1662 7.09342 39.1662 13.8008Z" fill="#F9D075"/>
<path d="M15.7008 19.6195L14.7472 17.5621H10.8055L13.0307 19.5303L11.4254 20.0654C11.4254 20.0654 24.7189 34.3688 40.87 20.0654L39.6208 19.6195L41.5852 17.922L40.1389 17.5621L40.6729 16.4888L38.5177 16.5779L36.032 21.2247L27.7418 24.8937L15.7008 19.6195Z" fill="#FFE9A1"/>
<path d="M31.0477 16.2215C31.6885 16.2215 32.2079 15.701 32.2079 15.059C32.2079 14.4169 31.6885 13.8965 31.0477 13.8965C30.4069 13.8965 29.8875 14.4169 29.8875 15.059C29.8875 15.701 30.4069 16.2215 31.0477 16.2215Z" fill="#2B1F0E"/>
<path d="M21.591 16.2215C22.2318 16.2215 22.7513 15.701 22.7513 15.059C22.7513 14.4169 22.2318 13.8965 21.591 13.8965C20.9502 13.8965 20.4308 14.4169 20.4308 15.059C20.4308 15.701 20.9502 16.2215 21.591 16.2215Z" fill="#2B1F0E"/>
<path d="M39.1249 14.8198C38.5877 21.0622 33.1393 25.967 26.499 25.967C20.5547 25.967 15.5641 22.0368 14.1973 16.7308C14.833 17.3104 15.402 18.1512 15.9106 18.699C16.2799 19.1351 16.7078 19.5178 17.1821 19.836C17.9609 20.3138 18.9081 20.4252 19.8204 20.473C20.6437 20.5049 21.5592 20.4539 22.1473 19.8742C22.7353 19.2946 22.8021 18.4506 23.139 17.7308C23.3984 17.2121 23.7778 16.7631 24.2456 16.4213C24.7134 16.0794 25.2561 15.8547 25.8282 15.7657C26.9834 15.6031 28.1567 15.8915 29.1055 16.5715C29.3625 16.7399 29.5848 16.9561 29.7603 17.2085C29.9438 17.5577 30.0939 17.9234 30.2085 18.3009C30.9428 20.0845 33.3141 20.801 35.1038 20.0876C36.8934 19.3742 38.0791 17.5748 38.5209 15.6957C38.6036 15.323 38.7784 14.858 39.1249 14.8198Z" fill="#FFE9A1"/>
<path d="M26.3177 20.7822L25.7837 21.3173C25.9367 21.3919 26.1046 21.4307 26.2748 21.4307C26.445 21.4307 26.6129 21.3919 26.7659 21.3173L26.3177 20.7822Z" fill="#E3E354"/>
<path d="M39.1662 12.4663H13.8253V13.3613H39.1662V12.4663Z" fill="#535461"/>
<path d="M18.9113 13.3613H13.8253V18.1005H18.9113V13.3613Z" fill="#535461"/>
<path opacity="0.2" d="M18.8668 13.3169H24.757V14.3138C24.757 15.1635 24.4201 15.9785 23.8204 16.5793C23.2207 17.1802 22.4073 17.5178 21.5592 17.5178H18.87V13.3169H18.8668Z" fill="#535461"/>
<path d="M13.3898 12.4666H13.9906V18.0975H13.3771C13.1178 18.0975 12.8612 18.0463 12.6217 17.9469C12.3822 17.8475 12.1646 17.7018 11.9813 17.5182C11.798 17.3345 11.6525 17.1165 11.5533 16.8765C11.4541 16.6366 11.4031 16.3794 11.4031 16.1196V14.4412C11.4031 14.1815 11.4541 13.9243 11.5533 13.6843C11.6525 13.4444 11.798 13.2263 11.9813 13.0427C12.1646 12.859 12.3822 12.7133 12.6217 12.6139C12.8612 12.5145 13.1178 12.4634 13.3771 12.4634L13.3898 12.4666Z" fill="#535461"/>
<path d="M23.7748 21.0943C23.7748 21.0943 26.2733 22.2568 26.2733 19.3076" stroke="#2B1F0E" stroke-width="2" stroke-miterlimit="10" stroke-linecap="round"/>
<path d="M28.7717 21.0943C28.7717 21.0943 26.2732 22.2568 26.2732 19.3076" stroke="#2B1F0E" stroke-width="2" stroke-miterlimit="10" stroke-linecap="round"/>
<path d="M26.3177 19.349C26.8602 19.349 27.2999 18.7886 27.2999 18.0974C27.2999 17.4061 26.8602 16.8457 26.3177 16.8457C25.7752 16.8457 25.3354 17.4061 25.3354 18.0974C25.3354 18.7886 25.7752 19.349 26.3177 19.349Z" fill="#E3E354"/>
<path opacity="0.05" d="M51.3789 35.9102L52.18 35.9484L52.11 39.2161L51.3821 39.2575L51.3789 35.9102Z" fill="black"/>
<path opacity="0.05" d="M1.04687 35.9326H0.182251V39.2799H1.04687V35.9326Z" fill="black"/>
<path d="M38.8324 33.8814C41.1392 33.8814 43.0092 31.6128 43.0092 28.8142C43.0092 26.0157 41.1392 23.7471 38.8324 23.7471C36.5256 23.7471 34.6555 26.0157 34.6555 28.8142C34.6555 31.6128 36.5256 33.8814 38.8324 33.8814Z" fill="#FFE9A1"/>
<path d="M11.5462 32.6299C13.8531 32.6299 15.7231 30.3613 15.7231 27.5628C15.7231 24.7643 13.8531 22.4956 11.5462 22.4956C9.23943 22.4956 7.36938 24.7643 7.36938 27.5628C7.36938 30.3613 9.23943 32.6299 11.5462 32.6299Z" fill="#FFE9A1"/>
</svg>
