<svg width="89" height="114" viewBox="0 0 89 114" fill="none" xmlns="http://www.w3.org/2000/svg">
<path d="M44.4926 110.198C47.6859 110.198 50.2747 103.83 50.2747 95.9742C50.2747 88.1187 47.6859 81.7505 44.4926 81.7505C41.2992 81.7505 38.7104 88.1187 38.7104 95.9742C38.7104 103.83 41.2992 110.198 44.4926 110.198Z" fill="url(#paint0_linear_1104_6838)"/>
<path d="M65.5327 113.424L23.4717 113.17V112.459C23.4717 104.895 29.5876 103.366 37.1402 103.363H51.8609C59.4104 103.363 65.5295 104.882 65.5295 112.447L65.5327 113.424Z" fill="url(#paint1_linear_1104_6838)"/>
<path d="M19.7906 66.7563L18.0709 66.6321C10.4578 66.0843 5.1589 63.3867 2.31394 58.6093C-3.12169 49.4846 2.68903 36.3151 2.94968 35.7545L3.40742 34.7354H22.1619L19.7906 66.7563ZM5.68975 38.1973C4.52951 41.2644 1.5574 50.5707 5.29559 56.8449C7.32362 60.2432 11.1254 62.3134 16.6119 63.0108L18.4365 38.191L5.68975 38.1973Z" fill="url(#paint2_linear_1104_6838)"/>
<path d="M68.6477 66.737L66.2668 34.7129H85.0214L85.4791 35.7321C85.7302 36.2894 91.5505 49.4558 86.1148 58.5837C83.2731 63.361 77.9741 66.065 70.3642 66.6192L68.6477 66.737ZM69.9891 38.1717L71.836 62.9884C77.3225 62.2877 81.1211 60.2143 83.1491 56.8129C86.8873 50.5354 83.9025 41.2324 82.739 38.1653L69.9891 38.1717Z" fill="url(#paint3_linear_1104_6838)"/>
<path d="M44.2288 93.3402C37.3273 93.3428 30.7074 90.5985 25.8252 85.711C20.943 80.8235 18.1983 74.1931 18.195 67.2783L18.1759 25.9288L70.2181 25.9033L70.2372 67.2528C70.2405 74.1677 67.5024 80.8007 62.6249 85.693C57.7475 90.5853 51.1303 93.336 44.2288 93.3402Z" fill="url(#paint4_linear_1104_6838)"/>
<path d="M46.3013 12.269H41.3583C36.9694 12.269 33.4115 15.8339 33.4115 20.2313V32.9549C33.4115 37.3523 36.9694 40.9172 41.3583 40.9172H46.3013C50.6902 40.9172 54.2481 37.3523 54.2481 32.9549V20.2313C54.2481 15.8339 50.6902 12.269 46.3013 12.269Z" fill="#F9D075"/>
<path d="M33.0269 8.62848C33.0269 8.62848 30.6619 4.33205 31.8221 0.220356C31.8221 0.220356 36.8191 -1.12048 40.2108 2.81286L33.0269 8.62848Z" fill="#F9D075"/>
<path d="M33.7548 7.52328C33.7548 7.52328 31.9969 4.33839 32.8583 1.26815C32.8583 1.26815 36.5743 0.271276 39.0982 3.19819L33.7548 7.52328Z" fill="#FFE9A1"/>
<path d="M55.2399 7.52328C55.2399 7.52328 56.9978 4.33839 56.1363 1.26815C56.1363 1.26815 52.4204 0.271276 49.8965 3.19819L55.2399 7.52328Z" fill="#FFE9A1"/>
<path d="M55.9646 8.62848C55.9646 8.62848 58.3296 4.33205 57.1693 0.220356C57.1693 0.220356 52.1723 -1.12048 48.7806 2.81286L55.9646 8.62848Z" fill="#F9D075"/>
<path d="M55.2399 7.52328C55.2399 7.52328 56.9978 4.33839 56.1363 1.26815C56.1363 1.26815 52.4204 0.271276 49.8965 3.19819L55.2399 7.52328Z" fill="#FFE9A1"/>
<path d="M57.1662 13.8008C57.1662 14.1405 57.1513 14.4781 57.1217 14.8136C56.5845 21.056 51.1361 25.9607 44.4958 25.9607C38.5515 25.9607 33.5609 22.0306 32.1941 16.7245C31.9487 15.7683 31.8248 14.7849 31.8253 13.7976C31.8253 7.08386 37.4994 1.6377 44.4958 1.6377C51.4921 1.6377 57.1662 7.09342 57.1662 13.8008Z" fill="#F9D075"/>
<path d="M33.7008 19.6195L32.7472 17.5621H28.8055L31.0307 19.5303L29.4254 20.0654C29.4254 20.0654 42.7189 34.3688 58.87 20.0654L57.6208 19.6195L59.5852 17.922L58.1389 17.5621L58.6729 16.4888L56.5177 16.5779L54.032 21.2247L45.7418 24.8937L33.7008 19.6195Z" fill="#FFE9A1"/>
<path d="M49.0477 16.2215C49.6885 16.2215 50.2079 15.701 50.2079 15.059C50.2079 14.4169 49.6885 13.8965 49.0477 13.8965C48.4069 13.8965 47.8875 14.4169 47.8875 15.059C47.8875 15.701 48.4069 16.2215 49.0477 16.2215Z" fill="#2B1F0E"/>
<path d="M39.591 16.2215C40.2318 16.2215 40.7513 15.701 40.7513 15.059C40.7513 14.4169 40.2318 13.8965 39.591 13.8965C38.9502 13.8965 38.4308 14.4169 38.4308 15.059C38.4308 15.701 38.9502 16.2215 39.591 16.2215Z" fill="#2B1F0E"/>
<path d="M57.1249 14.8198C56.5877 21.0622 51.1393 25.967 44.499 25.967C38.5547 25.967 33.5641 22.0368 32.1973 16.7308C32.833 17.3104 33.402 18.1512 33.9106 18.699C34.2799 19.1351 34.7078 19.5178 35.1821 19.836C35.9609 20.3138 36.9081 20.4252 37.8204 20.473C38.6437 20.5049 39.5592 20.4539 40.1473 19.8742C40.7353 19.2946 40.8021 18.4506 41.139 17.7308C41.3984 17.2121 41.7778 16.7631 42.2456 16.4213C42.7134 16.0794 43.2561 15.8547 43.8282 15.7657C44.9834 15.6031 46.1567 15.8915 47.1055 16.5715C47.3625 16.7399 47.5848 16.9561 47.7603 17.2085C47.9438 17.5577 48.0939 17.9234 48.2085 18.3009C48.9428 20.0845 51.3141 20.801 53.1038 20.0876C54.8934 19.3742 56.0791 17.5748 56.5209 15.6957C56.6036 15.323 56.7784 14.858 57.1249 14.8198Z" fill="#FFE9A1"/>
<path d="M44.3177 20.7822L43.7837 21.3173C43.9367 21.3919 44.1046 21.4307 44.2748 21.4307C44.445 21.4307 44.6129 21.3919 44.7659 21.3173L44.3177 20.7822Z" fill="#E3E354"/>
<path d="M57.1662 12.4663H31.8253V13.3613H57.1662V12.4663Z" fill="#535461"/>
<path d="M36.9113 13.3613H31.8253V18.1005H36.9113V13.3613Z" fill="#535461"/>
<path opacity="0.2" d="M36.8668 13.3169H42.757V14.3138C42.757 15.1635 42.4201 15.9785 41.8204 16.5793C41.2207 17.1802 40.4073 17.5178 39.5592 17.5178H36.87V13.3169H36.8668Z" fill="#535461"/>
<path d="M31.3898 12.4666H31.9906V18.0975H31.3771C31.1178 18.0975 30.8612 18.0463 30.6217 17.9469C30.3822 17.8475 30.1646 17.7018 29.9813 17.5182C29.798 17.3345 29.6525 17.1165 29.5533 16.8765C29.4541 16.6366 29.4031 16.3794 29.4031 16.1196V14.4412C29.4031 14.1815 29.4541 13.9243 29.5533 13.6843C29.6525 13.4444 29.798 13.2263 29.9813 13.0427C30.1646 12.859 30.3822 12.7133 30.6217 12.6139C30.8612 12.5145 31.1178 12.4634 31.3771 12.4634L31.3898 12.4666Z" fill="#535461"/>
<path d="M41.7748 21.0943C41.7748 21.0943 44.2733 22.2568 44.2733 19.3076" stroke="#2B1F0E" stroke-width="2" stroke-miterlimit="10" stroke-linecap="round"/>
<path d="M46.7717 21.0943C46.7717 21.0943 44.2732 22.2568 44.2732 19.3076" stroke="#2B1F0E" stroke-width="2" stroke-miterlimit="10" stroke-linecap="round"/>
<path d="M44.3177 19.349C44.8602 19.349 45.2999 18.7886 45.2999 18.0974C45.2999 17.4061 44.8602 16.8457 44.3177 16.8457C43.7752 16.8457 43.3354 17.4061 43.3354 18.0974C43.3354 18.7886 43.7752 19.349 44.3177 19.349Z" fill="#E3E354"/>
<path d="M44.4862 108.933C47.576 108.933 50.0807 102.773 50.0807 95.1747C50.0807 87.576 47.576 81.416 44.4862 81.416C41.3964 81.416 38.8916 87.576 38.8916 95.1747C38.8916 102.773 41.3964 108.933 44.4862 108.933Z" fill="#CFD8DC"/>
<path d="M20.5885 66.9123L18.9261 66.7913C11.5641 66.2626 6.43366 63.651 3.66816 59.0297C-1.58946 50.2012 4.03053 37.4616 4.27211 36.9233L4.71396 35.936H22.8486L20.5885 66.9123ZM6.93589 39.2802C5.8138 42.2453 2.93386 51.249 6.55444 57.3194C8.51571 60.6062 12.1935 62.6095 17.502 63.2847L19.2662 39.2802H6.93589Z" fill="#CFD8DC"/>
<path d="M67.8499 66.8896L65.5453 35.9102H83.6799L84.125 36.8975C84.3666 37.4357 89.9993 50.1721 84.7607 59.0038C82.0143 63.6251 76.887 66.2399 69.5251 66.7782L67.8499 66.8896ZM69.1468 39.2575L70.9332 63.2652C76.2385 62.5868 79.9163 60.5803 81.8744 57.2903C85.4918 51.2168 82.6024 42.2194 81.4771 39.2511L69.1468 39.2575Z" fill="#CFD8DC"/>
<g opacity="0.1">
<path d="M4.5423 59.7907C-0.715325 50.9622 4.90466 38.2226 5.14624 37.6844L5.58809 36.6971H18.2236L18.2776 35.9805H4.72665L4.28482 36.9678C4.04324 37.506 -1.57677 50.2488 3.68085 59.0741C4.57222 60.5726 5.74062 61.887 7.12343 62.947C6.11026 62.0302 5.24019 60.9663 4.5423 59.7907Z" fill="white"/>
</g>
<path opacity="0.05" d="M69.3789 35.9102L70.18 35.9484L70.11 39.2161L69.3821 39.2575L69.3789 35.9102Z" fill="black"/>
<path opacity="0.05" d="M19.0469 35.9326H18.1823V39.2799H19.0469V35.9326Z" fill="black"/>
<path opacity="0.1" d="M44.4703 82.4224C41.8129 82.4224 39.591 86.9831 39.022 93.0949C40.7312 93.4538 42.4729 93.6341 44.2192 93.6332C46.1359 93.6381 48.047 93.4244 49.9155 92.9962C49.337 86.9258 47.1214 82.4192 44.4703 82.4224Z" fill="black"/>
<path d="M19.0405 27.4033H69.3916V67.4024C69.3916 70.7149 68.7405 73.995 67.4753 77.0553C66.2101 80.1157 64.3556 82.8964 62.0179 85.2387C59.6801 87.581 56.9048 89.439 53.8504 90.7067C50.7959 91.9743 47.5222 92.6267 44.2161 92.6267C37.5391 92.6267 31.1356 89.9692 26.4143 85.2387C21.6929 80.5082 19.0405 74.0923 19.0405 67.4024V27.4033Z" fill="#CFD8DC"/>
<path opacity="0.1" d="M21.0654 67.6416L21.0495 27.6426H19.0405L19.0564 67.6416C19.0598 74.331 21.715 80.7451 26.438 85.4731C31.1611 90.2011 37.5651 92.8558 44.2415 92.8533C44.5785 92.8533 44.9122 92.8533 45.246 92.831C38.7487 92.5743 32.6027 89.8085 28.0952 85.113C23.5877 80.4175 21.0685 74.1565 21.0654 67.6416Z" fill="white"/>
<path opacity="0.1" d="M49.2734 103.137H39.7023C40.6845 107.109 42.4614 109.762 44.4894 109.759C46.5175 109.755 48.2848 107.118 49.2734 103.137Z" fill="black"/>
<path d="M64.8364 112.364L24.1487 112.38C24.1487 105.714 29.5525 103.491 36.1897 103.491H52.7827C59.4358 103.491 64.8333 105.72 64.8333 112.37L64.8364 112.364Z" fill="#CFD8DC"/>
<path opacity="0.1" d="M38.9457 102.312H37.3563C30.0452 102.312 24.136 105.064 24.1392 112.383H25.7285C25.7158 105.064 31.641 102.315 38.9457 102.312Z" fill="white"/>
<path d="M44.0094 67.0682C49.5781 67.0682 54.0924 62.5452 54.0924 56.9658C54.0924 51.3863 49.5781 46.8633 44.0094 46.8633C38.4408 46.8633 33.9265 51.3863 33.9265 56.9658C33.9265 62.5452 38.4408 67.0682 44.0094 67.0682Z" fill="#171818"/>
<mask id="path-38-outside-1_1104_6838" maskUnits="userSpaceOnUse" x="19.8425" y="33.3989" width="49" height="11" fill="black">
<rect fill="white" x="19.8425" y="33.3989" width="49" height="11"/>
<path d="M23.2505 42.3989C23.0745 42.3989 22.9119 42.3563 22.7625 42.2709C22.6185 42.1856 22.5039 42.0709 22.4185 41.9269C22.3332 41.7776 22.2905 41.6149 22.2905 41.4389V37.5989C22.2905 37.4229 22.3332 37.2629 22.4185 37.1189C22.5039 36.9696 22.6185 36.8523 22.7625 36.7669C22.9119 36.6816 23.0745 36.6389 23.2505 36.6389H28.0345V37.2869H23.2505C23.1652 37.2869 23.0905 37.3189 23.0265 37.3829C22.9679 37.4416 22.9385 37.5136 22.9385 37.5989V41.4389C22.9385 41.5243 22.9679 41.5989 23.0265 41.6629C23.0905 41.7216 23.1652 41.7509 23.2505 41.7509H28.0345V42.3989H23.2505ZM29.7967 42.3989C29.6207 42.3989 29.458 42.3563 29.3087 42.2709C29.1647 42.1803 29.0473 42.0629 28.9567 41.9189C28.8713 41.7696 28.8287 41.6069 28.8287 41.4309V38.7269C28.8287 38.5509 28.8713 38.3909 28.9567 38.2469C29.0473 38.0976 29.1647 37.9803 29.3087 37.8949C29.458 37.8043 29.6207 37.7589 29.7967 37.7589H32.5807C32.762 37.7589 32.9247 37.8043 33.0687 37.8949C33.218 37.9803 33.3353 38.0976 33.4207 38.2469C33.5113 38.3909 33.5567 38.5509 33.5567 38.7269V41.4309C33.5567 41.6069 33.5113 41.7696 33.4207 41.9189C33.3353 42.0629 33.218 42.1803 33.0687 42.2709C32.9247 42.3563 32.762 42.3989 32.5807 42.3989H29.7967ZM29.7967 41.7429H32.5807C32.666 41.7429 32.738 41.7136 32.7967 41.6549C32.8607 41.5909 32.8927 41.5163 32.8927 41.4309V38.7269C32.8927 38.6416 32.8607 38.5696 32.7967 38.5109C32.738 38.4469 32.666 38.4149 32.5807 38.4149H29.7967C29.7113 38.4149 29.6367 38.4469 29.5727 38.5109C29.514 38.5696 29.4847 38.6416 29.4847 38.7269V41.4309C29.4847 41.5163 29.514 41.5909 29.5727 41.6549C29.6367 41.7136 29.7113 41.7429 29.7967 41.7429ZM35.1197 42.3989C34.9384 42.3989 34.7731 42.3563 34.6237 42.2709C34.4797 42.1803 34.3624 42.0629 34.2717 41.9189C34.1864 41.7696 34.1437 41.6069 34.1437 41.4309V38.7269C34.1437 38.5509 34.1864 38.3909 34.2717 38.2469C34.3624 38.0976 34.4797 37.9803 34.6237 37.8949C34.7731 37.8043 34.9384 37.7589 35.1197 37.7589H38.2157V36.2389H38.8717V42.3989H35.1197ZM35.1197 41.7429H37.9037C37.9891 41.7429 38.0611 41.7136 38.1197 41.6549C38.1837 41.5909 38.2157 41.5163 38.2157 41.4309V38.7269C38.2157 38.6416 38.1837 38.5696 38.1197 38.5109C38.0611 38.4469 37.9891 38.4149 37.9037 38.4149H35.1197C35.0344 38.4149 34.9597 38.4469 34.8957 38.5109C34.8371 38.5696 34.8077 38.6416 34.8077 38.7269V41.4309C34.8077 41.5163 34.8371 41.5909 34.8957 41.6549C34.9597 41.7136 35.0344 41.7429 35.1197 41.7429ZM40.5154 42.3989C40.3394 42.3989 40.1767 42.3563 40.0274 42.2709C39.8834 42.1803 39.7661 42.0629 39.6754 41.9189C39.5901 41.7696 39.5474 41.6069 39.5474 41.4309V38.7269C39.5474 38.5509 39.5901 38.3909 39.6754 38.2469C39.7661 38.0976 39.8834 37.9803 40.0274 37.8949C40.1767 37.8043 40.3394 37.7589 40.5154 37.7589H43.2994C43.4807 37.7589 43.6434 37.8043 43.7874 37.8949C43.9367 37.9803 44.0541 38.0976 44.1394 38.2469C44.2301 38.3909 44.2754 38.5509 44.2754 38.7269V40.4069H40.2034V41.4309C40.2034 41.5163 40.2327 41.5909 40.2914 41.6549C40.3554 41.7136 40.4301 41.7429 40.5154 41.7429H44.2754V42.3989H40.5154ZM40.2034 39.7509H43.6114V38.7269C43.6114 38.6416 43.5794 38.5696 43.5154 38.5109C43.4567 38.4469 43.3847 38.4149 43.2994 38.4149H40.5154C40.4301 38.4149 40.3554 38.4469 40.2914 38.5109C40.2327 38.5696 40.2034 38.6416 40.2034 38.7269V39.7509Z"/>
<path d="M45.1345 42.3989V36.6309H45.7825V41.7509H50.8945V42.3989H45.1345ZM52.2968 42.3989C52.1208 42.3989 51.9582 42.3563 51.8088 42.2709C51.6648 42.1803 51.5475 42.0629 51.4568 41.9189C51.3715 41.7696 51.3288 41.6069 51.3288 41.4309V39.7509H55.3928V38.7269C55.3928 38.6416 55.3608 38.5696 55.2968 38.5109C55.2382 38.4469 55.1662 38.4149 55.0808 38.4149H51.3288V37.7589H55.0808C55.2622 37.7589 55.4248 37.8043 55.5688 37.8949C55.7182 37.9803 55.8355 38.0976 55.9208 38.2469C56.0115 38.3909 56.0568 38.5509 56.0568 38.7269V42.3989H52.2968ZM52.2968 41.7429H55.3928V40.4069H51.9848V41.4309C51.9848 41.5163 52.0142 41.5909 52.0728 41.6549C52.1368 41.7136 52.2115 41.7429 52.2968 41.7429ZM56.6964 42.3989V36.2389H57.3524V37.7589H60.4564C60.6324 37.7589 60.7924 37.8043 60.9364 37.8949C61.0857 37.9803 61.2031 38.0976 61.2884 38.2469C61.3791 38.3909 61.4244 38.5509 61.4244 38.7269V41.4309C61.4244 41.6069 61.3791 41.7696 61.2884 41.9189C61.2031 42.0629 61.0857 42.1803 60.9364 42.2709C60.7924 42.3563 60.6324 42.3989 60.4564 42.3989H56.6964ZM57.6724 41.7429H60.4564C60.5417 41.7429 60.6137 41.7136 60.6724 41.6549C60.7364 41.5909 60.7684 41.5163 60.7684 41.4309V38.7269C60.7684 38.6416 60.7364 38.5696 60.6724 38.5109C60.6137 38.4469 60.5417 38.4149 60.4564 38.4149H57.6724C57.5871 38.4149 57.5124 38.4469 57.4484 38.5109C57.3844 38.5696 57.3524 38.6416 57.3524 38.7269V41.4309C57.3524 41.5163 57.3844 41.5909 57.4484 41.6549C57.5124 41.7136 57.5871 41.7429 57.6724 41.7429ZM62.9523 42.3989C62.7763 42.3989 62.6137 42.3563 62.4643 42.2709C62.3203 42.1803 62.203 42.0629 62.1123 41.9189C62.027 41.7696 61.9843 41.6069 61.9843 41.4309V41.3669H62.6403V41.4309C62.6403 41.5163 62.6697 41.5909 62.7283 41.6549C62.7923 41.7136 62.867 41.7429 62.9523 41.7429H65.7363C65.8217 41.7429 65.8937 41.7136 65.9523 41.6549C66.0163 41.5909 66.0483 41.5163 66.0483 41.4309V40.7189C66.0483 40.6336 66.0163 40.5616 65.9523 40.5029C65.8937 40.4389 65.8217 40.4069 65.7363 40.4069H62.9523C62.7763 40.4069 62.6137 40.3643 62.4643 40.2789C62.3203 40.1883 62.203 40.0709 62.1123 39.9269C62.027 39.7776 61.9843 39.6149 61.9843 39.4389V38.7269C61.9843 38.5509 62.027 38.3909 62.1123 38.2469C62.203 38.0976 62.3203 37.9803 62.4643 37.8949C62.6137 37.8043 62.7763 37.7589 62.9523 37.7589H65.7363C65.9177 37.7589 66.0803 37.8043 66.2243 37.8949C66.3737 37.9803 66.491 38.0976 66.5763 38.2469C66.667 38.3909 66.7123 38.5509 66.7123 38.7269V38.7909H66.0483V38.7269C66.0483 38.6416 66.0163 38.5696 65.9523 38.5109C65.8937 38.4469 65.8217 38.4149 65.7363 38.4149H62.9523C62.867 38.4149 62.7923 38.4469 62.7283 38.5109C62.6697 38.5696 62.6403 38.6416 62.6403 38.7269V39.4389C62.6403 39.5243 62.6697 39.5989 62.7283 39.6629C62.7923 39.7216 62.867 39.7509 62.9523 39.7509H65.7363C65.9177 39.7509 66.0803 39.7963 66.2243 39.8869C66.3737 39.9723 66.491 40.0896 66.5763 40.2389C66.667 40.3829 66.7123 40.5429 66.7123 40.7189V41.4309C66.7123 41.6069 66.667 41.7696 66.5763 41.9189C66.491 42.0629 66.3737 42.1803 66.2243 42.2709C66.0803 42.3563 65.9177 42.3989 65.7363 42.3989H62.9523Z"/>
</mask>
<path d="M23.2505 42.3989C23.0745 42.3989 22.9119 42.3563 22.7625 42.2709C22.6185 42.1856 22.5039 42.0709 22.4185 41.9269C22.3332 41.7776 22.2905 41.6149 22.2905 41.4389V37.5989C22.2905 37.4229 22.3332 37.2629 22.4185 37.1189C22.5039 36.9696 22.6185 36.8523 22.7625 36.7669C22.9119 36.6816 23.0745 36.6389 23.2505 36.6389H28.0345V37.2869H23.2505C23.1652 37.2869 23.0905 37.3189 23.0265 37.3829C22.9679 37.4416 22.9385 37.5136 22.9385 37.5989V41.4389C22.9385 41.5243 22.9679 41.5989 23.0265 41.6629C23.0905 41.7216 23.1652 41.7509 23.2505 41.7509H28.0345V42.3989H23.2505ZM29.7967 42.3989C29.6207 42.3989 29.458 42.3563 29.3087 42.2709C29.1647 42.1803 29.0473 42.0629 28.9567 41.9189C28.8713 41.7696 28.8287 41.6069 28.8287 41.4309V38.7269C28.8287 38.5509 28.8713 38.3909 28.9567 38.2469C29.0473 38.0976 29.1647 37.9803 29.3087 37.8949C29.458 37.8043 29.6207 37.7589 29.7967 37.7589H32.5807C32.762 37.7589 32.9247 37.8043 33.0687 37.8949C33.218 37.9803 33.3353 38.0976 33.4207 38.2469C33.5113 38.3909 33.5567 38.5509 33.5567 38.7269V41.4309C33.5567 41.6069 33.5113 41.7696 33.4207 41.9189C33.3353 42.0629 33.218 42.1803 33.0687 42.2709C32.9247 42.3563 32.762 42.3989 32.5807 42.3989H29.7967ZM29.7967 41.7429H32.5807C32.666 41.7429 32.738 41.7136 32.7967 41.6549C32.8607 41.5909 32.8927 41.5163 32.8927 41.4309V38.7269C32.8927 38.6416 32.8607 38.5696 32.7967 38.5109C32.738 38.4469 32.666 38.4149 32.5807 38.4149H29.7967C29.7113 38.4149 29.6367 38.4469 29.5727 38.5109C29.514 38.5696 29.4847 38.6416 29.4847 38.7269V41.4309C29.4847 41.5163 29.514 41.5909 29.5727 41.6549C29.6367 41.7136 29.7113 41.7429 29.7967 41.7429ZM35.1197 42.3989C34.9384 42.3989 34.7731 42.3563 34.6237 42.2709C34.4797 42.1803 34.3624 42.0629 34.2717 41.9189C34.1864 41.7696 34.1437 41.6069 34.1437 41.4309V38.7269C34.1437 38.5509 34.1864 38.3909 34.2717 38.2469C34.3624 38.0976 34.4797 37.9803 34.6237 37.8949C34.7731 37.8043 34.9384 37.7589 35.1197 37.7589H38.2157V36.2389H38.8717V42.3989H35.1197ZM35.1197 41.7429H37.9037C37.9891 41.7429 38.0611 41.7136 38.1197 41.6549C38.1837 41.5909 38.2157 41.5163 38.2157 41.4309V38.7269C38.2157 38.6416 38.1837 38.5696 38.1197 38.5109C38.0611 38.4469 37.9891 38.4149 37.9037 38.4149H35.1197C35.0344 38.4149 34.9597 38.4469 34.8957 38.5109C34.8371 38.5696 34.8077 38.6416 34.8077 38.7269V41.4309C34.8077 41.5163 34.8371 41.5909 34.8957 41.6549C34.9597 41.7136 35.0344 41.7429 35.1197 41.7429ZM40.5154 42.3989C40.3394 42.3989 40.1767 42.3563 40.0274 42.2709C39.8834 42.1803 39.7661 42.0629 39.6754 41.9189C39.5901 41.7696 39.5474 41.6069 39.5474 41.4309V38.7269C39.5474 38.5509 39.5901 38.3909 39.6754 38.2469C39.7661 38.0976 39.8834 37.9803 40.0274 37.8949C40.1767 37.8043 40.3394 37.7589 40.5154 37.7589H43.2994C43.4807 37.7589 43.6434 37.8043 43.7874 37.8949C43.9367 37.9803 44.0541 38.0976 44.1394 38.2469C44.2301 38.3909 44.2754 38.5509 44.2754 38.7269V40.4069H40.2034V41.4309C40.2034 41.5163 40.2327 41.5909 40.2914 41.6549C40.3554 41.7136 40.4301 41.7429 40.5154 41.7429H44.2754V42.3989H40.5154ZM40.2034 39.7509H43.6114V38.7269C43.6114 38.6416 43.5794 38.5696 43.5154 38.5109C43.4567 38.4469 43.3847 38.4149 43.2994 38.4149H40.5154C40.4301 38.4149 40.3554 38.4469 40.2914 38.5109C40.2327 38.5696 40.2034 38.6416 40.2034 38.7269V39.7509Z" fill="#50FA7B"/>
<path d="M45.1345 42.3989V36.6309H45.7825V41.7509H50.8945V42.3989H45.1345ZM52.2968 42.3989C52.1208 42.3989 51.9582 42.3563 51.8088 42.2709C51.6648 42.1803 51.5475 42.0629 51.4568 41.9189C51.3715 41.7696 51.3288 41.6069 51.3288 41.4309V39.7509H55.3928V38.7269C55.3928 38.6416 55.3608 38.5696 55.2968 38.5109C55.2382 38.4469 55.1662 38.4149 55.0808 38.4149H51.3288V37.7589H55.0808C55.2622 37.7589 55.4248 37.8043 55.5688 37.8949C55.7182 37.9803 55.8355 38.0976 55.9208 38.2469C56.0115 38.3909 56.0568 38.5509 56.0568 38.7269V42.3989H52.2968ZM52.2968 41.7429H55.3928V40.4069H51.9848V41.4309C51.9848 41.5163 52.0142 41.5909 52.0728 41.6549C52.1368 41.7136 52.2115 41.7429 52.2968 41.7429ZM56.6964 42.3989V36.2389H57.3524V37.7589H60.4564C60.6324 37.7589 60.7924 37.8043 60.9364 37.8949C61.0857 37.9803 61.2031 38.0976 61.2884 38.2469C61.3791 38.3909 61.4244 38.5509 61.4244 38.7269V41.4309C61.4244 41.6069 61.3791 41.7696 61.2884 41.9189C61.2031 42.0629 61.0857 42.1803 60.9364 42.2709C60.7924 42.3563 60.6324 42.3989 60.4564 42.3989H56.6964ZM57.6724 41.7429H60.4564C60.5417 41.7429 60.6137 41.7136 60.6724 41.6549C60.7364 41.5909 60.7684 41.5163 60.7684 41.4309V38.7269C60.7684 38.6416 60.7364 38.5696 60.6724 38.5109C60.6137 38.4469 60.5417 38.4149 60.4564 38.4149H57.6724C57.5871 38.4149 57.5124 38.4469 57.4484 38.5109C57.3844 38.5696 57.3524 38.6416 57.3524 38.7269V41.4309C57.3524 41.5163 57.3844 41.5909 57.4484 41.6549C57.5124 41.7136 57.5871 41.7429 57.6724 41.7429ZM62.9523 42.3989C62.7763 42.3989 62.6137 42.3563 62.4643 42.2709C62.3203 42.1803 62.203 42.0629 62.1123 41.9189C62.027 41.7696 61.9843 41.6069 61.9843 41.4309V41.3669H62.6403V41.4309C62.6403 41.5163 62.6697 41.5909 62.7283 41.6549C62.7923 41.7136 62.867 41.7429 62.9523 41.7429H65.7363C65.8217 41.7429 65.8937 41.7136 65.9523 41.6549C66.0163 41.5909 66.0483 41.5163 66.0483 41.4309V40.7189C66.0483 40.6336 66.0163 40.5616 65.9523 40.5029C65.8937 40.4389 65.8217 40.4069 65.7363 40.4069H62.9523C62.7763 40.4069 62.6137 40.3643 62.4643 40.2789C62.3203 40.1883 62.203 40.0709 62.1123 39.9269C62.027 39.7776 61.9843 39.6149 61.9843 39.4389V38.7269C61.9843 38.5509 62.027 38.3909 62.1123 38.2469C62.203 38.0976 62.3203 37.9803 62.4643 37.8949C62.6137 37.8043 62.7763 37.7589 62.9523 37.7589H65.7363C65.9177 37.7589 66.0803 37.8043 66.2243 37.8949C66.3737 37.9803 66.491 38.0976 66.5763 38.2469C66.667 38.3909 66.7123 38.5509 66.7123 38.7269V38.7909H66.0483V38.7269C66.0483 38.6416 66.0163 38.5696 65.9523 38.5109C65.8937 38.4469 65.8217 38.4149 65.7363 38.4149H62.9523C62.867 38.4149 62.7923 38.4469 62.7283 38.5109C62.6697 38.5696 62.6403 38.6416 62.6403 38.7269V39.4389C62.6403 39.5243 62.6697 39.5989 62.7283 39.6629C62.7923 39.7216 62.867 39.7509 62.9523 39.7509H65.7363C65.9177 39.7509 66.0803 39.7963 66.2243 39.8869C66.3737 39.9723 66.491 40.0896 66.5763 40.2389C66.667 40.3829 66.7123 40.5429 66.7123 40.7189V41.4309C66.7123 41.6069 66.667 41.7696 66.5763 41.9189C66.491 42.0629 66.3737 42.1803 66.2243 42.2709C66.0803 42.3563 65.9177 42.3989 65.7363 42.3989H62.9523Z" fill="#F8F8F2"/>
<path d="M22.7625 42.2709L21.7429 43.9915L21.7565 43.9996L21.7703 44.0074L22.7625 42.2709ZM22.4185 41.9269L20.682 42.9192L20.6899 42.9329L20.6979 42.9465L22.4185 41.9269ZM22.4185 37.1189L24.1391 38.1385L24.1472 38.1249L24.155 38.1112L22.4185 37.1189ZM22.7625 36.7669L21.7703 35.0304L21.7565 35.0383L21.7429 35.0463L22.7625 36.7669ZM28.0345 36.6389H30.0345V34.6389H28.0345V36.6389ZM28.0345 37.2869V39.2869H30.0345V37.2869H28.0345ZM23.0265 37.3829L24.4407 38.7971L24.4407 38.7971L23.0265 37.3829ZM23.0265 41.6629L21.5522 43.0144L21.611 43.0785L21.6751 43.1372L23.0265 41.6629ZM28.0345 41.7509H30.0345V39.7509H28.0345V41.7509ZM28.0345 42.3989V44.3989H30.0345V42.3989H28.0345ZM23.2505 40.3989C23.4141 40.3989 23.5947 40.4429 23.7548 40.5344L21.7703 44.0074C22.2291 44.2696 22.735 44.3989 23.2505 44.3989V40.3989ZM23.7821 40.5503C23.9269 40.6361 24.0533 40.7625 24.1391 40.9073L20.6979 42.9465C20.9544 43.3793 21.3101 43.735 21.7429 43.9915L23.7821 40.5503ZM24.155 40.9346C24.2465 41.0948 24.2905 41.2754 24.2905 41.4389H20.2905C20.2905 41.9545 20.4199 42.4604 20.682 42.9192L24.155 40.9346ZM24.2905 41.4389V37.5989H20.2905V41.4389H24.2905ZM24.2905 37.5989C24.2905 37.7625 24.2463 37.9577 24.1391 38.1385L20.6979 36.0993C20.4201 36.5681 20.2905 37.0834 20.2905 37.5989H24.2905ZM24.155 38.1112C24.0734 38.254 23.9446 38.3912 23.7821 38.4875L21.7429 35.0463C21.2925 35.3133 20.9343 35.6852 20.682 36.1266L24.155 38.1112ZM23.7548 38.5034C23.5947 38.5949 23.4141 38.6389 23.2505 38.6389V34.6389C22.735 34.6389 22.2291 34.7683 21.7703 35.0304L23.7548 38.5034ZM23.2505 38.6389H28.0345V34.6389H23.2505V38.6389ZM26.0345 36.6389V37.2869H30.0345V36.6389H26.0345ZM28.0345 35.2869H23.2505V39.2869H28.0345V35.2869ZM23.2505 35.2869C22.6001 35.2869 22.0261 35.5549 21.6123 35.9687L24.4407 38.7971C24.3133 38.9245 24.1402 39.0542 23.9184 39.1492C23.6943 39.2453 23.4648 39.2869 23.2505 39.2869V35.2869ZM21.6123 35.9687C21.1668 36.4143 20.9385 37.0001 20.9385 37.5989H24.9385C24.9385 37.7896 24.9048 38.0095 24.8127 38.2355C24.7202 38.4626 24.5871 38.6508 24.4407 38.7971L21.6123 35.9687ZM20.9385 37.5989V41.4389H24.9385V37.5989H20.9385ZM20.9385 41.4389C20.9385 42.0342 21.162 42.5886 21.5522 43.0144L24.5008 40.3115C24.6239 40.4457 24.7397 40.618 24.822 40.8276C24.9046 41.0378 24.9385 41.2474 24.9385 41.4389H20.9385ZM21.6751 43.1372C22.1008 43.5275 22.6552 43.7509 23.2505 43.7509V39.7509C23.442 39.7509 23.6517 39.7849 23.8618 39.8674C24.0714 39.9498 24.2438 40.0656 24.378 40.1886L21.6751 43.1372ZM23.2505 43.7509H28.0345V39.7509H23.2505V43.7509ZM26.0345 41.7509V42.3989H30.0345V41.7509H26.0345ZM28.0345 40.3989H23.2505V44.3989H28.0345V40.3989ZM29.3087 42.2709L28.243 43.9634L28.2792 43.9862L28.3164 44.0074L29.3087 42.2709ZM28.9567 41.9189L27.2202 42.9112L27.2414 42.9483L27.2642 42.9846L28.9567 41.9189ZM28.9567 38.2469L27.2471 37.209L27.2415 37.2181L27.2361 37.2273L28.9567 38.2469ZM29.3087 37.8949L30.3283 39.6155L30.3375 39.6101L30.3466 39.6045L29.3087 37.8949ZM33.0687 37.8949L32.003 39.5874L32.0392 39.6102L32.0764 39.6314L33.0687 37.8949ZM33.4207 38.2469L31.6842 39.2392L31.7054 39.2763L31.7282 39.3126L33.4207 38.2469ZM33.4207 41.9189L31.7111 40.881L31.7055 40.8901L31.7001 40.8993L33.4207 41.9189ZM33.0687 42.2709L34.0883 43.9915L34.0975 43.9861L34.1066 43.9805L33.0687 42.2709ZM32.7967 41.6549L34.2109 43.0691L34.2109 43.0691L32.7967 41.6549ZM32.7967 38.5109L31.3223 39.8624L31.3811 39.9265L31.4452 39.9852L32.7967 38.5109ZM29.5727 38.5109L30.9869 39.9251L29.5727 38.5109ZM29.5727 41.6549L28.0983 43.0064L28.1571 43.0705L28.2212 43.1292L29.5727 41.6549ZM29.7967 40.3989C29.9602 40.3989 30.1408 40.4429 30.3009 40.5344L28.3164 44.0074C28.7752 44.2696 29.2811 44.3989 29.7967 44.3989V40.3989ZM30.3743 40.5785C30.4835 40.6472 30.5804 40.7441 30.6491 40.8533L27.2642 42.9846C27.5143 43.3818 27.8458 43.7133 28.243 43.9634L30.3743 40.5785ZM30.6931 40.9266C30.7846 41.0868 30.8287 41.2674 30.8287 41.4309H26.8287C26.8287 41.9465 26.958 42.4524 27.2202 42.9112L30.6931 40.9266ZM30.8287 41.4309V38.7269H26.8287V41.4309H30.8287ZM30.8287 38.7269C30.8287 38.8905 30.7844 39.0857 30.6772 39.2665L27.2361 37.2273C26.9583 37.6961 26.8287 38.2114 26.8287 38.7269H30.8287ZM30.6662 39.2849C30.5942 39.4036 30.4793 39.526 30.3283 39.6155L28.2891 36.1743C27.85 36.4345 27.5005 36.7916 27.2471 37.209L30.6662 39.2849ZM30.3466 39.6045C30.1806 39.7053 29.9838 39.7589 29.7967 39.7589V35.7589C29.2575 35.7589 28.7354 35.9032 28.2707 36.1854L30.3466 39.6045ZM29.7967 39.7589H32.5807V35.7589H29.7967V39.7589ZM32.5807 39.7589C32.4107 39.7589 32.1993 39.711 32.003 39.5874L34.1343 36.2025C33.65 35.8975 33.1132 35.7589 32.5807 35.7589V39.7589ZM32.0764 39.6314C31.9156 39.5396 31.776 39.3999 31.6842 39.2392L35.1571 37.2546C34.8946 36.7953 34.5203 36.421 34.0609 36.1584L32.0764 39.6314ZM31.7282 39.3126C31.6108 39.1261 31.5567 38.9144 31.5567 38.7269H35.5567C35.5567 38.1874 35.4118 37.6557 35.1131 37.1813L31.7282 39.3126ZM31.5567 38.7269V41.4309H35.5567V38.7269H31.5567ZM31.5567 41.4309C31.5567 41.2438 31.6103 41.047 31.7111 40.881L35.1302 42.9569C35.4123 42.4922 35.5567 41.9701 35.5567 41.4309H31.5567ZM31.7001 40.8993C31.7896 40.7483 31.912 40.6334 32.0307 40.5614L34.1066 43.9805C34.524 43.7271 34.8811 43.3776 35.1412 42.9385L31.7001 40.8993ZM32.0491 40.5503C32.2393 40.4376 32.4341 40.3989 32.5807 40.3989V44.3989C33.0899 44.3989 33.6101 44.2749 34.0883 43.9915L32.0491 40.5503ZM32.5807 40.3989H29.7967V44.3989H32.5807V40.3989ZM29.7967 43.7429H32.5807V39.7429H29.7967V43.7429ZM32.5807 43.7429C33.1795 43.7429 33.7653 43.5147 34.2109 43.0691L31.3824 40.2407C31.5288 40.0944 31.7169 39.9613 31.9441 39.8687C32.1701 39.7767 32.3899 39.7429 32.5807 39.7429V43.7429ZM34.2109 43.0691C34.6247 42.6553 34.8927 42.0814 34.8927 41.4309H30.8927C30.8927 41.2167 30.9343 40.9872 31.0304 40.7631C31.1254 40.5413 31.255 40.3681 31.3824 40.2407L34.2109 43.0691ZM34.8927 41.4309V38.7269H30.8927V41.4309H34.8927ZM34.8927 38.7269C34.8927 38.07 34.6172 37.4666 34.1481 37.0366L31.4452 39.9852C31.2955 39.848 31.1475 39.6608 31.041 39.4212C30.9342 39.1808 30.8927 38.9406 30.8927 38.7269H34.8927ZM34.271 37.1595C33.841 36.6904 33.2376 36.4149 32.5807 36.4149V40.4149C32.367 40.4149 32.1267 40.3734 31.8864 40.2665C31.6468 40.1601 31.4596 40.0121 31.3223 39.8624L34.271 37.1595ZM32.5807 36.4149H29.7967V40.4149H32.5807V36.4149ZM29.7967 36.4149C29.1462 36.4149 28.5723 36.6829 28.1584 37.0967L30.9869 39.9251C30.8595 40.0525 30.6863 40.1822 30.4645 40.2772C30.2404 40.3733 30.0109 40.4149 29.7967 40.4149V36.4149ZM28.1584 37.0967C27.7129 37.5423 27.4847 38.1281 27.4847 38.7269H31.4847C31.4847 38.9176 31.4509 39.1375 31.3588 39.3635C31.2663 39.5906 31.1332 39.7788 30.9869 39.9251L28.1584 37.0967ZM27.4847 38.7269V41.4309H31.4847V38.7269H27.4847ZM27.4847 41.4309C27.4847 42.0262 27.7081 42.5806 28.0983 43.0064L31.047 40.3035C31.17 40.4377 31.2858 40.61 31.3682 40.8196C31.4507 41.0298 31.4847 41.2394 31.4847 41.4309H27.4847ZM28.2212 43.1292C28.6469 43.5195 29.2014 43.7429 29.7967 43.7429V39.7429C29.9882 39.7429 30.1978 39.7769 30.408 39.8594C30.6175 39.9418 30.7899 40.0576 30.9241 40.1806L28.2212 43.1292ZM34.6237 42.2709L33.5581 43.9634L33.5943 43.9862L33.6314 44.0074L34.6237 42.2709ZM34.2717 41.9189L32.5352 42.9112L32.5565 42.9483L32.5793 42.9846L34.2717 41.9189ZM34.2717 38.2469L32.5621 37.209L32.5566 37.2181L32.5511 37.2273L34.2717 38.2469ZM34.6237 37.8949L35.6433 39.6155L35.6525 39.6101L35.6617 39.6045L34.6237 37.8949ZM38.2157 37.7589V39.7589H40.2157V37.7589H38.2157ZM38.2157 36.2389V34.2389H36.2157V36.2389H38.2157ZM38.8717 36.2389H40.8717V34.2389H38.8717V36.2389ZM38.8717 42.3989V44.3989H40.8717V42.3989H38.8717ZM38.1197 41.6549L39.5339 43.0691L39.5339 43.0691L38.1197 41.6549ZM38.1197 38.5109L36.6454 39.8624L36.7042 39.9265L36.7683 39.9852L38.1197 38.5109ZM34.8957 38.5109L33.4815 37.0967L33.4815 37.0967L34.8957 38.5109ZM34.8957 41.6549L33.4214 43.0064L33.4802 43.0705L33.5443 43.1292L34.8957 41.6549ZM35.1197 40.3989C35.2668 40.3989 35.4465 40.4376 35.616 40.5344L33.6314 44.0074C34.0996 44.2749 34.61 44.3989 35.1197 44.3989V40.3989ZM35.6893 40.5785C35.7985 40.6472 35.8954 40.7441 35.9642 40.8533L32.5793 42.9846C32.8293 43.3818 33.1609 43.7133 33.5581 43.9634L35.6893 40.5785ZM36.0082 40.9266C36.0997 41.0868 36.1437 41.2674 36.1437 41.4309H32.1437C32.1437 41.9465 32.2731 42.4524 32.5352 42.9112L36.0082 40.9266ZM36.1437 41.4309V38.7269H32.1437V41.4309H36.1437ZM36.1437 38.7269C36.1437 38.8905 36.0994 39.0857 35.9923 39.2665L32.5511 37.2273C32.2733 37.6961 32.1437 38.2114 32.1437 38.7269H36.1437ZM35.9813 39.2849C35.9092 39.4036 35.7944 39.526 35.6433 39.6155L33.6041 36.1743C33.165 36.4345 32.8155 36.7916 32.5621 37.209L35.9813 39.2849ZM35.6617 39.6045C35.4859 39.7112 35.2899 39.7589 35.1197 39.7589V35.7589C34.5869 35.7589 34.0602 35.8973 33.5858 36.1854L35.6617 39.6045ZM35.1197 39.7589H38.2157V35.7589H35.1197V39.7589ZM40.2157 37.7589V36.2389H36.2157V37.7589H40.2157ZM38.2157 38.2389H38.8717V34.2389H38.2157V38.2389ZM36.8717 36.2389V42.3989H40.8717V36.2389H36.8717ZM38.8717 40.3989H35.1197V44.3989H38.8717V40.3989ZM35.1197 43.7429H37.9037V39.7429H35.1197V43.7429ZM37.9037 43.7429C38.5026 43.7429 39.0884 43.5147 39.5339 43.0691L36.7055 40.2407C36.8518 40.0944 37.04 39.9613 37.2671 39.8687C37.4931 39.7767 37.713 39.7429 37.9037 39.7429V43.7429ZM39.5339 43.0691C39.9478 42.6553 40.2157 42.0814 40.2157 41.4309H36.2157C36.2157 41.2167 36.2574 40.9872 36.3534 40.7631C36.4485 40.5413 36.5781 40.3681 36.7055 40.2407L39.5339 43.0691ZM40.2157 41.4309V38.7269H36.2157V41.4309H40.2157ZM40.2157 38.7269C40.2157 38.07 39.9402 37.4666 39.4712 37.0366L36.7683 39.9852C36.6185 39.848 36.4706 39.6608 36.3641 39.4212C36.2573 39.1808 36.2157 38.9406 36.2157 38.7269H40.2157ZM39.594 37.1595C39.164 36.6904 38.5607 36.4149 37.9037 36.4149V40.4149C37.6901 40.4149 37.4498 40.3734 37.2094 40.2665C36.9699 40.1601 36.7827 40.0121 36.6454 39.8624L39.594 37.1595ZM37.9037 36.4149H35.1197V40.4149H37.9037V36.4149ZM35.1197 36.4149C34.4693 36.4149 33.8953 36.6829 33.4815 37.0967L36.3099 39.9251C36.1825 40.0525 36.0093 40.1822 35.7876 40.2772C35.5635 40.3733 35.334 40.4149 35.1197 40.4149V36.4149ZM33.4815 37.0967C33.036 37.5423 32.8077 38.1281 32.8077 38.7269H36.8077C36.8077 38.9176 36.774 39.1375 36.6819 39.3635C36.5894 39.5906 36.4563 39.7788 36.3099 39.9251L33.4815 37.0967ZM32.8077 38.7269V41.4309H36.8077V38.7269H32.8077ZM32.8077 41.4309C32.8077 42.0262 33.0311 42.5806 33.4214 43.0064L36.37 40.3035C36.493 40.4377 36.6089 40.61 36.6912 40.8196C36.7738 41.0298 36.8077 41.2394 36.8077 41.4309H32.8077ZM33.5443 43.1292C33.97 43.5195 34.5244 43.7429 35.1197 43.7429V39.7429C35.3112 39.7429 35.5209 39.7769 35.731 39.8594C35.9406 39.9418 36.113 40.0576 36.2472 40.1806L33.5443 43.1292ZM40.0274 42.2709L38.9618 43.9634L38.998 43.9862L39.0351 44.0074L40.0274 42.2709ZM39.6754 41.9189L37.9389 42.9112L37.9601 42.9483L37.9829 42.9846L39.6754 41.9189ZM39.6754 38.2469L37.9658 37.209L37.9603 37.2181L37.9548 37.2273L39.6754 38.2469ZM40.0274 37.8949L41.047 39.6155L41.0562 39.6101L41.0654 39.6045L40.0274 37.8949ZM43.7874 37.8949L42.7218 39.5874L42.758 39.6102L42.7951 39.6314L43.7874 37.8949ZM44.1394 38.2469L42.4029 39.2392L42.4241 39.2763L42.4469 39.3126L44.1394 38.2469ZM44.2754 40.4069V42.4069H46.2754V40.4069H44.2754ZM40.2034 40.4069V38.4069H38.2034V40.4069H40.2034ZM40.2914 41.6549L38.8171 43.0064L38.8759 43.0705L38.94 43.1292L40.2914 41.6549ZM44.2754 41.7429H46.2754V39.7429H44.2754V41.7429ZM44.2754 42.3989V44.3989H46.2754V42.3989H44.2754ZM40.2034 39.7509H38.2034V41.7509H40.2034V39.7509ZM43.6114 39.7509V41.7509H45.6114V39.7509H43.6114ZM43.5154 38.5109L42.0411 39.8624L42.0999 39.9265L42.164 39.9852L43.5154 38.5109ZM40.2914 38.5109L41.7056 39.9251L40.2914 38.5109ZM40.5154 40.3989C40.679 40.3989 40.8595 40.4429 41.0197 40.5344L39.0351 44.0074C39.4939 44.2696 39.9998 44.3989 40.5154 44.3989V40.3989ZM41.093 40.5785C41.2022 40.6472 41.2991 40.7441 41.3679 40.8533L37.9829 42.9846C38.233 43.3818 38.5646 43.7133 38.9618 43.9634L41.093 40.5785ZM41.4119 40.9266C41.5034 41.0868 41.5474 41.2674 41.5474 41.4309H37.5474C37.5474 41.9465 37.6767 42.4524 37.9389 42.9112L41.4119 40.9266ZM41.5474 41.4309V38.7269H37.5474V41.4309H41.5474ZM41.5474 38.7269C41.5474 38.8905 41.5031 39.0857 41.396 39.2665L37.9548 37.2273C37.677 37.6961 37.5474 38.2114 37.5474 38.7269H41.5474ZM41.385 39.2849C41.3129 39.4036 41.1981 39.526 41.047 39.6155L39.0078 36.1743C38.5687 36.4345 38.2192 36.7916 37.9658 37.209L41.385 39.2849ZM41.0654 39.6045C40.8994 39.7053 40.7026 39.7589 40.5154 39.7589V35.7589C39.9762 35.7589 39.4541 35.9032 38.9894 36.1854L41.0654 39.6045ZM40.5154 39.7589H43.2994V35.7589H40.5154V39.7589ZM43.2994 39.7589C43.1295 39.7589 42.9181 39.711 42.7218 39.5874L44.853 36.2025C44.3687 35.8975 43.832 35.7589 43.2994 35.7589V39.7589ZM42.7951 39.6314C42.6344 39.5396 42.4948 39.3999 42.4029 39.2392L45.8759 37.2546C45.6134 36.7953 45.2391 36.421 44.7797 36.1584L42.7951 39.6314ZM42.4469 39.3126C42.3295 39.1261 42.2754 38.9144 42.2754 38.7269H46.2754C46.2754 38.1874 46.1306 37.6557 45.8319 37.1813L42.4469 39.3126ZM42.2754 38.7269V40.4069H46.2754V38.7269H42.2754ZM44.2754 38.4069H40.2034V42.4069H44.2754V38.4069ZM38.2034 40.4069V41.4309H42.2034V40.4069H38.2034ZM38.2034 41.4309C38.2034 42.0262 38.4268 42.5806 38.8171 43.0064L41.7657 40.3035C41.8887 40.4377 42.0046 40.61 42.0869 40.8196C42.1695 41.0298 42.2034 41.2394 42.2034 41.4309H38.2034ZM38.94 43.1292C39.3657 43.5195 39.9201 43.7429 40.5154 43.7429V39.7429C40.7069 39.7429 40.9165 39.7769 41.1267 39.8594C41.3363 39.9418 41.5087 40.0576 41.6429 40.1806L38.94 43.1292ZM40.5154 43.7429H44.2754V39.7429H40.5154V43.7429ZM42.2754 41.7429V42.3989H46.2754V41.7429H42.2754ZM44.2754 40.3989H40.5154V44.3989H44.2754V40.3989ZM40.2034 41.7509H43.6114V37.7509H40.2034V41.7509ZM45.6114 39.7509V38.7269H41.6114V39.7509H45.6114ZM45.6114 38.7269C45.6114 38.07 45.3359 37.4666 44.8669 37.0366L42.164 39.9852C42.0142 39.848 41.8663 39.6608 41.7598 39.4212C41.653 39.1808 41.6114 38.9406 41.6114 38.7269H45.6114ZM44.9897 37.1595C44.5597 36.6904 43.9564 36.4149 43.2994 36.4149V40.4149C43.0858 40.4149 42.8455 40.3734 42.6051 40.2665C42.3656 40.1601 42.1784 40.0121 42.0411 39.8624L44.9897 37.1595ZM43.2994 36.4149H40.5154V40.4149H43.2994V36.4149ZM40.5154 36.4149C39.865 36.4149 39.291 36.6829 38.8772 37.0967L41.7056 39.9251C41.5782 40.0525 41.405 40.1822 41.1832 40.2772C40.9591 40.3733 40.7297 40.4149 40.5154 40.4149V36.4149ZM38.8772 37.0967C38.4317 37.5423 38.2034 38.1281 38.2034 38.7269H42.2034C42.2034 38.9176 42.1697 39.1375 42.0776 39.3635C41.9851 39.5906 41.8519 39.7788 41.7056 39.9251L38.8772 37.0967ZM38.2034 38.7269V39.7509H42.2034V38.7269H38.2034ZM45.1345 42.3989H43.1345V44.3989H45.1345V42.3989ZM45.1345 36.6309V34.6309H43.1345V36.6309H45.1345ZM45.7825 36.6309H47.7825V34.6309H45.7825V36.6309ZM45.7825 41.7509H43.7825V43.7509H45.7825V41.7509ZM50.8945 41.7509H52.8945V39.7509H50.8945V41.7509ZM50.8945 42.3989V44.3989H52.8945V42.3989H50.8945ZM47.1345 42.3989V36.6309H43.1345V42.3989H47.1345ZM45.1345 38.6309H45.7825V34.6309H45.1345V38.6309ZM43.7825 36.6309V41.7509H47.7825V36.6309H43.7825ZM45.7825 43.7509H50.8945V39.7509H45.7825V43.7509ZM48.8945 41.7509V42.3989H52.8945V41.7509H48.8945ZM50.8945 40.3989H45.1345V44.3989H50.8945V40.3989ZM51.8088 42.2709L50.7432 43.9634L50.7794 43.9862L50.8166 44.0074L51.8088 42.2709ZM51.4568 41.9189L49.7204 42.9112L49.7416 42.9483L49.7644 42.9846L51.4568 41.9189ZM51.3288 39.7509V37.7509H49.3288V39.7509H51.3288ZM55.3928 39.7509V41.7509H57.3928V39.7509H55.3928ZM55.2968 38.5109L53.8225 39.8624L53.8813 39.9265L53.9454 39.9852L55.2968 38.5109ZM51.3288 38.4149H49.3288V40.4149H51.3288V38.4149ZM51.3288 37.7589V35.7589H49.3288V37.7589H51.3288ZM55.5688 37.8949L54.5032 39.5874L54.5394 39.6102L54.5766 39.6314L55.5688 37.8949ZM55.9208 38.2469L54.1844 39.2392L54.2056 39.2763L54.2284 39.3125L55.9208 38.2469ZM56.0568 42.3989V44.3989H58.0568V42.3989H56.0568ZM55.3928 41.7429V43.7429H57.3928V41.7429H55.3928ZM55.3928 40.4069H57.3928V38.4069H55.3928V40.4069ZM51.9848 40.4069V38.4069H49.9848V40.4069H51.9848ZM52.0728 41.6549L50.5985 43.0064L50.6573 43.0705L50.7214 43.1292L52.0728 41.6549ZM52.2968 40.3989C52.4604 40.3989 52.641 40.4429 52.8011 40.5344L50.8166 44.0074C51.2754 44.2696 51.7813 44.3989 52.2968 44.3989V40.3989ZM52.8745 40.5785C52.9837 40.6472 53.0805 40.7441 53.1493 40.8533L49.7644 42.9846C50.0145 43.3818 50.346 43.7133 50.7432 43.9634L52.8745 40.5785ZM53.1933 40.9266C53.2848 41.0868 53.3288 41.2674 53.3288 41.4309H49.3288C49.3288 41.9465 49.4582 42.4524 49.7204 42.9112L53.1933 40.9266ZM53.3288 41.4309V39.7509H49.3288V41.4309H53.3288ZM51.3288 41.7509H55.3928V37.7509H51.3288V41.7509ZM57.3928 39.7509V38.7269H53.3928V39.7509H57.3928ZM57.3928 38.7269C57.3928 38.07 57.1174 37.4666 56.6483 37.0366L53.9454 39.9852C53.7956 39.848 53.6477 39.6608 53.5412 39.4212C53.4344 39.1808 53.3928 38.9406 53.3928 38.7269H57.3928ZM56.7711 37.1595C56.3412 36.6904 55.7378 36.4149 55.0808 36.4149V40.4149C54.8672 40.4149 54.6269 40.3734 54.3866 40.2665C54.147 40.1601 53.9598 40.0121 53.8225 39.8624L56.7711 37.1595ZM55.0808 36.4149H51.3288V40.4149H55.0808V36.4149ZM53.3288 38.4149V37.7589H49.3288V38.4149H53.3288ZM51.3288 39.7589H55.0808V35.7589H51.3288V39.7589ZM55.0808 39.7589C54.9109 39.7589 54.6995 39.711 54.5032 39.5874L56.6345 36.2025C56.1502 35.8975 55.6134 35.7589 55.0808 35.7589V39.7589ZM54.5766 39.6314C54.4158 39.5396 54.2762 39.3999 54.1844 39.2392L57.6573 37.2546C57.3948 36.7953 57.0205 36.421 56.5611 36.1584L54.5766 39.6314ZM54.2284 39.3125C54.111 39.1261 54.0568 38.9144 54.0568 38.7269H58.0568C58.0568 38.1874 57.912 37.6557 57.6133 37.1813L54.2284 39.3125ZM54.0568 38.7269V42.3989H58.0568V38.7269H54.0568ZM56.0568 40.3989H52.2968V44.3989H56.0568V40.3989ZM52.2968 43.7429H55.3928V39.7429H52.2968V43.7429ZM57.3928 41.7429V40.4069H53.3928V41.7429H57.3928ZM55.3928 38.4069H51.9848V42.4069H55.3928V38.4069ZM49.9848 40.4069V41.4309H53.9848V40.4069H49.9848ZM49.9848 41.4309C49.9848 42.0262 50.2083 42.5806 50.5985 43.0064L53.5471 40.3035C53.6702 40.4377 53.786 40.61 53.8683 40.8196C53.9509 41.0298 53.9848 41.2394 53.9848 41.4309H49.9848ZM50.7214 43.1292C51.1471 43.5195 51.7016 43.7429 52.2968 43.7429V39.7429C52.4883 39.7429 52.698 39.7769 52.9081 39.8594C53.1177 39.9418 53.2901 40.0576 53.4243 40.1806L50.7214 43.1292ZM56.6964 42.3989H54.6964V44.3989H56.6964V42.3989ZM56.6964 36.2389V34.2389H54.6964V36.2389H56.6964ZM57.3524 36.2389H59.3524V34.2389H57.3524V36.2389ZM57.3524 37.7589H55.3524V39.7589H57.3524V37.7589ZM60.9364 37.8949L59.8708 39.5874L59.907 39.6102L59.9441 39.6314L60.9364 37.8949ZM61.2884 38.2469L59.5519 39.2392L59.5731 39.2763L59.5959 39.3126L61.2884 38.2469ZM61.2884 41.9189L59.5788 40.881L59.5733 40.8901L59.5678 40.8993L61.2884 41.9189ZM60.9364 42.2709L61.956 43.9915L61.9652 43.9861L61.9744 43.9805L60.9364 42.2709ZM60.6724 41.6549L59.2582 40.2407V40.2407L60.6724 41.6549ZM60.6724 38.5109L59.1981 39.8624L59.2569 39.9265L59.321 39.9852L60.6724 38.5109ZM57.4484 38.5109L58.7999 39.9852L58.8319 39.9559L58.8626 39.9251L57.4484 38.5109ZM57.4484 41.6549L56.0342 43.0691L56.0649 43.0999L56.097 43.1292L57.4484 41.6549ZM58.6964 42.3989V36.2389H54.6964V42.3989H58.6964ZM56.6964 38.2389H57.3524V34.2389H56.6964V38.2389ZM55.3524 36.2389V37.7589H59.3524V36.2389H55.3524ZM57.3524 39.7589H60.4564V35.7589H57.3524V39.7589ZM60.4564 39.7589C60.2689 39.7589 60.0572 39.7048 59.8708 39.5874L62.002 36.2025C61.5276 35.9037 60.9959 35.7589 60.4564 35.7589V39.7589ZM59.9441 39.6314C59.7834 39.5396 59.6438 39.3999 59.5519 39.2392L63.0249 37.2546C62.7624 36.7953 62.3881 36.421 61.9287 36.1584L59.9441 39.6314ZM59.5959 39.3126C59.4785 39.1261 59.4244 38.9144 59.4244 38.7269H63.4244C63.4244 38.1874 63.2796 37.6557 62.9809 37.1813L59.5959 39.3126ZM59.4244 38.7269V41.4309H63.4244V38.7269H59.4244ZM59.4244 41.4309C59.4244 41.2438 59.478 41.047 59.5788 40.881L62.998 42.9569C63.2801 42.4922 63.4244 41.9701 63.4244 41.4309H59.4244ZM59.5678 40.8993C59.6573 40.7483 59.7797 40.6334 59.8984 40.5614L61.9744 43.9805C62.3917 43.7271 62.7488 43.3776 63.009 42.9385L59.5678 40.8993ZM59.9168 40.5503C60.0976 40.4432 60.2929 40.3989 60.4564 40.3989V44.3989C60.9719 44.3989 61.4872 44.2693 61.956 43.9915L59.9168 40.5503ZM60.4564 40.3989H56.6964V44.3989H60.4564V40.3989ZM57.6724 43.7429H60.4564V39.7429H57.6724V43.7429ZM60.4564 43.7429C61.0552 43.7429 61.6411 43.5147 62.0866 43.0691L59.2582 40.2407C59.4045 40.0944 59.5927 39.9613 59.8198 39.8687C60.0458 39.7767 60.2657 39.7429 60.4564 39.7429V43.7429ZM62.0866 43.0691C62.5004 42.6553 62.7684 42.0814 62.7684 41.4309H58.7684C58.7684 41.2167 58.8101 40.9872 58.9061 40.7631C59.0012 40.5413 59.1308 40.3681 59.2582 40.2407L62.0866 43.0691ZM62.7684 41.4309V38.7269H58.7684V41.4309H62.7684ZM62.7684 38.7269C62.7684 38.07 62.4929 37.4666 62.0239 37.0366L59.321 39.9852C59.1712 39.848 59.0233 39.6608 58.9168 39.4212C58.81 39.1808 58.7684 38.9406 58.7684 38.7269H62.7684ZM62.1467 37.1595C61.7167 36.6904 61.1134 36.4149 60.4564 36.4149V40.4149C60.2428 40.4149 60.0025 40.3734 59.7621 40.2665C59.5226 40.1601 59.3354 40.0121 59.1981 39.8624L62.1467 37.1595ZM60.4564 36.4149H57.6724V40.4149H60.4564V36.4149ZM57.6724 36.4149C57.022 36.4149 56.448 36.6829 56.0342 37.0967L58.8626 39.9251C58.7352 40.0525 58.562 40.1822 58.3402 40.2772C58.1161 40.3733 57.8867 40.4149 57.6724 40.4149V36.4149ZM56.097 37.0366C55.6279 37.4666 55.3524 38.07 55.3524 38.7269H59.3524C59.3524 38.9406 59.3109 39.1808 59.204 39.4212C59.0976 39.6608 58.9496 39.848 58.7999 39.9852L56.097 37.0366ZM55.3524 38.7269V41.4309H59.3524V38.7269H55.3524ZM55.3524 41.4309C55.3524 42.0814 55.6204 42.6553 56.0342 43.0691L58.8626 40.2407C58.99 40.3681 59.1196 40.5413 59.2147 40.7631C59.3107 40.9872 59.3524 41.2167 59.3524 41.4309H55.3524ZM56.097 43.1292C56.5227 43.5195 57.0771 43.7429 57.6724 43.7429V39.7429C57.8639 39.7429 58.0735 39.7769 58.2837 39.8594C58.4933 39.9418 58.6657 40.0576 58.7999 40.1806L56.097 43.1292ZM62.4643 42.2709L61.3987 43.9634L61.4349 43.9862L61.4721 44.0074L62.4643 42.2709ZM62.1123 41.9189L60.3759 42.9112L60.3971 42.9483L60.4199 42.9846L62.1123 41.9189ZM61.9843 41.3669V39.3669H59.9843V41.3669H61.9843ZM62.6403 41.3669H64.6403V39.3669H62.6403V41.3669ZM62.7283 41.6549L61.254 43.0064L61.3128 43.0705L61.3769 43.1292L62.7283 41.6549ZM65.9523 41.6549L64.5381 40.2407V40.2407L65.9523 41.6549ZM65.9523 40.5029L64.478 41.8544L64.5368 41.9185L64.6009 41.9772L65.9523 40.5029ZM62.4643 40.2789L61.3987 41.9714L61.4349 41.9942L61.4721 42.0154L62.4643 40.2789ZM62.1123 39.9269L60.3759 40.9192L60.3971 40.9563L60.4199 40.9926L62.1123 39.9269ZM62.1123 38.2469L60.4028 37.209L60.3972 37.2181L60.3918 37.2273L62.1123 38.2469ZM62.4643 37.8949L63.4839 39.6155L63.4932 39.6101L63.5023 39.6045L62.4643 37.8949ZM66.2243 37.8949L65.1587 39.5874L65.1949 39.6102L65.2321 39.6314L66.2243 37.8949ZM66.5763 38.2469L64.8399 39.2392L64.8611 39.2763L64.8839 39.3126L66.5763 38.2469ZM66.7123 38.7909V40.7909H68.7123V38.7909H66.7123ZM66.0483 38.7909H64.0483V40.7909H66.0483V38.7909ZM65.9523 38.5109L64.478 39.8624L64.5368 39.9265L64.6009 39.9852L65.9523 38.5109ZM62.7283 38.5109L61.3141 37.0967V37.0967L62.7283 38.5109ZM62.7283 39.6629L61.254 41.0144L61.3128 41.0785L61.3769 41.1372L62.7283 39.6629ZM66.2243 39.8869L65.1587 41.5794L65.1949 41.6022L65.2321 41.6234L66.2243 39.8869ZM66.5763 40.2389L64.8399 41.2312L64.8611 41.2684L64.8839 41.3046L66.5763 40.2389ZM66.5763 41.9189L64.8668 40.881L64.8612 40.8901L64.8558 40.8993L66.5763 41.9189ZM66.2243 42.2709L67.2439 43.9915L67.2532 43.9861L67.2623 43.9805L66.2243 42.2709ZM62.9523 40.3989C63.1159 40.3989 63.2965 40.4429 63.4566 40.5344L61.4721 44.0074C61.9309 44.2696 62.4368 44.3989 62.9523 44.3989V40.3989ZM63.53 40.5785C63.6392 40.6472 63.736 40.7441 63.8048 40.8533L60.4199 42.9846C60.67 43.3818 61.0015 43.7133 61.3987 43.9634L63.53 40.5785ZM63.8488 40.9266C63.9403 41.0868 63.9843 41.2674 63.9843 41.4309H59.9843C59.9843 41.9465 60.1137 42.4524 60.3759 42.9112L63.8488 40.9266ZM63.9843 41.4309V41.3669H59.9843V41.4309H63.9843ZM61.9843 43.3669H62.6403V39.3669H61.9843V43.3669ZM60.6403 41.3669V41.4309H64.6403V41.3669H60.6403ZM60.6403 41.4309C60.6403 42.0262 60.8638 42.5806 61.254 43.0064L64.2027 40.3035C64.3257 40.4377 64.4415 40.61 64.5238 40.8196C64.6064 41.0298 64.6403 41.2394 64.6403 41.4309H60.6403ZM61.3769 43.1292C61.8026 43.5195 62.3571 43.7429 62.9523 43.7429V39.7429C63.1438 39.7429 63.3535 39.7769 63.5636 39.8594C63.7732 39.9418 63.9456 40.0576 64.0798 40.1806L61.3769 43.1292ZM62.9523 43.7429H65.7363V39.7429H62.9523V43.7429ZM65.7363 43.7429C66.3352 43.7429 66.921 43.5147 67.3666 43.0691L64.5381 40.2407C64.6845 40.0944 64.8726 39.9613 65.0997 39.8687C65.3258 39.7767 65.5456 39.7429 65.7363 39.7429V43.7429ZM67.3666 43.0691C67.7804 42.6553 68.0483 42.0814 68.0483 41.4309H64.0483C64.0483 41.2167 64.09 40.9872 64.1861 40.7631C64.2811 40.5413 64.4107 40.3681 64.5381 40.2407L67.3666 43.0691ZM68.0483 41.4309V40.7189H64.0483V41.4309H68.0483ZM68.0483 40.7189C68.0483 40.062 67.7729 39.4586 67.3038 39.0286L64.6009 41.9772C64.4511 41.84 64.3032 41.6528 64.1967 41.4132C64.0899 41.1728 64.0483 40.9326 64.0483 40.7189H68.0483ZM67.4267 39.1515C66.9967 38.6824 66.3933 38.4069 65.7363 38.4069V42.4069C65.5227 42.4069 65.2824 42.3654 65.0421 42.2585C64.8025 42.1521 64.6153 42.0041 64.478 41.8544L67.4267 39.1515ZM65.7363 38.4069H62.9523V42.4069H65.7363V38.4069ZM62.9523 38.4069C63.1159 38.4069 63.2965 38.4509 63.4566 38.5424L61.4721 42.0154C61.9309 42.2776 62.4368 42.4069 62.9523 42.4069V38.4069ZM63.53 38.5865C63.6392 38.6552 63.736 38.7521 63.8048 38.8613L60.4199 40.9926C60.67 41.3898 61.0015 41.7213 61.3987 41.9714L63.53 38.5865ZM63.8488 38.9346C63.9403 39.0948 63.9843 39.2754 63.9843 39.4389H59.9843C59.9843 39.9545 60.1137 40.4604 60.3759 40.9192L63.8488 38.9346ZM63.9843 39.4389V38.7269H59.9843V39.4389H63.9843ZM63.9843 38.7269C63.9843 38.8905 63.9401 39.0857 63.8329 39.2665L60.3918 37.2273C60.1139 37.6961 59.9843 38.2114 59.9843 38.7269H63.9843ZM63.8219 39.2849C63.7498 39.4036 63.635 39.526 63.4839 39.6155L61.4447 36.1743C61.0057 36.4345 60.6562 36.7916 60.4028 37.209L63.8219 39.2849ZM63.5023 39.6045C63.3363 39.7053 63.1395 39.7589 62.9523 39.7589V35.7589C62.4132 35.7589 61.8911 35.9032 61.4264 36.1854L63.5023 39.6045ZM62.9523 39.7589H65.7363V35.7589H62.9523V39.7589ZM65.7363 39.7589C65.5664 39.7589 65.355 39.711 65.1587 39.5874L67.29 36.2025C66.8057 35.8975 66.2689 35.7589 65.7363 35.7589V39.7589ZM65.2321 39.6314C65.0713 39.5396 64.9317 39.3999 64.8399 39.2392L68.3128 37.2546C68.0503 36.7953 67.676 36.421 67.2166 36.1584L65.2321 39.6314ZM64.8839 39.3126C64.7665 39.1261 64.7123 38.9144 64.7123 38.7269H68.7123C68.7123 38.1874 68.5675 37.6557 68.2688 37.1813L64.8839 39.3126ZM64.7123 38.7269V38.7909H68.7123V38.7269H64.7123ZM66.7123 36.7909H66.0483V40.7909H66.7123V36.7909ZM68.0483 38.7909V38.7269H64.0483V38.7909H68.0483ZM68.0483 38.7269C68.0483 38.07 67.7729 37.4666 67.3038 37.0366L64.6009 39.9852C64.4511 39.848 64.3032 39.6608 64.1967 39.4212C64.0899 39.1808 64.0483 38.9406 64.0483 38.7269H68.0483ZM67.4267 37.1595C66.9967 36.6904 66.3933 36.4149 65.7363 36.4149V40.4149C65.5227 40.4149 65.2824 40.3734 65.0421 40.2665C64.8025 40.1601 64.6153 40.0121 64.478 39.8624L67.4267 37.1595ZM65.7363 36.4149H62.9523V40.4149H65.7363V36.4149ZM62.9523 36.4149C62.3019 36.4149 61.728 36.6829 61.3141 37.0967L64.1426 39.9251C64.0151 40.0525 63.842 40.1822 63.6202 40.2772C63.3961 40.3733 63.1666 40.4149 62.9523 40.4149V36.4149ZM61.3141 37.0967C60.8686 37.5423 60.6403 38.1281 60.6403 38.7269H64.6403C64.6403 38.9176 64.6066 39.1375 64.5145 39.3635C64.422 39.5906 64.2889 39.7788 64.1426 39.9251L61.3141 37.0967ZM60.6403 38.7269V39.4389H64.6403V38.7269H60.6403ZM60.6403 39.4389C60.6403 40.0342 60.8638 40.5886 61.254 41.0144L64.2027 38.3115C64.3257 38.4457 64.4415 38.618 64.5238 38.8276C64.6064 39.0378 64.6403 39.2474 64.6403 39.4389H60.6403ZM61.3769 41.1372C61.8026 41.5275 62.3571 41.7509 62.9523 41.7509V37.7509C63.1438 37.7509 63.3535 37.7849 63.5636 37.8674C63.7732 37.9498 63.9456 38.0656 64.0798 38.1886L61.3769 41.1372ZM62.9523 41.7509H65.7363V37.7509H62.9523V41.7509ZM65.7363 41.7509C65.5664 41.7509 65.355 41.703 65.1587 41.5794L67.29 38.1945C66.8057 37.8895 66.2689 37.7509 65.7363 37.7509V41.7509ZM65.2321 41.6234C65.0713 41.5316 64.9317 41.3919 64.8399 41.2312L68.3128 39.2466C68.0503 38.7873 67.676 38.413 67.2166 38.1504L65.2321 41.6234ZM64.8839 41.3046C64.7665 41.1181 64.7123 40.9064 64.7123 40.7189H68.7123C68.7123 40.1794 68.5675 39.6477 68.2688 39.1733L64.8839 41.3046ZM64.7123 40.7189V41.4309H68.7123V40.7189H64.7123ZM64.7123 41.4309C64.7123 41.2438 64.766 41.047 64.8668 40.881L68.2859 42.9569C68.568 42.4922 68.7123 41.9701 68.7123 41.4309H64.7123ZM64.8558 40.8993C64.9453 40.7483 65.0677 40.6334 65.1864 40.5614L67.2623 43.9805C67.6797 43.7271 68.0367 43.3776 68.2969 42.9385L64.8558 40.8993ZM65.2047 40.5503C65.3949 40.4376 65.5898 40.3989 65.7363 40.3989V44.3989C66.2455 44.3989 66.7657 44.2749 67.2439 43.9915L65.2047 40.5503ZM65.7363 40.3989H62.9523V44.3989H65.7363V40.3989Z" fill="#181D17" mask="url(#path-38-outside-1_1104_6838)"/>
<path d="M56.8324 33.8814C59.1392 33.8814 61.0092 31.6128 61.0092 28.8142C61.0092 26.0157 59.1392 23.7471 56.8324 23.7471C54.5256 23.7471 52.6555 26.0157 52.6555 28.8142C52.6555 31.6128 54.5256 33.8814 56.8324 33.8814Z" fill="#FFE9A1"/>
<path d="M29.5462 32.6299C31.8531 32.6299 33.7231 30.3613 33.7231 27.5628C33.7231 24.7643 31.8531 22.4956 29.5462 22.4956C27.2394 22.4956 25.3694 24.7643 25.3694 27.5628C25.3694 30.3613 27.2394 32.6299 29.5462 32.6299Z" fill="#FFE9A1"/>
<path d="M49.9856 59.8701C51.0093 58.8549 51.0068 57.1961 49.9856 56.1784C48.9622 55.1589 48.1244 54.3191 48.1153 54.3056C48.0882 54.2562 47.744 54.6424 47.744 54.7278C47.744 54.7907 48.2738 55.3431 49.3516 56.4119C50.2347 57.2877 50.9592 58.0153 50.9592 58.0287C50.9592 58.0422 50.2256 58.7788 49.329 59.668C48.4323 60.5572 47.6987 61.2938 47.6987 61.3028C47.6987 61.3342 48.0746 61.7115 48.1063 61.7115C48.1199 61.7115 48.9667 60.8806 49.9856 59.8701Z" fill="#50FA7B"/>
<path d="M39.7572 61.5051C39.8582 61.3948 39.8541 61.2245 39.748 61.1192L38.3016 59.684C37.4021 58.7913 36.6652 58.0378 36.6652 58.0153C36.6652 57.9884 37.3975 57.2438 38.2926 56.3557C39.1876 55.4675 39.9199 54.7319 39.9199 54.7139C39.9199 54.7005 39.825 54.6018 39.712 54.4941C39.5957 54.3863 39.4151 54.3892 39.3025 54.5008L37.6959 56.091C36.5496 57.2285 36.4953 58.7439 37.6416 59.8813C38.3546 60.5888 38.9854 61.2059 39.3082 61.5102C39.4559 61.6493 39.6261 61.66 39.7572 61.5051Z" fill="#50FA7B"/>
<path d="M44.3618 53.7441L42.0099 54.3743L43.8093 61.0899C43.9833 61.7393 44.6509 62.1247 45.3004 61.9507C45.9498 61.7767 46.3353 61.1091 46.1612 60.4597L44.3618 53.7441Z" fill="#13201E"/>
<path d="M43.8877 53.8574L42.4177 54.2513L44.2255 60.9979C44.3342 61.4038 44.7515 61.6447 45.1574 61.5359C45.5633 61.4271 45.8042 61.0099 45.6954 60.604L43.8877 53.8574Z" fill="white"/>
<path d="M44.4546 56.8574L43.4256 57.1331L44.4497 60.955C44.5258 61.2391 44.8179 61.4078 45.102 61.3316C45.3862 61.2555 45.5548 60.9634 45.4787 60.6793L44.4546 56.8574Z" fill="#50FA7B"/>
<path d="M44.6062 53.0121C44.5114 52.6584 44.1478 52.4484 43.794 52.5432L41.8468 53.065C41.493 53.1598 41.2831 53.5234 41.3779 53.8772C41.4727 54.2309 41.8363 54.4409 42.19 54.3461L43.1893 54.0783L43.9579 53.8724L44.1373 53.8243C44.4911 53.7295 44.701 53.3659 44.6062 53.0121Z" fill="#13201E"/>
<rect width="2.5995" height="0.689664" rx="0.344832" transform="matrix(-0.965926 0.258819 0.258819 0.965926 44.146 52.7642)" fill="white"/>
<rect width="0.7609" height="0.38045" transform="matrix(-0.965926 0.258819 0.258819 0.965926 43.8086 53.5649)" fill="white"/>
<path d="M44.0131 56.7826L43.4116 57.1292L44.611 57.1353L44.536 56.8735L44.0131 56.7826Z" fill="white"/>
<rect width="0.328854" height="0.350778" rx="0.164427" transform="matrix(-1 0 0 1 43.314 51.7798)" fill="#50FA7B"/>
<path d="M42.1851 51.595C42.1851 51.4921 42.1016 51.4087 41.9987 51.4087C41.8958 51.4087 41.8124 51.4921 41.8124 51.595C41.8124 51.698 41.8958 51.7814 41.9987 51.7814C42.1016 51.7814 42.1851 51.698 42.1851 51.595Z" fill="#50FA7B"/>
<path d="M42.8315 50.6072C42.8315 50.4922 42.7383 50.3989 42.6233 50.3989C42.5082 50.3989 42.415 50.4922 42.415 50.6072C42.415 50.7222 42.5082 50.8155 42.6233 50.8155C42.7383 50.8155 42.8315 50.7222 42.8315 50.6072Z" fill="#50FA7B"/>
<defs>
<linearGradient id="paint0_linear_1104_6838" x1="44.4806" y1="110.217" x2="44.4706" y2="81.7726" gradientUnits="userSpaceOnUse">
<stop stop-color="#808080" stop-opacity="0.25"/>
<stop offset="0.54" stop-color="#808080" stop-opacity="0.12"/>
<stop offset="1" stop-color="#808080" stop-opacity="0.1"/>
</linearGradient>
<linearGradient id="paint1_linear_1104_6838" x1="44.4849" y1="113.453" x2="44.4814" y2="103.369" gradientUnits="userSpaceOnUse">
<stop stop-color="#808080" stop-opacity="0.25"/>
<stop offset="0.54" stop-color="#808080" stop-opacity="0.12"/>
<stop offset="1" stop-color="#808080" stop-opacity="0.1"/>
</linearGradient>
<linearGradient id="paint2_linear_1104_6838" x1="11.0665" y1="66.7773" x2="11.0553" y2="34.7532" gradientUnits="userSpaceOnUse">
<stop stop-color="#808080" stop-opacity="0.25"/>
<stop offset="0.54" stop-color="#808080" stop-opacity="0.12"/>
<stop offset="1" stop-color="#808080" stop-opacity="0.1"/>
</linearGradient>
<linearGradient id="paint3_linear_1104_6838" x1="77.3398" y1="66.7539" x2="77.3286" y2="34.7298" gradientUnits="userSpaceOnUse">
<stop stop-color="#808080" stop-opacity="0.25"/>
<stop offset="0.54" stop-color="#808080" stop-opacity="0.12"/>
<stop offset="1" stop-color="#808080" stop-opacity="0.1"/>
</linearGradient>
<linearGradient id="paint4_linear_1104_6838" x1="44.2109" y1="93.3592" x2="44.1873" y2="25.935" gradientUnits="userSpaceOnUse">
<stop stop-color="#808080" stop-opacity="0.25"/>
<stop offset="0.54" stop-color="#808080" stop-opacity="0.12"/>
<stop offset="1" stop-color="#808080" stop-opacity="0.1"/>
</linearGradient>
</defs>
</svg>
