<svg width="473" height="331" viewBox="0 0 473 331" fill="none" xmlns="http://www.w3.org/2000/svg">
<g clip-path="url(#clip0_228_3259)">
<path d="M473 313.433H0V314.877H473V313.433Z" fill="#3F3D56"/>
<path d="M340.308 152.129C335.929 125.849 313.105 105.823 285.607 105.823H173.156C145.67 105.823 122.851 125.833 118.456 152.097C117.948 155.1 117.687 158.19 117.687 161.338V259.397C117.687 262.545 117.948 265.628 118.456 268.632C121.953 289.557 137.152 306.515 157.093 312.539C162.177 314.078 167.57 314.906 173.156 314.906H285.607C291.193 314.906 296.587 314.078 301.671 312.539C321.617 306.51 336.821 289.541 340.308 268.6C340.81 265.607 341.072 262.534 341.072 259.397V161.338C341.072 158.2 340.81 155.122 340.308 152.129ZM295.124 312.539C292.032 313.089 288.854 313.378 285.607 313.378H173.156C169.91 313.378 166.732 313.089 163.64 312.539C138.391 308.044 119.219 285.96 119.219 259.397V226.847C119.219 134.876 193.711 107.356 285.607 107.356C315.396 107.356 339.545 131.525 339.545 161.338V259.397C267.231 269.081 320.373 308.044 295.124 312.539Z" fill="#3F3D56"/>
<path d="M251.759 179.819L256.085 207.963L319.536 199.303L313.407 166.421L251.759 179.819Z" fill="#50FA7B"/>
<path d="M301.557 21.8958H275.322V49.0731H301.557V21.8958Z" fill="#2F2E41"/>
<path d="M277.716 50.6484L284.205 31.1646H296.854L297.519 50.6484H277.716Z" fill="#FFB6B6"/>
<path opacity="0.1" d="M277.716 50.6484L284.205 31.1646H296.854L297.519 50.6484H277.716Z" fill="black"/>
<path d="M284.566 224.199L283.845 299.249L283.124 305.022V313.309L293.939 314.403L294.66 297.805C294.66 297.805 306.197 265.332 303.313 240.075C300.429 214.818 301.871 222.035 301.871 222.035L284.566 224.199Z" fill="#FFB6B6"/>
<path d="M291.431 230.093L264.824 300.263L263.398 305.903L260.385 313.622L249.913 310.703L255.274 294.981C255.274 294.981 256.332 260.532 268.198 238.056C280.065 215.579 276.099 221.776 276.099 221.776L291.431 230.093Z" fill="#FFB6B6"/>
<path d="M277.716 48.4835L258.248 57.143L270.678 121.376L268.714 213.568L255.736 240.99C255.736 240.99 253.561 256.673 275.913 246.57C298.265 236.467 323.502 233.58 323.502 233.58L317.373 191.365L311.965 80.5958L312.686 56.0605L296.823 45.9578C296.823 45.9578 277.716 48.4834 277.716 48.4835Z" fill="#2F2E41"/>
<path d="M266.873 241.992L245.269 205.798L269.957 121.376L258.248 57.1429L278.791 48.3413C278.791 48.3413 289.425 58.7056 289.425 67.2544C289.425 75.8031 266.873 241.992 266.873 241.992Z" fill="#E6E6E6"/>
<path d="M313.741 234.776L294.131 66.1839C293.883 64.0551 294.246 61.8997 295.177 59.9699L300.789 48.3413L322.781 54.6172L313.94 123.541L337.562 191.365L313.741 234.776Z" fill="#E6E6E6"/>
<path d="M296.102 312.959C296.102 312.959 282.403 305.021 280.961 309.351C279.518 313.681 278.797 317.289 278.797 317.289C278.797 317.289 275.192 331 286.008 331C296.823 331 296.102 324.764 296.102 324.764V312.959Z" fill="#2F2E41"/>
<path d="M248.423 308.571C248.423 308.571 264.069 306.165 263.839 310.723C263.608 315.281 262.968 318.905 262.968 318.905C262.968 318.905 261.343 332.989 251.268 329.051C241.194 325.114 244.132 319.567 244.132 319.567L248.423 308.571Z" fill="#2F2E41"/>
<path d="M291.373 41.7688C301.273 41.7688 309.298 33.737 309.298 23.8292C309.298 13.9215 301.273 5.88965 291.373 5.88965C281.473 5.88965 273.448 13.9215 273.448 23.8292C273.448 33.737 281.473 41.7688 291.373 41.7688Z" fill="#FFB6B6"/>
<path d="M305.694 7.84239C304.86 3.41928 300.323 0.427579 295.841 0.0524275C291.359 -0.322724 286.969 1.37103 282.933 3.3569C280.197 4.70308 277.503 6.22039 275.287 8.31579C273.071 10.4112 271.349 13.1485 270.952 16.1737C270.811 17.244 270.829 18.3623 270.392 19.3489C269.845 20.5815 268.671 21.4185 267.962 22.5657C266.692 24.623 267.276 27.616 269.226 29.0441C266.774 30.0898 264.255 31.1806 262.386 33.082C260.517 34.9835 259.438 37.9191 260.464 40.381C260.826 41.252 261.426 42.0144 261.736 42.9056C262.325 44.5978 261.765 46.5202 260.72 47.9756C259.675 49.4309 258.201 50.5101 256.753 51.5637C260.475 52.2938 264.274 52.8627 268.052 52.5221C271.829 52.1815 275.62 50.8565 278.356 48.2271C281.091 45.5978 282.596 41.5417 281.615 37.8751C280.863 35.0664 278.76 32.6051 278.762 29.6973C278.763 27.4621 280.018 25.4458 281.231 23.5687C283.879 19.4694 286.528 15.3701 289.176 11.2708C289.652 10.5334 290.155 9.77036 290.907 9.31934C292.188 8.55206 293.849 8.88948 295.199 9.52632C296.549 10.1632 297.783 11.0769 299.222 11.4717C302.16 12.2776 305.568 10.4269 306.494 7.52254" fill="#2F2E41"/>
<path d="M295.106 44.326C293.612 45.7737 291.459 46.24 289.464 46.8266C287.469 47.4132 285.347 48.3358 284.449 50.2127C283.569 52.0532 284.208 54.3895 285.666 55.8162C287.123 57.243 289.241 57.844 291.279 57.8157C293.318 57.7874 295.305 57.1893 297.222 56.495C302.464 54.5965 307.43 51.9333 311.912 48.6156C309.008 47.8116 307.109 44.4185 307.94 41.5205C308.616 39.1631 310.684 37.5189 312.091 35.5108C314.513 32.0531 314.916 27.4953 314.114 23.3494C313.312 19.2035 311.424 15.3603 309.555 11.5742C308.964 10.3773 308.359 9.16023 307.438 8.19519C306.516 7.23015 305.211 6.53878 303.885 6.67704C301.683 6.90648 300.277 9.32533 300.262 11.5406C300.247 13.7558 301.218 15.8378 301.955 17.9269C302.714 20.0792 303.241 22.3606 303.037 24.6339C302.867 26.5389 302.175 28.3945 301.056 29.9452C300.192 31.1428 299.091 32.1478 298.152 33.2871C297.426 34.1678 296.782 35.1655 296.591 36.2913C296.244 38.3401 297.444 40.4132 297.115 42.465C296.767 44.6339 294.487 46.2944 292.318 45.9583" fill="#2F2E41"/>
<path d="M240.284 294.889C274.133 294.889 301.573 267.427 301.573 233.55C301.573 199.674 274.133 172.212 240.284 172.212C206.436 172.212 178.996 199.674 178.996 233.55C178.996 267.427 206.436 294.889 240.284 294.889Z" fill="#50FA7B"/>
<path d="M277.007 228.628H269.388C268.202 221.637 264.545 215.306 259.082 210.791C246.512 200.4 227.904 202.175 217.521 214.756C217.486 214.796 217.452 214.837 217.419 214.88C216.589 215.956 216.789 217.501 217.864 218.332C218.939 219.162 220.484 218.963 221.313 217.887C225.824 212.418 232.651 208.937 240.284 208.937C251.971 208.939 262.044 217.168 264.385 228.628H257.667C257.379 228.628 257.101 228.729 256.88 228.913C256.358 229.348 256.288 230.124 256.722 230.646L266.392 242.263C266.44 242.32 266.492 242.373 266.549 242.42C267.071 242.856 267.846 242.785 268.281 242.263L277.951 230.646C278.135 230.425 278.236 230.146 278.236 229.859C278.236 229.179 277.686 228.628 277.007 228.628Z" fill="#100F13"/>
<path d="M262.705 248.769C261.629 247.939 260.085 248.138 259.255 249.214C255.678 253.55 250.725 256.529 245.221 257.657C231.909 260.384 218.909 251.795 216.183 238.473H222.902C223.581 238.473 224.131 237.922 224.131 237.242C224.131 236.954 224.03 236.676 223.846 236.455L214.176 224.837C213.741 224.315 212.966 224.245 212.445 224.68C212.388 224.728 212.335 224.78 212.288 224.837L202.618 236.455C202.183 236.977 202.254 237.753 202.776 238.188C202.996 238.372 203.275 238.473 203.562 238.473H211.181C212.366 245.464 216.024 251.794 221.486 256.31C234.057 266.701 252.665 264.926 263.048 252.345C263.083 252.305 263.117 252.263 263.15 252.221C263.979 251.145 263.78 249.599 262.705 248.769Z" fill="#100F13"/>
<path d="M257.397 171.165C256.654 176.481 253.312 180.406 249.932 179.933C246.552 179.46 244.415 174.767 245.158 169.45C245.426 167.322 246.199 165.289 247.413 163.521L250.842 141.038L261.349 142.873L256.853 164.842C257.536 166.876 257.723 169.044 257.397 171.165Z" fill="#FFB6B6"/>
<path d="M266.54 56.0606C266.54 56.0606 255.724 52.4524 254.282 65.4417C252.84 78.431 251.398 94.3067 251.398 94.3067C251.398 94.3067 244.909 109.461 247.793 117.399C250.677 125.337 255.724 119.802 250.677 126.538C245.63 133.275 246.333 155.438 246.333 155.438L262.574 154.619C262.574 154.619 271.587 95.0283 271.587 93.5851C271.587 92.1418 266.54 56.0606 266.54 56.0606Z" fill="#E6E6E6"/>
<path d="M336.84 168.752C337.041 174.116 334.439 178.567 331.029 178.695C327.618 178.822 324.691 174.578 324.491 169.213C324.381 167.07 324.786 164.933 325.671 162.98L325.106 140.243L335.772 140.205L335.197 162.623C336.226 164.506 336.79 166.607 336.84 168.752Z" fill="#FFB6B6"/>
<path d="M320.19 55.817C320.19 55.817 331.069 52.4028 332.279 65.4158C333.489 78.4288 334.647 102.266 334.647 102.266C334.647 102.266 340.865 117.533 337.839 125.418C334.814 133.303 329.866 127.68 334.793 134.505C339.719 141.33 337.951 160.578 337.951 160.578L321.727 159.47C321.727 159.47 314.448 102.626 314.474 101.183C314.5 99.7401 320.19 55.817 320.19 55.817Z" fill="#E6E6E6"/>
</g>
<defs>
<clipPath id="clip0_228_3259">
<rect width="473" height="331" fill="white"/>
</clipPath>
</defs>
</svg>
