<svg width="264" height="226" viewBox="0 0 264 226" fill="none" xmlns="http://www.w3.org/2000/svg">
<g clip-path="url(#clip0_234_3164)">
<g opacity="0.7">
<path d="M124.641 104.254C124.629 103.794 124.62 103.338 124.616 102.888C124.573 99.9463 124.849 97.0086 125.439 94.1264C125.531 93.7124 125.633 93.3079 125.757 92.913C127.451 90.2409 129.463 85.4221 129.641 80.7626L152.98 44.9804L140.945 16.2208L140.776 15.9787C140.179 13.2461 137.852 4.9781 131.762 6.01319C125.29 7.11198 131.065 16.9947 132.435 19.1891C132.607 19.4662 132.712 19.6191 132.712 19.6191L132.788 19.5936V19.6191H132.706L139.311 43.8688C138.704 45.4294 132.391 61.3316 125.585 66.6599C125.519 58.3346 126.418 47.7162 126.784 43.7669C126.92 42.3725 126.812 40.9649 126.466 39.6074C124.581 32.3841 117.883 27.043 109.895 27.043C107.743 27.0423 105.609 27.4408 103.601 28.2183C100.268 29.5153 97.4456 31.8634 95.5609 34.9083C93.6761 37.9533 92.8309 41.5298 93.1527 45.0982C93.566 49.7354 94.3161 59.0608 94.3702 66.4688C87.1576 60.9813 80.4537 43.4421 80.4537 43.4421L87.1036 19.6191C87.1036 19.6191 95.3365 7.24893 88.0572 6.01319C81.9223 4.97173 79.605 13.3671 79.0296 16.0392L78.8739 16.5297L66.836 44.6714L90.6542 81.1671C90.7146 84.9094 91.9257 89.0274 94.3892 92.9162C94.6223 93.2864 94.781 93.6985 94.8565 94.1296C94.8837 94.275 94.9028 94.4217 94.9137 94.5691C94.7898 96.7986 93.2544 99.5631 91.5316 102.598C90.3173 104.735 89.0172 107.003 88.054 109.302C85.8289 114.599 84.7831 117.583 84.834 122.042C84.7704 127.434 86.4233 134.871 89.637 151.662C91.3277 150.96 93.0681 150.385 94.8438 149.942C95.7116 157.64 96.6747 168.127 95.7974 170.462C94.634 173.599 93.8902 188.731 94.4624 196.804C90.6479 201.744 88.9854 201.582 88.9854 201.582C84.853 202.82 85.0692 205.308 85.9497 206.958C86.2312 207.629 86.6516 208.232 87.1831 208.728C87.3031 208.832 87.4099 208.949 87.5009 209.079C87.7902 210.098 87.0273 211.697 85.7812 215.449C85.1773 217.27 85.5683 218.974 86.293 220.388C87.4342 222.959 89.7896 224.697 89.7896 224.697C92.3739 225.471 93.2195 224.659 93.2099 223.283C94.0523 224.898 96.128 226.226 100.813 225.959C100.813 225.959 104.021 226.169 102.403 222.385C100.785 218.602 101.602 203.257 101.602 203.257C101.602 203.257 101.754 201.346 102.009 198.451L124.053 173.418L126.914 149.945C128.745 152.537 129.991 153.295 134.273 153.528C134.273 153.528 134.203 153.308 134.076 152.891H134.273C134.273 152.891 125.213 124.459 124.641 104.254ZM108.112 149.145C109.504 149.392 110.865 149.789 112.171 150.33L112.457 151.977L111.256 172.577C108.564 174.404 106.167 176.631 104.145 179.182C104.634 175.851 105.149 173.306 105.632 172.574C106.824 170.771 107.667 157.761 108.099 149.145H108.112ZM93.2195 218.398C92.8999 219.242 92.732 220.136 92.7236 221.038C92.6314 220.79 92.5265 220.538 92.4057 220.29C91.6651 218.608 93.8139 212.62 95.5844 208.267C95.4915 209.836 95.2994 211.397 95.0091 212.942L93.2195 218.398Z" fill="url(#paint0_linear_234_3164)"/>
</g>
<path d="M140.583 18.1252C140.583 18.1252 138.758 6.24872 131.768 7.46853C124.778 8.68835 132.68 20.8674 132.68 20.8674L140.583 18.1252Z" fill="#FDB797"/>
<path d="M81.0068 18.1252C81.0068 18.1252 82.8314 6.24872 89.8214 7.46853C96.8114 8.68835 88.9091 20.8674 88.9091 20.8674L81.0068 18.1252Z" fill="#FDB797"/>
<path d="M121.729 125.918H106.535V137.794H121.729V125.918Z" fill="#535461"/>
<path d="M126.984 44.6395C127.119 43.2675 127.02 41.8825 126.692 40.5438C126.113 38.2817 125.06 36.169 123.603 34.3461C122.146 32.5232 120.319 31.0318 118.242 29.9711C116.166 28.9104 113.888 28.3046 111.56 28.194C109.231 28.0834 106.906 28.4706 104.739 29.3297C98.0957 31.9732 94.0937 38.8112 94.7135 45.9453C95.416 54.0159 97.1198 76.5044 94.3956 77.5012C108.983 72.3258 116.278 72.02 127.216 77.5012C124.578 73.5615 126.425 50.831 126.984 44.6395Z" fill="#E3E354"/>
<g opacity="0.1">
<path d="M124.584 50.6238C124.699 49.5389 124.613 48.4421 124.333 47.388C122.782 41.7698 117.314 37.6136 110.788 37.6136C109.03 37.6099 107.284 37.9183 105.632 38.5244C99.9743 40.6137 96.5635 46.0153 97.0912 51.6526C97.6888 58.0224 99.1415 75.7972 96.8083 76.5871C109.234 72.4977 115.448 72.2556 124.781 76.5871C122.537 73.4755 124.11 55.5031 124.584 50.6238Z" fill="black"/>
</g>
<path d="M95.3397 140.836C95.3397 140.836 98.6074 165.678 97.2469 169.395C95.8864 173.112 95.1331 194.024 96.4777 199.196C97.8223 204.368 96.4777 211.2 96.4777 211.2L94.7484 216.579C94.7484 216.579 91.4807 224.65 102.06 224.029C102.06 224.029 105.137 224.236 103.598 220.525C102.06 216.815 102.829 201.693 102.829 201.693C102.829 201.693 104.943 174.169 106.675 171.478C108.407 168.787 109.367 140.849 109.367 140.849L95.3397 140.836Z" fill="#FDB797"/>
<path opacity="0.1" d="M91.3123 222.379C91.3123 222.379 86.1214 218.445 87.6599 213.687C89.1984 208.929 89.9677 207.687 88.8138 206.652C87.6599 205.617 85.3521 201.683 90.721 200.03C90.721 200.03 92.6283 200.237 97.0785 193.823C101.529 187.409 101.115 179.335 112.079 171.471L113.233 151.19L110.725 136.504L128.224 137.954L124.187 171.895L98.8013 201.476C98.8013 201.476 92.6473 215.343 93.8012 218.038C94.9551 220.732 95.3397 223.618 91.3123 222.379Z" fill="black"/>
<path d="M91.4934 222.793C91.4934 222.793 86.3025 218.859 87.8411 214.101C89.3796 209.343 90.1488 208.101 88.9949 207.066C87.8411 206.031 85.5333 202.097 90.9022 200.444C90.9022 200.444 92.8094 200.651 97.2596 194.237C101.71 187.823 101.297 179.749 112.26 171.885L113.414 151.604L110.915 136.909L128.414 138.358L124.371 172.293L98.992 201.89C98.992 201.89 92.838 215.757 93.9919 218.452C95.1458 221.146 95.5336 224.032 91.4934 222.793Z" fill="#FDB797"/>
<path opacity="0.1" d="M134.19 152.712C128.72 152.394 128.414 151.19 125.074 146.024C121.733 140.858 115.652 145.416 115.652 145.416L113.525 128.67L113.843 149.983C104.119 145.11 91.3536 150.897 91.3536 150.897C85.8703 121.653 85.1455 121.217 89.8182 109.78C90.8018 107.516 91.9163 105.312 93.1559 103.178C95.0822 99.6936 96.7701 96.5596 96.3346 94.2283C96.2627 93.8052 96.1105 93.3998 95.8864 93.034C88.4069 80.8995 92.873 66.4847 106.92 68.7683C107.635 68.8829 108.042 68.9785 108.042 68.9785H113.513C135.697 67.7618 129.924 86.6387 125.973 93.034C125.868 93.4193 125.77 93.8206 125.681 94.2283C125.02 97.2476 124.807 100.869 124.915 104.809C125.477 124.698 134.19 152.712 134.19 152.712Z" fill="black"/>
<path d="M134.19 152.11C128.72 151.792 128.414 150.588 125.074 145.422C121.733 140.256 115.957 144.785 115.957 144.785L113.525 128.039V149.352C103.801 144.479 91.3409 150.266 91.3409 150.266C85.8703 121.036 85.1487 120.602 89.8214 109.159C90.805 106.895 91.9194 104.691 93.1591 102.557C95.0854 99.0725 96.7733 95.9385 96.3378 93.6072C96.2659 93.1841 96.1137 92.7787 95.8896 92.4129C88.4101 80.2784 92.8762 65.8636 106.923 68.1472C107.638 68.2618 108.045 68.3574 108.045 68.3574H113.516C135.7 67.1407 129.927 86.0176 125.976 92.4129C125.871 92.7982 125.773 93.1995 125.684 93.6072C125.023 96.6265 124.81 100.248 124.918 104.187C125.477 124.083 134.19 152.11 134.19 152.11Z" fill="#50FA7B"/>
<path d="M106.535 57.4045H115.045V70.6664C115.045 71.4267 114.743 72.1557 114.207 72.6933C113.67 73.2308 112.943 73.5328 112.184 73.5328H109.412C108.653 73.5328 107.925 73.2308 107.389 72.6933C106.852 72.1557 106.551 71.4267 106.551 70.6664V57.4045H106.535Z" fill="#FDB797"/>
<path d="M129.244 81.8007L152.131 45.8337L140.583 17.5168L132.671 20.5743L139.054 44.6298C139.054 44.6298 129.937 69.1121 121.729 68.8987L129.244 81.8007Z" fill="#50FA7B"/>
<path opacity="0.1" d="M106.535 62.8317C109.303 63.7153 112.277 63.7153 115.045 62.8317V58.0161H106.535V62.8317Z" fill="black"/>
<path d="M110.788 62.8857C118.509 62.8857 124.768 56.6144 124.768 48.8785C124.768 41.1426 118.509 34.8713 110.788 34.8713C103.067 34.8713 96.8082 41.1426 96.8082 48.8785C96.8082 56.6144 103.067 62.8857 110.788 62.8857Z" fill="#FDB797"/>
<g opacity="0.1">
<path d="M99.8471 37.0052C99.8471 37.0052 101.974 50.4041 124.768 48.2702L123.856 40.3526L116.564 33.9509H108.055L99.8471 37.0052Z" fill="black"/>
</g>
<path d="M99.8471 36.6996C99.8471 36.6996 101.974 50.0984 124.768 47.9645L123.856 40.0469L116.561 33.6516H108.055L99.8471 36.6996Z" fill="#E3E354"/>
<path d="M125.074 51.0093C125.577 51.0093 125.986 50.1238 125.986 49.0315C125.986 47.9392 125.577 47.0537 125.074 47.0537C124.57 47.0537 124.161 47.9392 124.161 49.0315C124.161 50.1238 124.57 51.0093 125.074 51.0093Z" fill="#FDB797"/>
<path d="M96.8083 51.0093C97.3121 51.0093 97.7206 50.1238 97.7206 49.0315C97.7206 47.9392 97.3121 47.0537 96.8083 47.0537C96.3044 47.0537 95.896 47.9392 95.896 49.0315C95.896 50.1238 96.3044 51.0093 96.8083 51.0093Z" fill="#FDB797"/>
<path d="M92.3326 81.4983L69.4457 45.5313L80.9941 17.8228L88.8964 20.8675L82.5135 44.3147C82.5135 44.3147 91.6301 68.797 99.8376 68.5836L92.3326 81.4983Z" fill="#50FA7B"/>
<g opacity="0.1">
<path d="M123.856 92.4224C123.751 92.8077 125.172 93.209 125.083 93.6167C124.422 96.636 124.209 100.257 124.317 104.197C124.854 123.673 133.217 150.929 133.567 152.063L134.203 152.104C134.203 152.104 125.49 124.077 124.94 104.197C124.832 100.257 125.042 96.636 125.706 93.6167C125.795 93.209 125.891 92.8109 125.999 92.4224H123.856Z" fill="black"/>
</g>
<path opacity="0.1" d="M124.927 104.503L93.1559 102.872C95.0822 99.3879 96.7701 96.2539 96.3346 93.9226C96.3346 93.9226 105.632 100.292 125.681 93.9226C125.029 96.9419 124.816 100.563 124.927 104.503Z" fill="black"/>
<g opacity="0.1">
<path d="M90.7369 109.169C91.7205 106.905 92.8349 104.7 94.0746 102.566C96.0009 99.082 97.6888 95.948 97.2533 93.6167C97.177 93.1899 99.6628 93.0307 99.2273 93.0307C98.3086 93.0307 96.7956 92.4224 95.8896 92.4224C95.4573 92.4224 96.2647 93.1899 96.3378 93.6167C96.7606 95.948 95.0663 99.082 93.1591 102.566C91.9194 104.7 90.805 106.905 89.8214 109.169C85.1487 120.612 85.8703 121.045 91.3409 150.276C91.3409 150.276 91.6428 150.136 92.1864 149.919C86.7826 121.045 86.0832 120.58 90.7369 109.169Z" fill="black"/>
</g>
<path d="M124.927 104.197L93.1559 102.569C95.0822 99.0852 96.7701 95.9512 96.3346 93.6199C96.3346 93.6199 101.052 96.9927 109.863 94.5562C114.727 96.9927 119.126 95.6996 125.677 93.6199C125.029 96.636 124.816 100.257 124.927 104.197Z" fill="#535461"/>
<path opacity="0.1" d="M92.4025 81.613L93.7694 79.9377L96.6557 80.0906C95.8797 80.0295 95.0996 80.1335 94.3665 80.3959C93.6335 80.6583 92.9642 81.073 92.4025 81.613Z" fill="black"/>
<path opacity="0.1" d="M129.479 81.6128L127.655 79.7847L125.223 80.1032C125.999 80.0399 126.779 80.1417 127.512 80.4018C128.246 80.662 128.916 81.0747 129.479 81.6128Z" fill="black"/>
<path opacity="0.1" d="M113.525 137.438L114.739 137.489L114.889 137.132L113.525 137.119V137.438Z" fill="black"/>
<path opacity="0.1" d="M81.0068 17.8195L81.1562 17.3386L89.0967 20.5681L88.9091 20.8675L81.0068 17.8195Z" fill="black"/>
<path opacity="0.1" d="M140.411 17.2781L132.407 20.4407L132.671 20.5617L140.573 17.5169L140.411 17.2781Z" fill="black"/>
<path opacity="0.1" d="M82.5262 44.3114L88.9091 20.8643H87.9969L81.614 44.3114C81.614 44.3114 90.7306 68.7937 98.938 68.5803H99.8503C91.6301 68.7969 82.5262 44.3114 82.5262 44.3114Z" fill="black"/>
<path opacity="0.1" d="M139.054 44.9229L132.671 20.8674H133.589L139.972 44.9229C139.972 44.9229 130.856 69.4052 122.648 69.1918H121.736C129.934 69.4052 139.054 44.9229 139.054 44.9229Z" fill="black"/>
<path d="M187.65 220.799C190.843 220.799 193.432 214.431 193.432 206.575C193.432 198.72 190.843 192.352 187.65 192.352C184.457 192.352 181.868 198.72 181.868 206.575C181.868 214.431 184.457 220.799 187.65 220.799Z" fill="url(#paint1_linear_234_3164)"/>
<path d="M208.69 224.025L166.629 223.771V223.06C166.629 215.496 172.745 213.968 180.298 213.964H195.018C202.568 213.964 208.687 215.484 208.687 223.048L208.69 224.025Z" fill="url(#paint2_linear_234_3164)"/>
<path d="M162.948 177.357L161.228 177.233C153.615 176.685 148.316 173.987 145.471 169.21C140.036 160.085 145.847 146.916 146.107 146.355L146.565 145.336H165.319L162.948 177.357ZM148.847 148.798C147.687 151.865 144.715 161.171 148.453 167.446C150.481 170.844 154.283 172.914 159.769 173.612L161.594 148.792L148.847 148.798Z" fill="url(#paint3_linear_234_3164)"/>
<path d="M211.805 177.338L209.424 145.314H228.179L228.637 146.333C228.888 146.89 234.708 160.057 229.272 169.185C226.431 173.962 221.132 176.666 213.522 177.22L211.805 177.338ZM213.147 148.773L214.994 173.589C220.48 172.889 224.279 170.815 226.307 167.414C230.045 161.137 227.06 151.833 225.897 148.766L213.147 148.773Z" fill="url(#paint4_linear_234_3164)"/>
<path d="M187.386 203.941C180.485 203.944 173.865 201.2 168.983 196.312C164.1 191.425 161.356 184.794 161.352 177.879L161.333 136.53L213.376 136.504L213.395 177.854C213.398 184.769 210.66 191.402 205.782 196.294C200.905 201.186 194.288 203.937 187.386 203.941Z" fill="url(#paint5_linear_234_3164)"/>
<path d="M189.459 122.87H184.516C180.127 122.87 176.569 126.435 176.569 130.832V143.556C176.569 147.953 180.127 151.518 184.516 151.518H189.459C193.848 151.518 197.406 147.953 197.406 143.556V130.832C197.406 126.435 193.848 122.87 189.459 122.87Z" fill="#F9D075"/>
<path d="M176.184 119.23C176.184 119.23 173.819 114.933 174.98 110.821C174.98 110.821 179.977 109.481 183.368 113.414L176.184 119.23Z" fill="#F9D075"/>
<path d="M176.912 118.125C176.912 118.125 175.154 114.94 176.016 111.869C176.016 111.869 179.732 110.873 182.256 113.8L176.912 118.125Z" fill="#FFE9A1"/>
<path d="M198.397 118.125C198.397 118.125 200.155 114.94 199.294 111.869C199.294 111.869 195.578 110.873 193.054 113.8L198.397 118.125Z" fill="#FFE9A1"/>
<path d="M199.122 119.23C199.122 119.23 201.487 114.933 200.327 110.821C200.327 110.821 195.33 109.481 191.938 113.414L199.122 119.23Z" fill="#F9D075"/>
<path d="M198.397 118.125C198.397 118.125 200.155 114.94 199.294 111.869C199.294 111.869 195.578 110.873 193.054 113.8L198.397 118.125Z" fill="#FFE9A1"/>
<path d="M200.324 124.402C200.324 124.742 200.309 125.079 200.279 125.415C199.742 131.657 194.294 136.562 187.653 136.562C181.709 136.562 176.718 132.632 175.352 127.326C175.106 126.369 174.982 125.386 174.983 124.399C174.983 117.685 180.657 112.239 187.653 112.239C194.65 112.239 200.324 117.694 200.324 124.402Z" fill="#F9D075"/>
<path d="M176.858 130.221L175.905 128.163H171.963L174.188 130.132L172.583 130.667C172.583 130.667 185.876 144.97 202.027 130.667L200.778 130.221L202.743 128.523L201.296 128.163L201.83 127.09L199.675 127.179L197.189 131.826L188.899 135.495L176.858 130.221Z" fill="#FFE9A1"/>
<path d="M192.205 126.823C192.846 126.823 193.365 126.302 193.365 125.66C193.365 125.018 192.846 124.498 192.205 124.498C191.564 124.498 191.045 125.018 191.045 125.66C191.045 126.302 191.564 126.823 192.205 126.823Z" fill="#2B1F0E"/>
<path d="M182.748 126.823C183.389 126.823 183.909 126.302 183.909 125.66C183.909 125.018 183.389 124.498 182.748 124.498C182.108 124.498 181.588 125.018 181.588 125.66C181.588 126.302 182.108 126.823 182.748 126.823Z" fill="#2B1F0E"/>
<path d="M200.282 125.421C199.745 131.664 194.297 136.568 187.656 136.568C181.712 136.568 176.722 132.638 175.355 127.332C175.99 127.912 176.559 128.753 177.068 129.3C177.437 129.736 177.865 130.119 178.34 130.437C179.118 130.915 180.066 131.027 180.978 131.074C181.801 131.106 182.717 131.055 183.305 130.476C183.893 129.896 183.96 129.052 184.297 128.332C184.556 127.813 184.935 127.364 185.403 127.023C185.871 126.681 186.414 126.456 186.986 126.367C188.141 126.204 189.314 126.493 190.263 127.173C190.52 127.341 190.742 127.557 190.918 127.81C191.101 128.159 191.251 128.525 191.366 128.902C192.1 130.686 194.472 131.402 196.261 130.689C198.051 129.976 199.237 128.176 199.678 126.297C199.761 125.924 199.936 125.459 200.282 125.421Z" fill="#FFE9A1"/>
<path d="M187.475 131.383L186.941 131.918C187.094 131.993 187.262 132.032 187.432 132.032C187.602 132.032 187.77 131.993 187.923 131.918L187.475 131.383Z" fill="#E3E354"/>
<path d="M200.324 123.067H174.983V123.962H200.324V123.067Z" fill="#535461"/>
<path d="M180.069 123.962H174.983V128.702H180.069V123.962Z" fill="#535461"/>
<path opacity="0.2" d="M180.024 123.918H185.914V124.915C185.914 125.764 185.578 126.579 184.978 127.18C184.378 127.781 183.565 128.119 182.717 128.119H180.027V123.918H180.024Z" fill="#535461"/>
<path d="M174.547 123.067H175.148V128.698H174.535C174.275 128.698 174.019 128.647 173.779 128.548C173.54 128.448 173.322 128.303 173.139 128.119C172.955 127.935 172.81 127.717 172.711 127.477C172.612 127.237 172.561 126.98 172.561 126.72V125.042C172.561 124.782 172.612 124.525 172.711 124.285C172.81 124.045 172.955 123.827 173.139 123.644C173.322 123.46 173.54 123.314 173.779 123.215C174.019 123.115 174.275 123.064 174.535 123.064L174.547 123.067Z" fill="#535461"/>
<path d="M184.932 131.695C184.932 131.695 187.431 132.858 187.431 129.909" stroke="#2B1F0E" stroke-width="2" stroke-miterlimit="10" stroke-linecap="round"/>
<path d="M189.929 131.695C189.929 131.695 187.431 132.858 187.431 129.909" stroke="#2B1F0E" stroke-width="2" stroke-miterlimit="10" stroke-linecap="round"/>
<path d="M187.475 129.95C188.018 129.95 188.457 129.39 188.457 128.698C188.457 128.007 188.018 127.447 187.475 127.447C186.933 127.447 186.493 128.007 186.493 128.698C186.493 129.39 186.933 129.95 187.475 129.95Z" fill="#E3E354"/>
<path d="M187.644 219.535C190.733 219.535 193.238 213.375 193.238 205.776C193.238 198.177 190.733 192.017 187.644 192.017C184.554 192.017 182.049 198.177 182.049 205.776C182.049 213.375 184.554 219.535 187.644 219.535Z" fill="#CFD8DC"/>
<path d="M163.746 177.513L162.084 177.392C154.722 176.863 149.591 174.252 146.826 169.631C141.568 160.802 147.188 148.062 147.43 147.524L147.871 146.537H166.006L163.746 177.513ZM150.093 149.881C148.971 152.846 146.091 161.85 149.712 167.92C151.673 171.207 155.351 173.21 160.659 173.886L162.424 149.881H150.093Z" fill="#CFD8DC"/>
<path d="M211.007 177.491L208.703 146.511H226.837L227.282 147.499C227.524 148.037 233.157 160.773 227.918 169.605C225.172 174.226 220.044 176.841 212.683 177.379L211.007 177.491ZM212.304 149.859L214.091 173.867C219.396 173.188 223.074 171.182 225.032 167.892C228.649 161.818 225.76 152.821 224.635 149.852L212.304 149.859Z" fill="#CFD8DC"/>
<g opacity="0.1">
<path d="M147.7 170.392C142.442 161.563 148.062 148.824 148.304 148.285L148.746 147.298H161.381L161.435 146.582H147.884L147.442 147.569C147.201 148.107 141.581 160.85 146.838 169.675C147.73 171.174 148.898 172.488 150.281 173.548C149.268 172.631 148.398 171.567 147.7 170.392Z" fill="white"/>
</g>
<path opacity="0.05" d="M212.536 146.511L213.337 146.55L213.267 149.817L212.539 149.859L212.536 146.511Z" fill="black"/>
<path opacity="0.05" d="M162.204 146.534H161.34V149.881H162.204V146.534Z" fill="black"/>
<path opacity="0.1" d="M187.628 193.024C184.97 193.024 182.748 197.584 182.179 203.696C183.889 204.055 185.63 204.235 187.377 204.234C189.293 204.239 191.204 204.026 193.073 203.598C192.494 197.527 190.279 193.02 187.628 193.024Z" fill="black"/>
<path d="M162.198 138.005H212.549V178.004C212.549 181.316 211.898 184.596 210.633 187.657C209.367 190.717 207.513 193.498 205.175 195.84C202.838 198.182 200.062 200.04 197.008 201.308C193.953 202.576 190.68 203.228 187.373 203.228C180.697 203.228 174.293 200.57 169.572 195.84C164.85 191.11 162.198 184.694 162.198 178.004V138.005Z" fill="#CFD8DC"/>
<path opacity="0.1" d="M164.223 178.242L164.207 138.243H162.198L162.214 178.242C162.217 184.932 164.872 191.346 169.595 196.074C174.318 200.802 180.723 203.457 187.399 203.454C187.736 203.454 188.07 203.454 188.403 203.432C181.906 203.175 175.76 200.409 171.253 195.714C166.745 191.018 164.226 184.757 164.223 178.242Z" fill="white"/>
<path opacity="0.1" d="M192.431 213.738H182.86C183.842 217.71 185.619 220.363 187.647 220.36C189.675 220.356 191.442 217.719 192.431 213.738Z" fill="black"/>
<path d="M207.994 222.965L167.306 222.981C167.306 216.315 172.71 214.092 179.347 214.092H195.94C202.593 214.092 207.991 216.321 207.991 222.971L207.994 222.965Z" fill="#CFD8DC"/>
<path opacity="0.1" d="M182.103 212.913H180.514C173.203 212.913 167.293 215.665 167.297 222.984H168.886C168.873 215.665 174.798 212.917 182.103 212.913Z" fill="white"/>
<path d="M187.167 177.669C192.736 177.669 197.25 173.146 197.25 167.567C197.25 161.987 192.736 157.464 187.167 157.464C181.598 157.464 177.084 161.987 177.084 167.567C177.084 173.146 181.598 177.669 187.167 177.669Z" fill="#171818"/>
<mask id="path-69-outside-1_234_3164" maskUnits="userSpaceOnUse" x="163" y="144" width="49" height="11" fill="black">
<rect fill="white" x="163" y="144" width="49" height="11"/>
<path d="M166.408 153C166.232 153 166.069 152.957 165.92 152.872C165.776 152.787 165.661 152.672 165.576 152.528C165.491 152.379 165.448 152.216 165.448 152.04V148.2C165.448 148.024 165.491 147.864 165.576 147.72C165.661 147.571 165.776 147.453 165.92 147.368C166.069 147.283 166.232 147.24 166.408 147.24H171.192V147.888H166.408C166.323 147.888 166.248 147.92 166.184 147.984C166.125 148.043 166.096 148.115 166.096 148.2V152.04C166.096 152.125 166.125 152.2 166.184 152.264C166.248 152.323 166.323 152.352 166.408 152.352H171.192V153H166.408ZM172.954 153C172.778 153 172.615 152.957 172.466 152.872C172.322 152.781 172.205 152.664 172.114 152.52C172.029 152.371 171.986 152.208 171.986 152.032V149.328C171.986 149.152 172.029 148.992 172.114 148.848C172.205 148.699 172.322 148.581 172.466 148.496C172.615 148.405 172.778 148.36 172.954 148.36H175.738C175.919 148.36 176.082 148.405 176.226 148.496C176.375 148.581 176.493 148.699 176.578 148.848C176.669 148.992 176.714 149.152 176.714 149.328V152.032C176.714 152.208 176.669 152.371 176.578 152.52C176.493 152.664 176.375 152.781 176.226 152.872C176.082 152.957 175.919 153 175.738 153H172.954ZM172.954 152.344H175.738C175.823 152.344 175.895 152.315 175.954 152.256C176.018 152.192 176.05 152.117 176.05 152.032V149.328C176.05 149.243 176.018 149.171 175.954 149.112C175.895 149.048 175.823 149.016 175.738 149.016H172.954C172.869 149.016 172.794 149.048 172.73 149.112C172.671 149.171 172.642 149.243 172.642 149.328V152.032C172.642 152.117 172.671 152.192 172.73 152.256C172.794 152.315 172.869 152.344 172.954 152.344ZM178.277 153C178.096 153 177.931 152.957 177.781 152.872C177.637 152.781 177.52 152.664 177.429 152.52C177.344 152.371 177.301 152.208 177.301 152.032V149.328C177.301 149.152 177.344 148.992 177.429 148.848C177.52 148.699 177.637 148.581 177.781 148.496C177.931 148.405 178.096 148.36 178.277 148.36H181.373V146.84H182.029V153H178.277ZM178.277 152.344H181.061C181.147 152.344 181.219 152.315 181.277 152.256C181.341 152.192 181.373 152.117 181.373 152.032V149.328C181.373 149.243 181.341 149.171 181.277 149.112C181.219 149.048 181.147 149.016 181.061 149.016H178.277C178.192 149.016 178.117 149.048 178.053 149.112C177.995 149.171 177.965 149.243 177.965 149.328V152.032C177.965 152.117 177.995 152.192 178.053 152.256C178.117 152.315 178.192 152.344 178.277 152.344ZM183.673 153C183.497 153 183.334 152.957 183.185 152.872C183.041 152.781 182.924 152.664 182.833 152.52C182.748 152.371 182.705 152.208 182.705 152.032V149.328C182.705 149.152 182.748 148.992 182.833 148.848C182.924 148.699 183.041 148.581 183.185 148.496C183.334 148.405 183.497 148.36 183.673 148.36H186.457C186.638 148.36 186.801 148.405 186.945 148.496C187.094 148.581 187.212 148.699 187.297 148.848C187.388 148.992 187.433 149.152 187.433 149.328V151.008H183.361V152.032C183.361 152.117 183.39 152.192 183.449 152.256C183.513 152.315 183.588 152.344 183.673 152.344H187.433V153H183.673ZM183.361 150.352H186.769V149.328C186.769 149.243 186.737 149.171 186.673 149.112C186.614 149.048 186.542 149.016 186.457 149.016H183.673C183.588 149.016 183.513 149.048 183.449 149.112C183.39 149.171 183.361 149.243 183.361 149.328V150.352Z"/>
<path d="M188.292 153V147.232H188.94V152.352H194.052V153H188.292ZM195.454 153C195.278 153 195.116 152.957 194.966 152.872C194.822 152.781 194.705 152.664 194.614 152.52C194.529 152.371 194.486 152.208 194.486 152.032V150.352H198.55V149.328C198.55 149.243 198.518 149.171 198.454 149.112C198.396 149.048 198.324 149.016 198.238 149.016H194.486V148.36H198.238C198.42 148.36 198.582 148.405 198.726 148.496C198.876 148.581 198.993 148.699 199.078 148.848C199.169 148.992 199.214 149.152 199.214 149.328V153H195.454ZM195.454 152.344H198.55V151.008H195.142V152.032C195.142 152.117 195.172 152.192 195.23 152.256C195.294 152.315 195.369 152.344 195.454 152.344ZM199.854 153V146.84H200.51V148.36H203.614C203.79 148.36 203.95 148.405 204.094 148.496C204.243 148.581 204.361 148.699 204.446 148.848C204.537 148.992 204.582 149.152 204.582 149.328V152.032C204.582 152.208 204.537 152.371 204.446 152.52C204.361 152.664 204.243 152.781 204.094 152.872C203.95 152.957 203.79 153 203.614 153H199.854ZM200.83 152.344H203.614C203.699 152.344 203.771 152.315 203.83 152.256C203.894 152.192 203.926 152.117 203.926 152.032V149.328C203.926 149.243 203.894 149.171 203.83 149.112C203.771 149.048 203.699 149.016 203.614 149.016H200.83C200.745 149.016 200.67 149.048 200.606 149.112C200.542 149.171 200.51 149.243 200.51 149.328V152.032C200.51 152.117 200.542 152.192 200.606 152.256C200.67 152.315 200.745 152.344 200.83 152.344ZM206.11 153C205.934 153 205.771 152.957 205.622 152.872C205.478 152.781 205.36 152.664 205.27 152.52C205.184 152.371 205.142 152.208 205.142 152.032V151.968H205.798V152.032C205.798 152.117 205.827 152.192 205.886 152.256C205.95 152.315 206.024 152.344 206.11 152.344H208.894C208.979 152.344 209.051 152.315 209.11 152.256C209.174 152.192 209.206 152.117 209.206 152.032V151.32C209.206 151.235 209.174 151.163 209.11 151.104C209.051 151.04 208.979 151.008 208.894 151.008H206.11C205.934 151.008 205.771 150.965 205.622 150.88C205.478 150.789 205.36 150.672 205.27 150.528C205.184 150.379 205.142 150.216 205.142 150.04V149.328C205.142 149.152 205.184 148.992 205.27 148.848C205.36 148.699 205.478 148.581 205.622 148.496C205.771 148.405 205.934 148.36 206.11 148.36H208.894C209.075 148.36 209.238 148.405 209.382 148.496C209.531 148.581 209.648 148.699 209.734 148.848C209.824 148.992 209.87 149.152 209.87 149.328V149.392H209.206V149.328C209.206 149.243 209.174 149.171 209.11 149.112C209.051 149.048 208.979 149.016 208.894 149.016H206.11C206.024 149.016 205.95 149.048 205.886 149.112C205.827 149.171 205.798 149.243 205.798 149.328V150.04C205.798 150.125 205.827 150.2 205.886 150.264C205.95 150.323 206.024 150.352 206.11 150.352H208.894C209.075 150.352 209.238 150.397 209.382 150.488C209.531 150.573 209.648 150.691 209.734 150.84C209.824 150.984 209.87 151.144 209.87 151.32V152.032C209.87 152.208 209.824 152.371 209.734 152.52C209.648 152.664 209.531 152.781 209.382 152.872C209.238 152.957 209.075 153 208.894 153H206.11Z"/>
</mask>
<path d="M166.408 153C166.232 153 166.069 152.957 165.92 152.872C165.776 152.787 165.661 152.672 165.576 152.528C165.491 152.379 165.448 152.216 165.448 152.04V148.2C165.448 148.024 165.491 147.864 165.576 147.72C165.661 147.571 165.776 147.453 165.92 147.368C166.069 147.283 166.232 147.24 166.408 147.24H171.192V147.888H166.408C166.323 147.888 166.248 147.92 166.184 147.984C166.125 148.043 166.096 148.115 166.096 148.2V152.04C166.096 152.125 166.125 152.2 166.184 152.264C166.248 152.323 166.323 152.352 166.408 152.352H171.192V153H166.408ZM172.954 153C172.778 153 172.615 152.957 172.466 152.872C172.322 152.781 172.205 152.664 172.114 152.52C172.029 152.371 171.986 152.208 171.986 152.032V149.328C171.986 149.152 172.029 148.992 172.114 148.848C172.205 148.699 172.322 148.581 172.466 148.496C172.615 148.405 172.778 148.36 172.954 148.36H175.738C175.919 148.36 176.082 148.405 176.226 148.496C176.375 148.581 176.493 148.699 176.578 148.848C176.669 148.992 176.714 149.152 176.714 149.328V152.032C176.714 152.208 176.669 152.371 176.578 152.52C176.493 152.664 176.375 152.781 176.226 152.872C176.082 152.957 175.919 153 175.738 153H172.954ZM172.954 152.344H175.738C175.823 152.344 175.895 152.315 175.954 152.256C176.018 152.192 176.05 152.117 176.05 152.032V149.328C176.05 149.243 176.018 149.171 175.954 149.112C175.895 149.048 175.823 149.016 175.738 149.016H172.954C172.869 149.016 172.794 149.048 172.73 149.112C172.671 149.171 172.642 149.243 172.642 149.328V152.032C172.642 152.117 172.671 152.192 172.73 152.256C172.794 152.315 172.869 152.344 172.954 152.344ZM178.277 153C178.096 153 177.931 152.957 177.781 152.872C177.637 152.781 177.52 152.664 177.429 152.52C177.344 152.371 177.301 152.208 177.301 152.032V149.328C177.301 149.152 177.344 148.992 177.429 148.848C177.52 148.699 177.637 148.581 177.781 148.496C177.931 148.405 178.096 148.36 178.277 148.36H181.373V146.84H182.029V153H178.277ZM178.277 152.344H181.061C181.147 152.344 181.219 152.315 181.277 152.256C181.341 152.192 181.373 152.117 181.373 152.032V149.328C181.373 149.243 181.341 149.171 181.277 149.112C181.219 149.048 181.147 149.016 181.061 149.016H178.277C178.192 149.016 178.117 149.048 178.053 149.112C177.995 149.171 177.965 149.243 177.965 149.328V152.032C177.965 152.117 177.995 152.192 178.053 152.256C178.117 152.315 178.192 152.344 178.277 152.344ZM183.673 153C183.497 153 183.334 152.957 183.185 152.872C183.041 152.781 182.924 152.664 182.833 152.52C182.748 152.371 182.705 152.208 182.705 152.032V149.328C182.705 149.152 182.748 148.992 182.833 148.848C182.924 148.699 183.041 148.581 183.185 148.496C183.334 148.405 183.497 148.36 183.673 148.36H186.457C186.638 148.36 186.801 148.405 186.945 148.496C187.094 148.581 187.212 148.699 187.297 148.848C187.388 148.992 187.433 149.152 187.433 149.328V151.008H183.361V152.032C183.361 152.117 183.39 152.192 183.449 152.256C183.513 152.315 183.588 152.344 183.673 152.344H187.433V153H183.673ZM183.361 150.352H186.769V149.328C186.769 149.243 186.737 149.171 186.673 149.112C186.614 149.048 186.542 149.016 186.457 149.016H183.673C183.588 149.016 183.513 149.048 183.449 149.112C183.39 149.171 183.361 149.243 183.361 149.328V150.352Z" fill="#50FA7B"/>
<path d="M188.292 153V147.232H188.94V152.352H194.052V153H188.292ZM195.454 153C195.278 153 195.116 152.957 194.966 152.872C194.822 152.781 194.705 152.664 194.614 152.52C194.529 152.371 194.486 152.208 194.486 152.032V150.352H198.55V149.328C198.55 149.243 198.518 149.171 198.454 149.112C198.396 149.048 198.324 149.016 198.238 149.016H194.486V148.36H198.238C198.42 148.36 198.582 148.405 198.726 148.496C198.876 148.581 198.993 148.699 199.078 148.848C199.169 148.992 199.214 149.152 199.214 149.328V153H195.454ZM195.454 152.344H198.55V151.008H195.142V152.032C195.142 152.117 195.172 152.192 195.23 152.256C195.294 152.315 195.369 152.344 195.454 152.344ZM199.854 153V146.84H200.51V148.36H203.614C203.79 148.36 203.95 148.405 204.094 148.496C204.243 148.581 204.361 148.699 204.446 148.848C204.537 148.992 204.582 149.152 204.582 149.328V152.032C204.582 152.208 204.537 152.371 204.446 152.52C204.361 152.664 204.243 152.781 204.094 152.872C203.95 152.957 203.79 153 203.614 153H199.854ZM200.83 152.344H203.614C203.699 152.344 203.771 152.315 203.83 152.256C203.894 152.192 203.926 152.117 203.926 152.032V149.328C203.926 149.243 203.894 149.171 203.83 149.112C203.771 149.048 203.699 149.016 203.614 149.016H200.83C200.745 149.016 200.67 149.048 200.606 149.112C200.542 149.171 200.51 149.243 200.51 149.328V152.032C200.51 152.117 200.542 152.192 200.606 152.256C200.67 152.315 200.745 152.344 200.83 152.344ZM206.11 153C205.934 153 205.771 152.957 205.622 152.872C205.478 152.781 205.36 152.664 205.27 152.52C205.184 152.371 205.142 152.208 205.142 152.032V151.968H205.798V152.032C205.798 152.117 205.827 152.192 205.886 152.256C205.95 152.315 206.024 152.344 206.11 152.344H208.894C208.979 152.344 209.051 152.315 209.11 152.256C209.174 152.192 209.206 152.117 209.206 152.032V151.32C209.206 151.235 209.174 151.163 209.11 151.104C209.051 151.04 208.979 151.008 208.894 151.008H206.11C205.934 151.008 205.771 150.965 205.622 150.88C205.478 150.789 205.36 150.672 205.27 150.528C205.184 150.379 205.142 150.216 205.142 150.04V149.328C205.142 149.152 205.184 148.992 205.27 148.848C205.36 148.699 205.478 148.581 205.622 148.496C205.771 148.405 205.934 148.36 206.11 148.36H208.894C209.075 148.36 209.238 148.405 209.382 148.496C209.531 148.581 209.648 148.699 209.734 148.848C209.824 148.992 209.87 149.152 209.87 149.328V149.392H209.206V149.328C209.206 149.243 209.174 149.171 209.11 149.112C209.051 149.048 208.979 149.016 208.894 149.016H206.11C206.024 149.016 205.95 149.048 205.886 149.112C205.827 149.171 205.798 149.243 205.798 149.328V150.04C205.798 150.125 205.827 150.2 205.886 150.264C205.95 150.323 206.024 150.352 206.11 150.352H208.894C209.075 150.352 209.238 150.397 209.382 150.488C209.531 150.573 209.648 150.691 209.734 150.84C209.824 150.984 209.87 151.144 209.87 151.32V152.032C209.87 152.208 209.824 152.371 209.734 152.52C209.648 152.664 209.531 152.781 209.382 152.872C209.238 152.957 209.075 153 208.894 153H206.11Z" fill="#F8F8F2"/>
<path d="M165.92 152.872L164.9 154.593L164.914 154.601L164.928 154.608L165.92 152.872ZM165.576 152.528L163.84 153.52L163.847 153.534L163.855 153.548L165.576 152.528ZM165.576 147.72L167.297 148.74L167.305 148.726L167.312 148.712L165.576 147.72ZM165.92 147.368L164.928 145.632L164.914 145.639L164.9 145.647L165.92 147.368ZM171.192 147.24H173.192V145.24H171.192V147.24ZM171.192 147.888V149.888H173.192V147.888H171.192ZM166.184 147.984L167.598 149.398L167.598 149.398L166.184 147.984ZM166.184 152.264L164.71 153.615L164.768 153.68L164.833 153.738L166.184 152.264ZM171.192 152.352H173.192V150.352H171.192V152.352ZM171.192 153V155H173.192V153H171.192ZM166.408 151C166.572 151 166.752 151.044 166.912 151.136L164.928 154.608C165.387 154.871 165.892 155 166.408 155V151ZM166.94 151.151C167.084 151.237 167.211 151.364 167.297 151.508L163.855 153.548C164.112 153.98 164.468 154.336 164.9 154.593L166.94 151.151ZM167.312 151.536C167.404 151.696 167.448 151.876 167.448 152.04H163.448C163.448 152.556 163.577 153.061 163.84 153.52L167.312 151.536ZM167.448 152.04V148.2H163.448V152.04H167.448ZM167.448 148.2C167.448 148.364 167.404 148.559 167.297 148.74L163.855 146.7C163.578 147.169 163.448 147.684 163.448 148.2H167.448ZM167.312 148.712C167.231 148.855 167.102 148.992 166.94 149.089L164.9 145.647C164.45 145.914 164.092 146.286 163.84 146.728L167.312 148.712ZM166.912 149.104C166.752 149.196 166.572 149.24 166.408 149.24V145.24C165.892 145.24 165.387 145.369 164.928 145.632L166.912 149.104ZM166.408 149.24H171.192V145.24H166.408V149.24ZM169.192 147.24V147.888H173.192V147.24H169.192ZM171.192 145.888H166.408V149.888H171.192V145.888ZM166.408 145.888C165.758 145.888 165.184 146.156 164.77 146.57L167.598 149.398C167.471 149.526 167.298 149.655 167.076 149.75C166.852 149.846 166.622 149.888 166.408 149.888V145.888ZM164.77 146.57C164.324 147.015 164.096 147.601 164.096 148.2H168.096C168.096 148.391 168.062 148.611 167.97 148.837C167.878 149.064 167.745 149.252 167.598 149.398L164.77 146.57ZM164.096 148.2V152.04H168.096V148.2H164.096ZM164.096 152.04C164.096 152.635 164.319 153.19 164.71 153.615L167.658 150.913C167.781 151.047 167.897 151.219 167.98 151.429C168.062 151.639 168.096 151.848 168.096 152.04H164.096ZM164.833 153.738C165.258 154.129 165.813 154.352 166.408 154.352V150.352C166.6 150.352 166.809 150.386 167.019 150.468C167.229 150.551 167.401 150.667 167.535 150.79L164.833 153.738ZM166.408 154.352H171.192V150.352H166.408V154.352ZM169.192 152.352V153H173.192V152.352H169.192ZM171.192 151H166.408V155H171.192V151ZM172.466 152.872L171.4 154.564L171.437 154.587L171.474 154.608L172.466 152.872ZM172.114 152.52L170.378 153.512L170.399 153.549L170.422 153.586L172.114 152.52ZM172.114 148.848L170.405 147.81L170.399 147.819L170.394 147.828L172.114 148.848ZM172.466 148.496L173.486 150.217L173.495 150.211L173.504 150.206L172.466 148.496ZM176.226 148.496L175.16 150.188L175.197 150.211L175.234 150.232L176.226 148.496ZM176.578 148.848L174.842 149.84L174.863 149.877L174.886 149.914L176.578 148.848ZM176.578 152.52L174.869 151.482L174.863 151.491L174.858 151.5L176.578 152.52ZM176.226 152.872L177.246 154.593L177.255 154.587L177.264 154.582L176.226 152.872ZM175.954 152.256L177.368 153.67L177.368 153.67L175.954 152.256ZM175.954 149.112L174.48 150.463L174.539 150.528L174.603 150.586L175.954 149.112ZM172.73 149.112L174.144 150.526L172.73 149.112ZM172.73 152.256L171.256 153.607L171.315 153.672L171.379 153.73L172.73 152.256ZM172.954 151C173.118 151 173.298 151.044 173.458 151.136L171.474 154.608C171.933 154.871 172.439 155 172.954 155V151ZM173.532 151.18C173.641 151.248 173.738 151.345 173.807 151.454L170.422 153.586C170.672 153.983 171.003 154.314 171.4 154.564L173.532 151.18ZM173.851 151.528C173.942 151.688 173.986 151.868 173.986 152.032H169.986C169.986 152.548 170.115 153.053 170.378 153.512L173.851 151.528ZM173.986 152.032V149.328H169.986V152.032H173.986ZM173.986 149.328C173.986 149.492 173.942 149.687 173.835 149.868L170.394 147.828C170.116 148.297 169.986 148.812 169.986 149.328H173.986ZM173.824 149.886C173.752 150.005 173.637 150.127 173.486 150.217L171.447 146.775C171.007 147.036 170.658 147.393 170.405 147.81L173.824 149.886ZM173.504 150.206C173.338 150.306 173.141 150.36 172.954 150.36V146.36C172.415 146.36 171.893 146.504 171.428 146.786L173.504 150.206ZM172.954 150.36H175.738V146.36H172.954V150.36ZM175.738 150.36C175.568 150.36 175.357 150.312 175.16 150.188L177.292 146.804C176.807 146.499 176.271 146.36 175.738 146.36V150.36ZM175.234 150.232C175.073 150.141 174.933 150.001 174.842 149.84L178.315 147.856C178.052 147.396 177.678 147.022 177.218 146.76L175.234 150.232ZM174.886 149.914C174.768 149.727 174.714 149.515 174.714 149.328H178.714C178.714 148.789 178.569 148.257 178.271 147.782L174.886 149.914ZM174.714 149.328V152.032H178.714V149.328H174.714ZM174.714 152.032C174.714 151.845 174.768 151.648 174.869 151.482L178.288 153.558C178.57 153.093 178.714 152.571 178.714 152.032H174.714ZM174.858 151.5C174.947 151.349 175.069 151.234 175.188 151.162L177.264 154.582C177.681 154.328 178.039 153.979 178.299 153.54L174.858 151.5ZM175.207 151.151C175.397 151.039 175.592 151 175.738 151V155C176.247 155 176.768 154.876 177.246 154.593L175.207 151.151ZM175.738 151H172.954V155H175.738V151ZM172.954 154.344H175.738V150.344H172.954V154.344ZM175.738 154.344C176.337 154.344 176.923 154.116 177.368 153.67L174.54 150.842C174.686 150.695 174.874 150.562 175.102 150.47C175.328 150.378 175.547 150.344 175.738 150.344V154.344ZM177.368 153.67C177.782 153.256 178.05 152.682 178.05 152.032H174.05C174.05 151.818 174.092 151.588 174.188 151.364C174.283 151.142 174.413 150.969 174.54 150.842L177.368 153.67ZM178.05 152.032V149.328H174.05V152.032H178.05ZM178.05 149.328C178.05 148.671 177.775 148.068 177.306 147.638L174.603 150.586C174.453 150.449 174.305 150.262 174.199 150.022C174.092 149.782 174.05 149.542 174.05 149.328H178.05ZM177.428 147.761C176.998 147.291 176.395 147.016 175.738 147.016V151.016C175.524 151.016 175.284 150.974 175.044 150.868C174.804 150.761 174.617 150.613 174.48 150.463L177.428 147.761ZM175.738 147.016H172.954V151.016H175.738V147.016ZM172.954 147.016C172.304 147.016 171.73 147.284 171.316 147.698L174.144 150.526C174.017 150.654 173.844 150.783 173.622 150.878C173.398 150.974 173.168 151.016 172.954 151.016V147.016ZM171.316 147.698C170.87 148.143 170.642 148.729 170.642 149.328H174.642C174.642 149.519 174.608 149.739 174.516 149.965C174.424 150.192 174.291 150.38 174.144 150.526L171.316 147.698ZM170.642 149.328V152.032H174.642V149.328H170.642ZM170.642 152.032C170.642 152.627 170.866 153.182 171.256 153.607L174.204 150.905C174.327 151.039 174.443 151.211 174.526 151.421C174.608 151.631 174.642 151.84 174.642 152.032H170.642ZM171.379 153.73C171.804 154.121 172.359 154.344 172.954 154.344V150.344C173.146 150.344 173.355 150.378 173.565 150.46C173.775 150.543 173.947 150.659 174.082 150.782L171.379 153.73ZM177.781 152.872L176.716 154.564L176.752 154.587L176.789 154.608L177.781 152.872ZM177.429 152.52L175.693 153.512L175.714 153.549L175.737 153.586L177.429 152.52ZM177.429 148.848L175.72 147.81L175.714 147.819L175.709 147.828L177.429 148.848ZM177.781 148.496L178.801 150.217L178.81 150.211L178.819 150.206L177.781 148.496ZM181.373 148.36V150.36H183.373V148.36H181.373ZM181.373 146.84V144.84H179.373V146.84H181.373ZM182.029 146.84H184.029V144.84H182.029V146.84ZM182.029 153V155H184.029V153H182.029ZM181.277 152.256L182.691 153.67L182.691 153.67L181.277 152.256ZM181.277 149.112L179.803 150.463L179.862 150.528L179.926 150.586L181.277 149.112ZM178.053 149.112L176.639 147.698L176.639 147.698L178.053 149.112ZM178.053 152.256L176.579 153.607L176.638 153.672L176.702 153.73L178.053 152.256ZM178.277 151C178.424 151 178.604 151.039 178.773 151.136L176.789 154.608C177.257 154.876 177.767 155 178.277 155V151ZM178.847 151.18C178.956 151.248 179.053 151.345 179.122 151.454L175.737 153.586C175.987 153.983 176.318 154.314 176.716 154.564L178.847 151.18ZM179.166 151.528C179.257 151.688 179.301 151.868 179.301 152.032H175.301C175.301 152.548 175.431 153.053 175.693 153.512L179.166 151.528ZM179.301 152.032V149.328H175.301V152.032H179.301ZM179.301 149.328C179.301 149.492 179.257 149.687 179.15 149.868L175.709 147.828C175.431 148.297 175.301 148.812 175.301 149.328H179.301ZM179.139 149.886C179.067 150.005 178.952 150.127 178.801 150.217L176.762 146.775C176.323 147.036 175.973 147.393 175.72 147.81L179.139 149.886ZM178.819 150.206C178.643 150.312 178.447 150.36 178.277 150.36V146.36C177.744 146.36 177.218 146.498 176.743 146.786L178.819 150.206ZM178.277 150.36H181.373V146.36H178.277V150.36ZM183.373 148.36V146.84H179.373V148.36H183.373ZM181.373 148.84H182.029V144.84H181.373V148.84ZM180.029 146.84V153H184.029V146.84H180.029ZM182.029 151H178.277V155H182.029V151ZM178.277 154.344H181.061V150.344H178.277V154.344ZM181.061 154.344C181.66 154.344 182.246 154.116 182.691 153.67L179.863 150.842C180.009 150.695 180.197 150.562 180.425 150.47C180.651 150.378 180.87 150.344 181.061 150.344V154.344ZM182.691 153.67C183.105 153.256 183.373 152.682 183.373 152.032H179.373C179.373 151.818 179.415 151.588 179.511 151.364C179.606 151.142 179.736 150.969 179.863 150.842L182.691 153.67ZM183.373 152.032V149.328H179.373V152.032H183.373ZM183.373 149.328C183.373 148.671 183.098 148.068 182.629 147.638L179.926 150.586C179.776 150.449 179.628 150.262 179.522 150.022C179.415 149.782 179.373 149.542 179.373 149.328H183.373ZM182.751 147.761C182.322 147.291 181.718 147.016 181.061 147.016V151.016C180.848 151.016 180.607 150.974 180.367 150.868C180.127 150.761 179.94 150.613 179.803 150.463L182.751 147.761ZM181.061 147.016H178.277V151.016H181.061V147.016ZM178.277 147.016C177.627 147.016 177.053 147.284 176.639 147.698L179.467 150.526C179.34 150.654 179.167 150.783 178.945 150.878C178.721 150.974 178.491 151.016 178.277 151.016V147.016ZM176.639 147.698C176.193 148.143 175.965 148.729 175.965 149.328H179.965C179.965 149.519 179.931 149.739 179.839 149.965C179.747 150.192 179.614 150.38 179.467 150.526L176.639 147.698ZM175.965 149.328V152.032H179.965V149.328H175.965ZM175.965 152.032C175.965 152.627 176.189 153.182 176.579 153.607L179.527 150.905C179.651 151.039 179.766 151.211 179.849 151.421C179.931 151.631 179.965 151.84 179.965 152.032H175.965ZM176.702 153.73C177.127 154.121 177.682 154.344 178.277 154.344V150.344C178.469 150.344 178.678 150.378 178.888 150.46C179.098 150.543 179.27 150.659 179.405 150.782L176.702 153.73ZM183.185 152.872L182.119 154.564L182.155 154.587L182.193 154.608L183.185 152.872ZM182.833 152.52L181.096 153.512L181.118 153.549L181.14 153.586L182.833 152.52ZM182.833 148.848L181.123 147.81L181.118 147.819L181.112 147.828L182.833 148.848ZM183.185 148.496L184.204 150.217L184.214 150.211L184.223 150.206L183.185 148.496ZM186.945 148.496L185.879 150.188L185.915 150.211L185.953 150.232L186.945 148.496ZM187.297 148.848L185.56 149.84L185.582 149.877L185.604 149.914L187.297 148.848ZM187.433 151.008V153.008H189.433V151.008H187.433ZM183.361 151.008V149.008H181.361V151.008H183.361ZM183.449 152.256L181.975 153.607L182.033 153.672L182.097 153.73L183.449 152.256ZM187.433 152.344H189.433V150.344H187.433V152.344ZM187.433 153V155H189.433V153H187.433ZM183.361 150.352H181.361V152.352H183.361V150.352ZM186.769 150.352V152.352H188.769V150.352H186.769ZM186.673 149.112L185.199 150.463L185.257 150.528L185.321 150.586L186.673 149.112ZM183.449 149.112L184.863 150.526L183.449 149.112ZM183.673 151C183.836 151 184.017 151.044 184.177 151.136L182.193 154.608C182.651 154.871 183.157 155 183.673 155V151ZM184.251 151.18C184.36 151.248 184.457 151.345 184.525 151.454L181.14 153.586C181.391 153.983 181.722 154.314 182.119 154.564L184.251 151.18ZM184.569 151.528C184.661 151.688 184.705 151.868 184.705 152.032H180.705C180.705 152.548 180.834 153.053 181.096 153.512L184.569 151.528ZM184.705 152.032V149.328H180.705V152.032H184.705ZM184.705 149.328C184.705 149.492 184.661 149.687 184.553 149.868L181.112 147.828C180.834 148.297 180.705 148.812 180.705 149.328H184.705ZM184.542 149.886C184.47 150.005 184.356 150.127 184.204 150.217L182.165 146.775C181.726 147.036 181.377 147.393 181.123 147.81L184.542 149.886ZM184.223 150.206C184.057 150.306 183.86 150.36 183.673 150.36V146.36C183.134 146.36 182.612 146.504 182.147 146.786L184.223 150.206ZM183.673 150.36H186.457V146.36H183.673V150.36ZM186.457 150.36C186.287 150.36 186.076 150.312 185.879 150.188L188.011 146.804C187.526 146.499 186.989 146.36 186.457 146.36V150.36ZM185.953 150.232C185.792 150.141 185.652 150.001 185.56 149.84L189.033 147.856C188.771 147.396 188.397 147.022 187.937 146.76L185.953 150.232ZM185.604 149.914C185.487 149.727 185.433 149.515 185.433 149.328H189.433C189.433 148.789 189.288 148.257 188.989 147.782L185.604 149.914ZM185.433 149.328V151.008H189.433V149.328H185.433ZM187.433 149.008H183.361V153.008H187.433V149.008ZM181.361 151.008V152.032H185.361V151.008H181.361ZM181.361 152.032C181.361 152.627 181.584 153.182 181.975 153.607L184.923 150.905C185.046 151.039 185.162 151.211 185.244 151.421C185.327 151.631 185.361 151.84 185.361 152.032H181.361ZM182.097 153.73C182.523 154.121 183.078 154.344 183.673 154.344V150.344C183.864 150.344 184.074 150.378 184.284 150.46C184.494 150.543 184.666 150.659 184.8 150.782L182.097 153.73ZM183.673 154.344H187.433V150.344H183.673V154.344ZM185.433 152.344V153H189.433V152.344H185.433ZM187.433 151H183.673V155H187.433V151ZM183.361 152.352H186.769V148.352H183.361V152.352ZM188.769 150.352V149.328H184.769V150.352H188.769ZM188.769 149.328C188.769 148.671 188.493 148.068 188.024 147.638L185.321 150.586C185.172 150.449 185.024 150.262 184.917 150.022C184.81 149.782 184.769 149.542 184.769 149.328H188.769ZM188.147 147.761C187.717 147.291 187.114 147.016 186.457 147.016V151.016C186.243 151.016 186.003 150.974 185.763 150.868C185.523 150.761 185.336 150.613 185.199 150.463L188.147 147.761ZM186.457 147.016H183.673V151.016H186.457V147.016ZM183.673 147.016C183.022 147.016 182.448 147.284 182.035 147.698L184.863 150.526C184.736 150.654 184.563 150.783 184.341 150.878C184.117 150.974 183.887 151.016 183.673 151.016V147.016ZM182.035 147.698C181.589 148.143 181.361 148.729 181.361 149.328H185.361C185.361 149.519 185.327 149.739 185.235 149.965C185.143 150.192 185.009 150.38 184.863 150.526L182.035 147.698ZM181.361 149.328V150.352H185.361V149.328H181.361ZM188.292 153H186.292V155H188.292V153ZM188.292 147.232V145.232H186.292V147.232H188.292ZM188.94 147.232H190.94V145.232H188.94V147.232ZM188.94 152.352H186.94V154.352H188.94V152.352ZM194.052 152.352H196.052V150.352H194.052V152.352ZM194.052 153V155H196.052V153H194.052ZM190.292 153V147.232H186.292V153H190.292ZM188.292 149.232H188.94V145.232H188.292V149.232ZM186.94 147.232V152.352H190.94V147.232H186.94ZM188.94 154.352H194.052V150.352H188.94V154.352ZM192.052 152.352V153H196.052V152.352H192.052ZM194.052 151H188.292V155H194.052V151ZM194.966 152.872L193.901 154.564L193.937 154.587L193.974 154.608L194.966 152.872ZM194.614 152.52L192.878 153.512L192.899 153.549L192.922 153.586L194.614 152.52ZM194.486 150.352V148.352H192.486V150.352H194.486ZM198.55 150.352V152.352H200.55V150.352H198.55ZM198.454 149.112L196.98 150.463L197.039 150.528L197.103 150.586L198.454 149.112ZM194.486 149.016H192.486V151.016H194.486V149.016ZM194.486 148.36V146.36H192.486V148.36H194.486ZM198.726 148.496L197.661 150.188L197.697 150.211L197.734 150.232L198.726 148.496ZM199.078 148.848L197.342 149.84L197.363 149.877L197.386 149.914L199.078 148.848ZM199.214 153V155H201.214V153H199.214ZM198.55 152.344V154.344H200.55V152.344H198.55ZM198.55 151.008H200.55V149.008H198.55V151.008ZM195.142 151.008V149.008H193.142V151.008H195.142ZM195.23 152.256L193.756 153.607L193.815 153.672L193.879 153.73L195.23 152.256ZM195.454 151C195.618 151 195.798 151.044 195.959 151.136L193.974 154.608C194.433 154.871 194.939 155 195.454 155V151ZM196.032 151.18C196.141 151.248 196.238 151.345 196.307 151.454L192.922 153.586C193.172 153.983 193.503 154.314 193.901 154.564L196.032 151.18ZM196.351 151.528C196.442 151.688 196.486 151.868 196.486 152.032H192.486C192.486 152.548 192.616 153.053 192.878 153.512L196.351 151.528ZM196.486 152.032V150.352H192.486V152.032H196.486ZM194.486 152.352H198.55V148.352H194.486V152.352ZM200.55 150.352V149.328H196.55V150.352H200.55ZM200.55 149.328C200.55 148.671 200.275 148.068 199.806 147.638L197.103 150.586C196.953 150.449 196.805 150.262 196.699 150.022C196.592 149.782 196.55 149.542 196.55 149.328H200.55ZM199.929 147.761C199.499 147.291 198.895 147.016 198.238 147.016V151.016C198.025 151.016 197.784 150.974 197.544 150.868C197.304 150.761 197.117 150.613 196.98 150.463L199.929 147.761ZM198.238 147.016H194.486V151.016H198.238V147.016ZM196.486 149.016V148.36H192.486V149.016H196.486ZM194.486 150.36H198.238V146.36H194.486V150.36ZM198.238 150.36C198.068 150.36 197.857 150.312 197.661 150.188L199.792 146.804C199.308 146.499 198.771 146.36 198.238 146.36V150.36ZM197.734 150.232C197.573 150.141 197.434 150.001 197.342 149.84L200.815 147.856C200.552 147.396 200.178 147.022 199.719 146.76L197.734 150.232ZM197.386 149.914C197.268 149.727 197.214 149.515 197.214 149.328H201.214C201.214 148.789 201.069 148.257 200.771 147.782L197.386 149.914ZM197.214 149.328V153H201.214V149.328H197.214ZM199.214 151H195.454V155H199.214V151ZM195.454 154.344H198.55V150.344H195.454V154.344ZM200.55 152.344V151.008H196.55V152.344H200.55ZM198.55 149.008H195.142V153.008H198.55V149.008ZM193.142 151.008V152.032H197.142V151.008H193.142ZM193.142 152.032C193.142 152.627 193.366 153.182 193.756 153.607L196.705 150.905C196.828 151.039 196.943 151.211 197.026 151.421C197.108 151.631 197.142 151.84 197.142 152.032H193.142ZM193.879 153.73C194.305 154.121 194.859 154.344 195.454 154.344V150.344C195.646 150.344 195.855 150.378 196.066 150.46C196.275 150.543 196.448 150.659 196.582 150.782L193.879 153.73ZM199.854 153H197.854V155H199.854V153ZM199.854 146.84V144.84H197.854V146.84H199.854ZM200.51 146.84H202.51V144.84H200.51V146.84ZM200.51 148.36H198.51V150.36H200.51V148.36ZM204.094 148.496L203.028 150.188L203.064 150.211L203.102 150.232L204.094 148.496ZM204.446 148.848L202.709 149.84L202.731 149.877L202.753 149.914L204.446 148.848ZM204.446 152.52L202.736 151.482L202.731 151.491L202.725 151.5L204.446 152.52ZM204.094 152.872L205.113 154.593L205.123 154.587L205.132 154.582L204.094 152.872ZM203.83 152.256L202.416 150.842V150.842L203.83 152.256ZM203.83 149.112L202.356 150.463L202.414 150.528L202.478 150.586L203.83 149.112ZM200.606 149.112L201.957 150.586L201.989 150.557L202.02 150.526L200.606 149.112ZM200.606 152.256L199.192 153.67L199.222 153.701L199.254 153.73L200.606 152.256ZM201.854 153V146.84H197.854V153H201.854ZM199.854 148.84H200.51V144.84H199.854V148.84ZM198.51 146.84V148.36H202.51V146.84H198.51ZM200.51 150.36H203.614V146.36H200.51V150.36ZM203.614 150.36C203.426 150.36 203.215 150.306 203.028 150.188L205.16 146.804C204.685 146.505 204.153 146.36 203.614 146.36V150.36ZM203.102 150.232C202.941 150.141 202.801 150.001 202.709 149.84L206.182 147.856C205.92 147.396 205.546 147.022 205.086 146.76L203.102 150.232ZM202.753 149.914C202.636 149.727 202.582 149.515 202.582 149.328H206.582C206.582 148.789 206.437 148.257 206.138 147.782L202.753 149.914ZM202.582 149.328V152.032H206.582V149.328H202.582ZM202.582 152.032C202.582 151.845 202.636 151.648 202.736 151.482L206.155 153.558C206.438 153.093 206.582 152.571 206.582 152.032H202.582ZM202.725 151.5C202.815 151.349 202.937 151.234 203.056 151.162L205.132 154.582C205.549 154.328 205.906 153.979 206.166 153.54L202.725 151.5ZM203.074 151.151C203.255 151.044 203.45 151 203.614 151V155C204.129 155 204.645 154.87 205.113 154.593L203.074 151.151ZM203.614 151H199.854V155H203.614V151ZM200.83 154.344H203.614V150.344H200.83V154.344ZM203.614 154.344C204.213 154.344 204.799 154.116 205.244 153.67L202.416 150.842C202.562 150.695 202.75 150.562 202.977 150.47C203.203 150.378 203.423 150.344 203.614 150.344V154.344ZM205.244 153.67C205.658 153.256 205.926 152.682 205.926 152.032H201.926C201.926 151.818 201.968 151.588 202.064 151.364C202.159 151.142 202.288 150.969 202.416 150.842L205.244 153.67ZM205.926 152.032V149.328H201.926V152.032H205.926ZM205.926 149.328C205.926 148.671 205.65 148.068 205.181 147.638L202.478 150.586C202.329 150.449 202.181 150.262 202.074 150.022C201.967 149.782 201.926 149.542 201.926 149.328H205.926ZM205.304 147.761C204.874 147.291 204.271 147.016 203.614 147.016V151.016C203.4 151.016 203.16 150.974 202.92 150.868C202.68 150.761 202.493 150.613 202.356 150.463L205.304 147.761ZM203.614 147.016H200.83V151.016H203.614V147.016ZM200.83 147.016C200.179 147.016 199.605 147.284 199.192 147.698L202.02 150.526C201.893 150.654 201.72 150.783 201.498 150.878C201.274 150.974 201.044 151.016 200.83 151.016V147.016ZM199.254 147.638C198.785 148.068 198.51 148.671 198.51 149.328H202.51C202.51 149.542 202.468 149.782 202.361 150.022C202.255 150.262 202.107 150.449 201.957 150.586L199.254 147.638ZM198.51 149.328V152.032H202.51V149.328H198.51ZM198.51 152.032C198.51 152.682 198.778 153.256 199.192 153.67L202.02 150.842C202.147 150.969 202.277 151.142 202.372 151.364C202.468 151.588 202.51 151.818 202.51 152.032H198.51ZM199.254 153.73C199.68 154.121 200.235 154.344 200.83 154.344V150.344C201.021 150.344 201.231 150.378 201.441 150.46C201.651 150.543 201.823 150.659 201.957 150.782L199.254 153.73ZM205.622 152.872L204.556 154.564L204.592 154.587L204.63 154.608L205.622 152.872ZM205.27 152.52L203.533 153.512L203.555 153.549L203.577 153.586L205.27 152.52ZM205.142 151.968V149.968H203.142V151.968H205.142ZM205.798 151.968H207.798V149.968H205.798V151.968ZM205.886 152.256L204.412 153.607L204.47 153.672L204.534 153.73L205.886 152.256ZM209.11 152.256L207.696 150.842V150.842L209.11 152.256ZM209.11 151.104L207.636 152.455L207.694 152.52L207.758 152.578L209.11 151.104ZM205.622 150.88L204.556 152.572L204.592 152.595L204.63 152.616L205.622 150.88ZM205.27 150.528L203.533 151.52L203.555 151.557L203.577 151.594L205.27 150.528ZM205.27 148.848L203.56 147.81L203.555 147.819L203.549 147.828L205.27 148.848ZM205.622 148.496L206.641 150.217L206.651 150.211L206.66 150.206L205.622 148.496ZM209.382 148.496L208.316 150.188L208.352 150.211L208.39 150.232L209.382 148.496ZM209.734 148.848L207.997 149.84L208.019 149.877L208.041 149.914L209.734 148.848ZM209.87 149.392V151.392H211.87V149.392H209.87ZM209.206 149.392H207.206V151.392H209.206V149.392ZM209.11 149.112L207.636 150.463L207.694 150.528L207.758 150.586L209.11 149.112ZM205.886 149.112L204.472 147.698V147.698L205.886 149.112ZM205.886 150.264L204.412 151.615L204.47 151.68L204.534 151.738L205.886 150.264ZM209.382 150.488L208.316 152.18L208.352 152.203L208.39 152.224L209.382 150.488ZM209.734 150.84L207.997 151.832L208.019 151.869L208.041 151.906L209.734 150.84ZM209.734 152.52L208.024 151.482L208.019 151.491L208.013 151.5L209.734 152.52ZM209.382 152.872L210.401 154.593L210.411 154.587L210.42 154.582L209.382 152.872ZM206.11 151C206.273 151 206.454 151.044 206.614 151.136L204.63 154.608C205.088 154.871 205.594 155 206.11 155V151ZM206.687 151.18C206.797 151.248 206.894 151.345 206.962 151.454L203.577 153.586C203.827 153.983 204.159 154.314 204.556 154.564L206.687 151.18ZM207.006 151.528C207.098 151.688 207.142 151.868 207.142 152.032H203.142C203.142 152.548 203.271 153.053 203.533 153.512L207.006 151.528ZM207.142 152.032V151.968H203.142V152.032H207.142ZM205.142 153.968H205.798V149.968H205.142V153.968ZM203.798 151.968V152.032H207.798V151.968H203.798ZM203.798 152.032C203.798 152.627 204.021 153.182 204.412 153.607L207.36 150.905C207.483 151.039 207.599 151.211 207.681 151.421C207.764 151.631 207.798 151.84 207.798 152.032H203.798ZM204.534 153.73C204.96 154.121 205.515 154.344 206.11 154.344V150.344C206.301 150.344 206.511 150.378 206.721 150.46C206.931 150.543 207.103 150.659 207.237 150.782L204.534 153.73ZM206.11 154.344H208.894V150.344H206.11V154.344ZM208.894 154.344C209.493 154.344 210.078 154.116 210.524 153.67L207.696 150.842C207.842 150.695 208.03 150.562 208.257 150.47C208.483 150.378 208.703 150.344 208.894 150.344V154.344ZM210.524 153.67C210.938 153.256 211.206 152.682 211.206 152.032H207.206C207.206 151.818 207.247 151.588 207.344 151.364C207.439 151.142 207.568 150.969 207.696 150.842L210.524 153.67ZM211.206 152.032V151.32H207.206V152.032H211.206ZM211.206 151.32C211.206 150.663 210.93 150.06 210.461 149.63L207.758 152.578C207.609 152.441 207.461 152.254 207.354 152.014C207.247 151.774 207.206 151.534 207.206 151.32H211.206ZM210.584 149.753C210.154 149.283 209.551 149.008 208.894 149.008V153.008C208.68 153.008 208.44 152.966 208.2 152.86C207.96 152.753 207.773 152.605 207.636 152.455L210.584 149.753ZM208.894 149.008H206.11V153.008H208.894V149.008ZM206.11 149.008C206.273 149.008 206.454 149.052 206.614 149.144L204.63 152.616C205.088 152.879 205.594 153.008 206.11 153.008V149.008ZM206.687 149.188C206.797 149.256 206.894 149.353 206.962 149.462L203.577 151.594C203.827 151.991 204.159 152.322 204.556 152.572L206.687 149.188ZM207.006 149.536C207.098 149.696 207.142 149.876 207.142 150.04H203.142C203.142 150.556 203.271 151.061 203.533 151.52L207.006 149.536ZM207.142 150.04V149.328H203.142V150.04H207.142ZM207.142 149.328C207.142 149.492 207.098 149.687 206.99 149.868L203.549 147.828C203.271 148.297 203.142 148.812 203.142 149.328H207.142ZM206.979 149.886C206.907 150.005 206.792 150.127 206.641 150.217L204.602 146.775C204.163 147.036 203.814 147.393 203.56 147.81L206.979 149.886ZM206.66 150.206C206.494 150.306 206.297 150.36 206.11 150.36V146.36C205.571 146.36 205.049 146.504 204.584 146.786L206.66 150.206ZM206.11 150.36H208.894V146.36H206.11V150.36ZM208.894 150.36C208.724 150.36 208.512 150.312 208.316 150.188L210.447 146.804C209.963 146.499 209.426 146.36 208.894 146.36V150.36ZM208.39 150.232C208.229 150.141 208.089 150.001 207.997 149.84L211.47 147.856C211.208 147.396 210.833 147.022 210.374 146.76L208.39 150.232ZM208.041 149.914C207.924 149.727 207.87 149.515 207.87 149.328H211.87C211.87 148.789 211.725 148.257 211.426 147.782L208.041 149.914ZM207.87 149.328V149.392H211.87V149.328H207.87ZM209.87 147.392H209.206V151.392H209.87V147.392ZM211.206 149.392V149.328H207.206V149.392H211.206ZM211.206 149.328C211.206 148.671 210.93 148.068 210.461 147.638L207.758 150.586C207.609 150.449 207.461 150.262 207.354 150.022C207.247 149.782 207.206 149.542 207.206 149.328H211.206ZM210.584 147.761C210.154 147.291 209.551 147.016 208.894 147.016V151.016C208.68 151.016 208.44 150.974 208.2 150.868C207.96 150.761 207.773 150.613 207.636 150.463L210.584 147.761ZM208.894 147.016H206.11V151.016H208.894V147.016ZM206.11 147.016C205.459 147.016 204.885 147.284 204.472 147.698L207.3 150.526C207.173 150.654 206.999 150.783 206.778 150.878C206.554 150.974 206.324 151.016 206.11 151.016V147.016ZM204.472 147.698C204.026 148.143 203.798 148.729 203.798 149.328H207.798C207.798 149.519 207.764 149.739 207.672 149.965C207.579 150.192 207.446 150.38 207.3 150.526L204.472 147.698ZM203.798 149.328V150.04H207.798V149.328H203.798ZM203.798 150.04C203.798 150.635 204.021 151.19 204.412 151.615L207.36 148.913C207.483 149.047 207.599 149.219 207.681 149.429C207.764 149.639 207.798 149.848 207.798 150.04H203.798ZM204.534 151.738C204.96 152.129 205.515 152.352 206.11 152.352V148.352C206.301 148.352 206.511 148.386 206.721 148.468C206.931 148.551 207.103 148.667 207.237 148.79L204.534 151.738ZM206.11 152.352H208.894V148.352H206.11V152.352ZM208.894 152.352C208.724 152.352 208.512 152.304 208.316 152.18L210.447 148.796C209.963 148.491 209.426 148.352 208.894 148.352V152.352ZM208.39 152.224C208.229 152.133 208.089 151.993 207.997 151.832L211.47 149.848C211.208 149.388 210.833 149.014 210.374 148.752L208.39 152.224ZM208.041 151.906C207.924 151.719 207.87 151.507 207.87 151.32H211.87C211.87 150.781 211.725 150.249 211.426 149.774L208.041 151.906ZM207.87 151.32V152.032H211.87V151.32H207.87ZM207.87 152.032C207.87 151.845 207.923 151.648 208.024 151.482L211.443 153.558C211.726 153.093 211.87 152.571 211.87 152.032H207.87ZM208.013 151.5C208.103 151.349 208.225 151.234 208.344 151.162L210.42 154.582C210.837 154.328 211.194 153.979 211.454 153.54L208.013 151.5ZM208.362 151.151C208.552 151.039 208.747 151 208.894 151V155C209.403 155 209.923 154.876 210.401 154.593L208.362 151.151ZM208.894 151H206.11V155H208.894V151Z" fill="#181D17" mask="url(#path-69-outside-1_234_3164)"/>
<path d="M199.99 144.483C202.297 144.483 204.167 142.214 204.167 139.416C204.167 136.617 202.297 134.348 199.99 134.348C197.683 134.348 195.813 136.617 195.813 139.416C195.813 142.214 197.683 144.483 199.99 144.483Z" fill="#FFE9A1"/>
<path d="M172.704 143.231C175.01 143.231 176.881 140.962 176.881 138.164C176.881 135.365 175.01 133.097 172.704 133.097C170.397 133.097 168.527 135.365 168.527 138.164C168.527 140.962 170.397 143.231 172.704 143.231Z" fill="#FFE9A1"/>
<g opacity="0.3">
<path d="M193.61 60.4556H192.949V64.2074H193.61V60.4556Z" fill="#47E6B1"/>
<path d="M195.152 62.6627V62.0002H191.407V62.6627H195.152Z" fill="#47E6B1"/>
</g>
<g opacity="0.3">
<path d="M230.484 90.3936H229.822V94.1454H230.484V90.3936Z" fill="#47E6B1"/>
<path d="M232.025 92.6007V91.9382H228.281V92.6007H232.025Z" fill="#47E6B1"/>
</g>
<path opacity="0.3" d="M216.081 28.2659C215.898 28.1862 215.752 28.0423 215.669 27.8615C215.585 27.6806 215.571 27.4754 215.629 27.2849C215.639 27.256 215.645 27.2261 215.648 27.1957C215.653 27.109 215.629 27.0232 215.582 26.9507C215.534 26.8782 215.465 26.8228 215.384 26.7926C215.302 26.7624 215.214 26.7589 215.13 26.7827C215.047 26.8066 214.973 26.8564 214.92 26.925C214.902 26.9497 214.888 26.9764 214.876 27.0046C214.796 27.1872 214.653 27.3341 214.472 27.4175C214.292 27.5009 214.087 27.5149 213.897 27.4569C213.868 27.447 213.838 27.4406 213.808 27.4378C213.721 27.4333 213.636 27.4566 213.563 27.5043C213.491 27.5521 213.436 27.6217 213.405 27.7031C213.375 27.7844 213.372 27.8733 213.396 27.9568C213.419 28.0403 213.469 28.1139 213.538 28.1671C213.562 28.1851 213.589 28.2 213.617 28.2117C213.799 28.2913 213.946 28.4352 214.029 28.6161C214.112 28.797 214.126 29.0021 214.068 29.1927C214.059 29.2215 214.052 29.2515 214.049 29.2818C214.045 29.3685 214.068 29.4544 214.116 29.5269C214.163 29.5994 214.233 29.6548 214.314 29.685C214.395 29.7152 214.484 29.7187 214.567 29.6948C214.651 29.671 214.724 29.6212 214.777 29.5526C214.795 29.5279 214.81 29.5011 214.822 29.4729C214.901 29.2904 215.045 29.1435 215.225 29.0601C215.406 28.9767 215.611 28.9627 215.801 29.0207C215.83 29.0305 215.86 29.0369 215.89 29.0398C215.976 29.0443 216.062 29.0209 216.134 28.9732C216.207 28.9255 216.262 28.8559 216.292 28.7745C216.322 28.6931 216.326 28.6042 216.302 28.5208C216.278 28.4373 216.229 28.3636 216.16 28.3104C216.135 28.2925 216.109 28.2775 216.081 28.2659Z" fill="#4D8AF0"/>
<path opacity="0.3" d="M145.831 93.8747C145.648 93.7951 145.502 93.6512 145.419 93.4704C145.335 93.2895 145.321 93.0843 145.379 92.8938C145.389 92.8649 145.396 92.835 145.398 92.8046C145.403 92.7179 145.38 92.6321 145.332 92.5596C145.284 92.487 145.215 92.4317 145.134 92.4015C145.052 92.3713 144.964 92.3678 144.88 92.3916C144.797 92.4155 144.724 92.4653 144.67 92.5339C144.653 92.5586 144.638 92.5853 144.626 92.6135C144.546 92.7961 144.403 92.943 144.222 93.0264C144.042 93.1098 143.837 93.1238 143.647 93.0658C143.618 93.0559 143.588 93.0495 143.558 93.0467C143.471 93.0422 143.386 93.0655 143.313 93.1132C143.241 93.1609 143.186 93.2306 143.155 93.3119C143.125 93.3933 143.122 93.4822 143.146 93.5657C143.169 93.6491 143.219 93.7228 143.288 93.776C143.312 93.7939 143.339 93.8089 143.367 93.8206C143.549 93.9002 143.696 94.0441 143.779 94.225C143.862 94.4058 143.876 94.611 143.819 94.8015C143.809 94.8304 143.802 94.8603 143.799 94.8907C143.795 94.9774 143.818 95.0633 143.866 95.1358C143.914 95.2083 143.983 95.2637 144.064 95.2939C144.145 95.3241 144.234 95.3275 144.317 95.3037C144.401 95.2799 144.474 95.23 144.527 95.1614C144.545 95.1367 144.56 95.11 144.572 95.0818C144.651 94.8993 144.795 94.7524 144.975 94.669C145.156 94.5856 145.361 94.5716 145.551 94.6296C145.58 94.6394 145.61 94.6458 145.64 94.6487C145.726 94.6531 145.812 94.6298 145.885 94.5821C145.957 94.5344 146.012 94.4648 146.042 94.3834C146.072 94.302 146.076 94.2131 146.052 94.1297C146.028 94.0462 145.979 93.9725 145.91 93.9193C145.885 93.9014 145.859 93.8864 145.831 93.8747Z" fill="#4D8AF0"/>
<path opacity="0.3" d="M61.75 106.248C61.5679 106.168 61.4212 106.024 61.338 105.844C61.2548 105.663 61.2408 105.458 61.2987 105.267C61.3085 105.238 61.3149 105.208 61.3177 105.178C61.3222 105.091 61.2989 105.005 61.2513 104.933C61.2037 104.86 61.1342 104.805 61.053 104.775C60.9718 104.745 60.883 104.741 60.7997 104.765C60.7164 104.789 60.6429 104.839 60.5898 104.907C60.5719 104.932 60.557 104.959 60.5453 104.987C60.4658 105.169 60.3222 105.316 60.1417 105.4C59.9612 105.483 59.7564 105.497 59.5663 105.439C59.5374 105.429 59.5076 105.423 59.4773 105.42C59.3907 105.415 59.305 105.439 59.2327 105.487C59.1603 105.534 59.105 105.604 59.0749 105.685C59.0447 105.767 59.0413 105.856 59.0651 105.939C59.0888 106.022 59.1386 106.096 59.2071 106.149C59.2317 106.167 59.2584 106.182 59.2865 106.194C59.4687 106.274 59.6154 106.417 59.6986 106.598C59.7818 106.779 59.7958 106.984 59.7379 107.175C59.7281 107.204 59.7217 107.234 59.7188 107.264C59.7144 107.351 59.7377 107.437 59.7853 107.509C59.8329 107.582 59.9024 107.637 59.9836 107.667C60.0648 107.697 60.1535 107.701 60.2368 107.677C60.3201 107.653 60.3937 107.603 60.4468 107.535C60.4647 107.51 60.4796 107.483 60.4913 107.455C60.5707 107.273 60.7144 107.126 60.8949 107.042C61.0754 106.959 61.2802 106.945 61.4703 107.003C61.4991 107.013 61.529 107.019 61.5593 107.022C61.6458 107.026 61.7315 107.003 61.8039 106.955C61.8763 106.908 61.9316 106.838 61.9617 106.757C61.9919 106.675 61.9953 106.586 61.9715 106.503C61.9477 106.419 61.898 106.346 61.8295 106.293C61.8049 106.275 61.7782 106.26 61.75 106.248Z" fill="#E3E354"/>
<path opacity="0.3" d="M2.70829 144.979C2.5261 144.9 2.37947 144.756 2.29625 144.575C2.21303 144.394 2.19903 144.189 2.25691 143.999C2.26674 143.97 2.27314 143.94 2.27599 143.909C2.28044 143.823 2.25717 143.737 2.20955 143.664C2.16193 143.592 2.09245 143.536 2.01123 143.506C1.93001 143.476 1.84129 143.473 1.75798 143.496C1.67467 143.52 1.60113 143.57 1.54806 143.639C1.53016 143.663 1.51522 143.69 1.50356 143.718C1.42409 143.901 1.28046 144.048 1.09995 144.131C0.919449 144.214 0.714656 144.229 0.524507 144.171C0.495691 144.161 0.465817 144.154 0.435503 144.151C0.348983 144.147 0.263298 144.17 0.190924 144.218C0.11855 144.266 0.0632647 144.335 0.0331175 144.417C0.00297026 144.498 -0.000461523 144.587 0.0233149 144.67C0.0470913 144.754 0.0968342 144.828 0.165309 144.881C0.189959 144.899 0.216632 144.914 0.244777 144.925C0.426967 145.005 0.57361 145.149 0.65683 145.33C0.74005 145.511 0.754044 145.716 0.696157 145.906C0.686327 145.935 0.679927 145.965 0.677085 145.995C0.672627 146.082 0.695906 146.168 0.743525 146.241C0.791144 146.313 0.860622 146.368 0.941842 146.399C1.02306 146.429 1.11178 146.432 1.19509 146.408C1.2784 146.385 1.35194 146.335 1.40502 146.266C1.42292 146.241 1.43786 146.215 1.44952 146.187C1.52898 146.004 1.67262 145.857 1.85312 145.774C2.03363 145.69 2.23842 145.676 2.42857 145.734C2.45739 145.744 2.48726 145.751 2.51757 145.753C2.60409 145.758 2.68978 145.735 2.76215 145.687C2.83453 145.639 2.88981 145.57 2.91995 145.488C2.9501 145.407 2.95354 145.318 2.92976 145.234C2.90599 145.151 2.85624 145.077 2.78776 145.024C2.76311 145.006 2.73644 144.991 2.70829 144.979Z" fill="#E3E354"/>
<path opacity="0.3" d="M60.6184 71.7907C61.3487 71.7907 61.9407 71.1975 61.9407 70.4658C61.9407 69.7341 61.3487 69.1409 60.6184 69.1409C59.8881 69.1409 59.296 69.7341 59.296 70.4658C59.296 71.1975 59.8881 71.7907 60.6184 71.7907Z" fill="#E3E354"/>
<path opacity="0.3" d="M171.095 2.64983C171.826 2.64983 172.418 2.05665 172.418 1.32492C172.418 0.593185 171.826 0 171.095 0C170.365 0 169.773 0.593185 169.773 1.32492C169.773 2.05665 170.365 2.64983 171.095 2.64983Z" fill="#E3E354"/>
<path opacity="0.3" d="M43.3102 19.2114C44.0405 19.2114 44.6326 18.6182 44.6326 17.8864C44.6326 17.1547 44.0405 16.5615 43.3102 16.5615C42.5799 16.5615 41.9879 17.1547 41.9879 17.8864C41.9879 18.6182 42.5799 19.2114 43.3102 19.2114Z" fill="#E3E354"/>
<path opacity="0.3" d="M2.94033 95.0116C3.67065 95.0116 4.26269 94.4185 4.26269 93.6867C4.26269 92.955 3.67065 92.3618 2.94033 92.3618C2.21002 92.3618 1.61798 92.955 1.61798 93.6867C1.61798 94.4185 2.21002 95.0116 2.94033 95.0116Z" fill="#E3E354"/>
<path opacity="0.3" d="M247.909 65.7521C248.64 65.7521 249.232 65.1589 249.232 64.4272C249.232 63.6955 248.64 63.1023 247.909 63.1023C247.179 63.1023 246.587 63.6955 246.587 64.4272C246.587 65.1589 247.179 65.7521 247.909 65.7521Z" fill="#E3E354"/>
<path opacity="0.3" d="M262.678 108.984C263.408 108.984 264 108.391 264 107.659C264 106.927 263.408 106.334 262.678 106.334C261.947 106.334 261.355 106.927 261.355 107.659C261.355 108.391 261.947 108.984 262.678 108.984Z" fill="#4D8AF0"/>
<path opacity="0.3" d="M262.678 174.911C263.408 174.911 264 174.318 264 173.586C264 172.854 263.408 172.261 262.678 172.261C261.947 172.261 261.355 172.854 261.355 173.586C261.355 174.318 261.947 174.911 262.678 174.911Z" fill="#4D8AF0"/>
<path opacity="0.3" d="M50.3384 171.726C51.0687 171.726 51.6608 171.133 51.6608 170.401C51.6608 169.67 51.0687 169.076 50.3384 169.076C49.6081 169.076 49.0161 169.67 49.0161 170.401C49.0161 171.133 49.6081 171.726 50.3384 171.726Z" fill="#4D8AF0"/>
<path opacity="0.3" d="M19.0311 142.062C19.7614 142.062 20.3534 141.469 20.3534 140.737C20.3534 140.006 19.7614 139.412 19.0311 139.412C18.3008 139.412 17.7087 140.006 17.7087 140.737C17.7087 141.469 18.3008 142.062 19.0311 142.062Z" fill="#47E6B1"/>
<path opacity="0.3" d="M20.4965 70.4943C21.2268 70.4943 21.8188 69.9011 21.8188 69.1694C21.8188 68.4377 21.2268 67.8445 20.4965 67.8445C19.7662 67.8445 19.1741 68.4377 19.1741 69.1694C19.1741 69.9011 19.7662 70.4943 20.4965 70.4943Z" fill="#47E6B1"/>
<path opacity="0.3" d="M7.59396 38.8747C8.32427 38.8747 8.91631 38.2815 8.91631 37.5498C8.91631 36.818 8.32427 36.2249 7.59396 36.2249C6.86364 36.2249 6.27161 36.818 6.27161 37.5498C6.27161 38.2815 6.86364 38.8747 7.59396 38.8747Z" fill="#47E6B1"/>
<path d="M193.143 170.471C194.167 169.456 194.164 167.797 193.143 166.779C192.12 165.76 191.282 164.92 191.273 164.907C191.246 164.857 190.901 165.244 190.901 165.329C190.901 165.392 191.431 165.944 192.509 167.013C193.392 167.889 194.117 168.616 194.117 168.63C194.117 168.643 193.383 169.38 192.486 170.269C191.59 171.158 190.856 171.895 190.856 171.904C190.856 171.935 191.232 172.313 191.264 172.313C191.277 172.313 192.124 171.482 193.143 170.471Z" fill="#50FA7B"/>
<path d="M182.915 172.106C183.016 171.996 183.012 171.826 182.905 171.72L181.459 170.285C180.56 169.392 179.823 168.639 179.823 168.616C179.823 168.589 180.555 167.845 181.45 166.957C182.345 166.069 183.077 165.333 183.077 165.315C183.077 165.302 182.982 165.203 182.869 165.095C182.753 164.987 182.573 164.99 182.46 165.102L180.853 166.692C179.707 167.83 179.653 169.345 180.799 170.482C181.512 171.19 182.143 171.807 182.466 172.111C182.613 172.25 182.784 172.261 182.915 172.106Z" fill="#50FA7B"/>
<path d="M187.519 164.346L185.167 164.976L186.967 171.691C187.141 172.341 187.808 172.726 188.458 172.552C189.107 172.378 189.493 171.711 189.319 171.061L187.519 164.346Z" fill="#13201E"/>
<path d="M187.045 164.459L185.575 164.853L187.383 171.599C187.492 172.005 187.909 172.246 188.315 172.137C188.721 172.029 188.962 171.611 188.853 171.206L187.045 164.459Z" fill="white"/>
<path d="M187.612 167.459L186.583 167.735L187.607 171.557C187.683 171.841 187.975 172.009 188.259 171.933C188.544 171.857 188.712 171.565 188.636 171.281L187.612 167.459Z" fill="#50FA7B"/>
<path d="M187.764 163.613C187.669 163.259 187.305 163.049 186.951 163.144L185.004 163.666C184.65 163.761 184.441 164.124 184.535 164.478C184.63 164.832 184.994 165.042 185.348 164.947L186.347 164.679L187.115 164.473L187.295 164.425C187.649 164.331 187.858 163.967 187.764 163.613Z" fill="#13201E"/>
<rect width="2.5995" height="0.689664" rx="0.344832" transform="matrix(-0.965926 0.258819 0.258819 0.965926 187.303 163.365)" fill="white"/>
<rect width="0.7609" height="0.38045" transform="matrix(-0.965926 0.258819 0.258819 0.965926 186.966 164.166)" fill="white"/>
<path d="M187.171 167.384L186.569 167.73L187.768 167.736L187.693 167.475L187.171 167.384Z" fill="white"/>
<rect width="0.328854" height="0.350778" rx="0.164427" transform="matrix(-1 0 0 1 186.471 162.381)" fill="#50FA7B"/>
<path d="M185.343 162.196C185.343 162.093 185.259 162.01 185.156 162.01C185.053 162.01 184.97 162.093 184.97 162.196C184.97 162.299 185.053 162.382 185.156 162.382C185.259 162.382 185.343 162.299 185.343 162.196Z" fill="#50FA7B"/>
<path d="M185.989 161.208C185.989 161.093 185.896 161 185.781 161C185.666 161 185.572 161.093 185.572 161.208C185.572 161.323 185.666 161.417 185.781 161.417C185.896 161.417 185.989 161.323 185.989 161.208Z" fill="#50FA7B"/>
</g>
<defs>
<linearGradient id="paint0_linear_234_3164" x1="109.908" y1="226" x2="109.908" y2="5.92401" gradientUnits="userSpaceOnUse">
<stop stop-color="#808080" stop-opacity="0.25"/>
<stop offset="0.54" stop-color="#808080" stop-opacity="0.12"/>
<stop offset="1" stop-color="#808080" stop-opacity="0.1"/>
</linearGradient>
<linearGradient id="paint1_linear_234_3164" x1="187.638" y1="220.818" x2="187.628" y2="192.374" gradientUnits="userSpaceOnUse">
<stop stop-color="#808080" stop-opacity="0.25"/>
<stop offset="0.54" stop-color="#808080" stop-opacity="0.12"/>
<stop offset="1" stop-color="#808080" stop-opacity="0.1"/>
</linearGradient>
<linearGradient id="paint2_linear_234_3164" x1="187.642" y1="224.054" x2="187.639" y2="213.97" gradientUnits="userSpaceOnUse">
<stop stop-color="#808080" stop-opacity="0.25"/>
<stop offset="0.54" stop-color="#808080" stop-opacity="0.12"/>
<stop offset="1" stop-color="#808080" stop-opacity="0.1"/>
</linearGradient>
<linearGradient id="paint3_linear_234_3164" x1="154.224" y1="177.378" x2="154.213" y2="145.354" gradientUnits="userSpaceOnUse">
<stop stop-color="#808080" stop-opacity="0.25"/>
<stop offset="0.54" stop-color="#808080" stop-opacity="0.12"/>
<stop offset="1" stop-color="#808080" stop-opacity="0.1"/>
</linearGradient>
<linearGradient id="paint4_linear_234_3164" x1="220.497" y1="177.355" x2="220.486" y2="145.331" gradientUnits="userSpaceOnUse">
<stop stop-color="#808080" stop-opacity="0.25"/>
<stop offset="0.54" stop-color="#808080" stop-opacity="0.12"/>
<stop offset="1" stop-color="#808080" stop-opacity="0.1"/>
</linearGradient>
<linearGradient id="paint5_linear_234_3164" x1="187.368" y1="203.96" x2="187.345" y2="136.536" gradientUnits="userSpaceOnUse">
<stop stop-color="#808080" stop-opacity="0.25"/>
<stop offset="0.54" stop-color="#808080" stop-opacity="0.12"/>
<stop offset="1" stop-color="#808080" stop-opacity="0.1"/>
</linearGradient>
<clipPath id="clip0_234_3164">
<rect width="264" height="226" fill="white"/>
</clipPath>
</defs>
</svg>
