<svg width="251" height="205" viewBox="0 0 251 205" fill="none" xmlns="http://www.w3.org/2000/svg">
<path d="M0 12C0 5.37258 5.37258 0 12 0H239C245.627 0 251 5.37258 251 12V193C251 199.627 245.627 205 239 205H12C5.37258 205 0 199.627 0 193V12Z" fill="#1D231C"/>
<path fill-rule="evenodd" clip-rule="evenodd" d="M75.9971 92.453C75.9971 73.6609 75.9971 64.2623 81.7988 58.4268C87.5956 52.5864 96.9318 52.5864 115.599 52.5864H136.638V142.286H115.599C96.9318 142.286 87.5956 142.286 81.7988 136.446C75.9971 130.61 75.9971 121.212 75.9971 102.42V92.453ZM144.063 142.256V52.6163C157.112 52.7508 164.379 53.5681 169.201 58.4268C175.003 64.2623 175.003 73.6609 175.003 92.453V102.42C175.003 121.212 175.003 130.61 169.201 136.446C164.379 141.305 157.112 142.122 144.063 142.256ZM115.451 114.729C116.147 114.029 117.091 113.635 118.074 113.635C119.058 113.635 120.002 114.029 120.698 114.729L125.648 119.712C126.344 120.413 126.734 121.363 126.734 122.353C126.734 123.343 126.344 124.293 125.648 124.994L120.698 129.978C120.358 130.345 119.948 130.639 119.493 130.844C119.037 131.048 118.546 131.158 118.047 131.167C117.549 131.175 117.054 131.083 116.591 130.895C116.129 130.707 115.709 130.427 115.357 130.072C115.004 129.717 114.726 129.295 114.539 128.829C114.353 128.364 114.261 127.866 114.27 127.364C114.278 126.862 114.388 126.367 114.591 125.908C114.793 125.45 115.086 125.037 115.451 124.695L117.777 122.353L115.451 120.011C114.756 119.31 114.365 118.36 114.365 117.37C114.365 116.379 114.756 115.429 115.451 114.729ZM114.124 108.714C114.313 108.251 114.407 107.754 114.401 107.254C114.396 106.753 114.29 106.259 114.091 105.801C113.893 105.342 113.604 104.928 113.243 104.584C112.883 104.239 112.457 103.972 111.991 103.796C111.526 103.62 111.03 103.541 110.533 103.562C110.037 103.583 109.549 103.704 109.1 103.918C108.651 104.132 108.249 104.435 107.918 104.808C107.587 105.182 107.334 105.619 107.174 106.092L99.7485 126.026C99.4378 126.945 99.495 127.951 99.9079 128.829C100.321 129.707 101.057 130.388 101.961 130.729C102.865 131.07 103.865 131.043 104.749 130.655C105.633 130.266 106.333 129.546 106.699 128.647L114.124 108.714ZM98.4218 104.762C99.1171 105.463 99.5076 106.413 99.5076 107.403C99.5076 108.393 99.1171 109.343 98.4218 110.044L96.0952 112.386L98.4218 114.729C98.7866 115.071 99.0792 115.483 99.2821 115.942C99.485 116.4 99.5941 116.895 99.6029 117.397C99.6117 117.899 99.52 118.397 99.3333 118.863C99.1466 119.328 98.8686 119.751 98.5161 120.106C98.1635 120.461 97.7436 120.74 97.2813 120.928C96.819 121.116 96.3238 121.209 95.8253 121.2C95.3268 121.191 94.8352 121.081 94.3797 120.877C93.9243 120.673 93.5144 120.378 93.1745 120.011L88.2243 115.028C87.529 114.327 87.1385 113.377 87.1385 112.386C87.1385 111.396 87.529 110.446 88.2243 109.745L93.1745 104.762C93.8707 104.062 94.8143 103.669 95.7982 103.669C96.7821 103.669 97.7257 104.062 98.4218 104.762Z" fill="#50FA7B"/>
</svg>
