<svg width="734" height="127" viewBox="0 0 734 127" fill="none" xmlns="http://www.w3.org/2000/svg">
<g clip-path="url(#clip0_439_4548)">
<mask id="path-1-outside-1_439_4548" maskUnits="userSpaceOnUse" x="1" y="2" width="731" height="119" fill="black">
<rect fill="white" x="1" y="2" width="731" height="119"/>
<path d="M26.528 111C23.712 111 21.1093 110.317 18.72 108.952C16.416 107.587 14.5813 105.752 13.216 103.448C11.8507 101.059 11.168 98.456 11.168 95.64V34.2C11.168 31.384 11.8507 28.824 13.216 26.52C14.5813 24.1307 16.416 22.2533 18.72 20.888C21.1093 19.5227 23.712 18.84 26.528 18.84H103.072V29.208H26.528C25.1627 29.208 23.968 29.72 22.944 30.744C22.0053 31.6827 21.536 32.8347 21.536 34.2V95.64C21.536 97.0053 22.0053 98.2 22.944 99.224C23.968 100.163 25.1627 100.632 26.528 100.632H103.072V111H26.528ZM131.266 111C128.45 111 125.847 110.317 123.458 108.952C121.154 107.501 119.277 105.624 117.826 103.32C116.461 100.931 115.778 98.328 115.778 95.512V52.248C115.778 49.432 116.461 46.872 117.826 44.568C119.277 42.1787 121.154 40.3013 123.458 38.936C125.847 37.4853 128.45 36.76 131.266 36.76H175.81C178.711 36.76 181.314 37.4853 183.618 38.936C186.007 40.3013 187.885 42.1787 189.25 44.568C190.701 46.872 191.426 49.432 191.426 52.248V95.512C191.426 98.328 190.701 100.931 189.25 103.32C187.885 105.624 186.007 107.501 183.618 108.952C181.314 110.317 178.711 111 175.81 111H131.266ZM131.266 100.504H175.81C177.175 100.504 178.327 100.035 179.266 99.096C180.29 98.072 180.802 96.8773 180.802 95.512V52.248C180.802 50.8827 180.29 49.7307 179.266 48.792C178.327 47.768 177.175 47.256 175.81 47.256H131.266C129.901 47.256 128.706 47.768 127.682 48.792C126.743 49.7307 126.274 50.8827 126.274 52.248V95.512C126.274 96.8773 126.743 98.072 127.682 99.096C128.706 100.035 129.901 100.504 131.266 100.504ZM216.435 111C213.534 111 210.888 110.317 208.499 108.952C206.195 107.501 204.318 105.624 202.867 103.32C201.502 100.931 200.819 98.328 200.819 95.512V52.248C200.819 49.432 201.502 46.872 202.867 44.568C204.318 42.1787 206.195 40.3013 208.499 38.936C210.888 37.4853 213.534 36.76 216.435 36.76H265.971V12.44H276.467V111H216.435ZM216.435 100.504H260.979C262.344 100.504 263.496 100.035 264.435 99.096C265.459 98.072 265.971 96.8773 265.971 95.512V52.248C265.971 50.8827 265.459 49.7307 264.435 48.792C263.496 47.768 262.344 47.256 260.979 47.256H216.435C215.07 47.256 213.875 47.768 212.851 48.792C211.912 49.7307 211.443 50.8827 211.443 52.248V95.512C211.443 96.8773 211.912 98.072 212.851 99.096C213.875 100.035 215.07 100.504 216.435 100.504ZM302.766 111C299.95 111 297.347 110.317 294.958 108.952C292.654 107.501 290.777 105.624 289.326 103.32C287.961 100.931 287.278 98.328 287.278 95.512V52.248C287.278 49.432 287.961 46.872 289.326 44.568C290.777 42.1787 292.654 40.3013 294.958 38.936C297.347 37.4853 299.95 36.76 302.766 36.76H347.31C350.211 36.76 352.814 37.4853 355.118 38.936C357.507 40.3013 359.385 42.1787 360.75 44.568C362.201 46.872 362.926 49.432 362.926 52.248V79.128H297.774V95.512C297.774 96.8773 298.243 98.072 299.182 99.096C300.206 100.035 301.401 100.504 302.766 100.504H362.926V111H302.766ZM297.774 68.632H352.302V52.248C352.302 50.8827 351.79 49.7307 350.766 48.792C349.827 47.768 348.675 47.256 347.31 47.256H302.766C301.401 47.256 300.206 47.768 299.182 48.792C298.243 49.7307 297.774 50.8827 297.774 52.248V68.632Z"/>
<path d="M376.671 111V18.712H387.039V100.632H468.831V111H376.671ZM491.269 111C488.453 111 485.85 110.317 483.461 108.952C481.157 107.501 479.28 105.624 477.829 103.32C476.464 100.931 475.781 98.328 475.781 95.512V68.632H540.805V52.248C540.805 50.8827 540.293 49.7307 539.269 48.792C538.33 47.768 537.178 47.256 535.813 47.256H475.781V36.76H535.813C538.714 36.76 541.317 37.4853 543.621 38.936C546.01 40.3013 547.888 42.1787 549.253 44.568C550.704 46.872 551.429 49.432 551.429 52.248V111H491.269ZM491.269 100.504H540.805V79.128H486.277V95.512C486.277 96.8773 486.746 98.072 487.685 99.096C488.709 100.035 489.904 100.504 491.269 100.504ZM561.662 111V12.44H572.158V36.76H621.822C624.638 36.76 627.198 37.4853 629.502 38.936C631.891 40.3013 633.769 42.1787 635.134 44.568C636.585 46.872 637.31 49.432 637.31 52.248V95.512C637.31 98.328 636.585 100.931 635.134 103.32C633.769 105.624 631.891 107.501 629.502 108.952C627.198 110.317 624.638 111 621.822 111H561.662ZM577.278 100.504H621.822C623.187 100.504 624.339 100.035 625.278 99.096C626.302 98.072 626.814 96.8773 626.814 95.512V52.248C626.814 50.8827 626.302 49.7307 625.278 48.792C624.339 47.768 623.187 47.256 621.822 47.256H577.278C575.913 47.256 574.718 47.768 573.694 48.792C572.67 49.7307 572.158 50.8827 572.158 52.248V95.512C572.158 96.8773 572.67 98.072 573.694 99.096C574.718 100.035 575.913 100.504 577.278 100.504ZM661.757 111C658.941 111 656.338 110.317 653.949 108.952C651.645 107.501 649.768 105.624 648.317 103.32C646.952 100.931 646.269 98.328 646.269 95.512V94.488H656.765V95.512C656.765 96.8773 657.234 98.072 658.173 99.096C659.197 100.035 660.392 100.504 661.757 100.504H706.301C707.666 100.504 708.818 100.035 709.757 99.096C710.781 98.072 711.293 96.8773 711.293 95.512V84.12C711.293 82.7547 710.781 81.6027 709.757 80.664C708.818 79.64 707.666 79.128 706.301 79.128H661.757C658.941 79.128 656.338 78.4453 653.949 77.08C651.645 75.6293 649.768 73.752 648.317 71.448C646.952 69.0587 646.269 66.456 646.269 63.64V52.248C646.269 49.432 646.952 46.872 648.317 44.568C649.768 42.1787 651.645 40.3013 653.949 38.936C656.338 37.4853 658.941 36.76 661.757 36.76H706.301C709.202 36.76 711.805 37.4853 714.109 38.936C716.498 40.3013 718.376 42.1787 719.741 44.568C721.192 46.872 721.917 49.432 721.917 52.248V53.272H711.293V52.248C711.293 50.8827 710.781 49.7307 709.757 48.792C708.818 47.768 707.666 47.256 706.301 47.256H661.757C660.392 47.256 659.197 47.768 658.173 48.792C657.234 49.7307 656.765 50.8827 656.765 52.248V63.64C656.765 65.0053 657.234 66.2 658.173 67.224C659.197 68.1627 660.392 68.632 661.757 68.632H706.301C709.202 68.632 711.805 69.3573 714.109 70.808C716.498 72.1733 718.376 74.0507 719.741 76.44C721.192 78.744 721.917 81.304 721.917 84.12V95.512C721.917 98.328 721.192 100.931 719.741 103.32C718.376 105.624 716.498 107.501 714.109 108.952C711.805 110.317 709.202 111 706.301 111H661.757Z"/>
</mask>
<path d="M26.528 111C23.712 111 21.1093 110.317 18.72 108.952C16.416 107.587 14.5813 105.752 13.216 103.448C11.8507 101.059 11.168 98.456 11.168 95.64V34.2C11.168 31.384 11.8507 28.824 13.216 26.52C14.5813 24.1307 16.416 22.2533 18.72 20.888C21.1093 19.5227 23.712 18.84 26.528 18.84H103.072V29.208H26.528C25.1627 29.208 23.968 29.72 22.944 30.744C22.0053 31.6827 21.536 32.8347 21.536 34.2V95.64C21.536 97.0053 22.0053 98.2 22.944 99.224C23.968 100.163 25.1627 100.632 26.528 100.632H103.072V111H26.528ZM131.266 111C128.45 111 125.847 110.317 123.458 108.952C121.154 107.501 119.277 105.624 117.826 103.32C116.461 100.931 115.778 98.328 115.778 95.512V52.248C115.778 49.432 116.461 46.872 117.826 44.568C119.277 42.1787 121.154 40.3013 123.458 38.936C125.847 37.4853 128.45 36.76 131.266 36.76H175.81C178.711 36.76 181.314 37.4853 183.618 38.936C186.007 40.3013 187.885 42.1787 189.25 44.568C190.701 46.872 191.426 49.432 191.426 52.248V95.512C191.426 98.328 190.701 100.931 189.25 103.32C187.885 105.624 186.007 107.501 183.618 108.952C181.314 110.317 178.711 111 175.81 111H131.266ZM131.266 100.504H175.81C177.175 100.504 178.327 100.035 179.266 99.096C180.29 98.072 180.802 96.8773 180.802 95.512V52.248C180.802 50.8827 180.29 49.7307 179.266 48.792C178.327 47.768 177.175 47.256 175.81 47.256H131.266C129.901 47.256 128.706 47.768 127.682 48.792C126.743 49.7307 126.274 50.8827 126.274 52.248V95.512C126.274 96.8773 126.743 98.072 127.682 99.096C128.706 100.035 129.901 100.504 131.266 100.504ZM216.435 111C213.534 111 210.888 110.317 208.499 108.952C206.195 107.501 204.318 105.624 202.867 103.32C201.502 100.931 200.819 98.328 200.819 95.512V52.248C200.819 49.432 201.502 46.872 202.867 44.568C204.318 42.1787 206.195 40.3013 208.499 38.936C210.888 37.4853 213.534 36.76 216.435 36.76H265.971V12.44H276.467V111H216.435ZM216.435 100.504H260.979C262.344 100.504 263.496 100.035 264.435 99.096C265.459 98.072 265.971 96.8773 265.971 95.512V52.248C265.971 50.8827 265.459 49.7307 264.435 48.792C263.496 47.768 262.344 47.256 260.979 47.256H216.435C215.07 47.256 213.875 47.768 212.851 48.792C211.912 49.7307 211.443 50.8827 211.443 52.248V95.512C211.443 96.8773 211.912 98.072 212.851 99.096C213.875 100.035 215.07 100.504 216.435 100.504ZM302.766 111C299.95 111 297.347 110.317 294.958 108.952C292.654 107.501 290.777 105.624 289.326 103.32C287.961 100.931 287.278 98.328 287.278 95.512V52.248C287.278 49.432 287.961 46.872 289.326 44.568C290.777 42.1787 292.654 40.3013 294.958 38.936C297.347 37.4853 299.95 36.76 302.766 36.76H347.31C350.211 36.76 352.814 37.4853 355.118 38.936C357.507 40.3013 359.385 42.1787 360.75 44.568C362.201 46.872 362.926 49.432 362.926 52.248V79.128H297.774V95.512C297.774 96.8773 298.243 98.072 299.182 99.096C300.206 100.035 301.401 100.504 302.766 100.504H362.926V111H302.766ZM297.774 68.632H352.302V52.248C352.302 50.8827 351.79 49.7307 350.766 48.792C349.827 47.768 348.675 47.256 347.31 47.256H302.766C301.401 47.256 300.206 47.768 299.182 48.792C298.243 49.7307 297.774 50.8827 297.774 52.248V68.632Z" fill="#50FA7B"/>
<path d="M376.671 111V18.712H387.039V100.632H468.831V111H376.671ZM491.269 111C488.453 111 485.85 110.317 483.461 108.952C481.157 107.501 479.28 105.624 477.829 103.32C476.464 100.931 475.781 98.328 475.781 95.512V68.632H540.805V52.248C540.805 50.8827 540.293 49.7307 539.269 48.792C538.33 47.768 537.178 47.256 535.813 47.256H475.781V36.76H535.813C538.714 36.76 541.317 37.4853 543.621 38.936C546.01 40.3013 547.888 42.1787 549.253 44.568C550.704 46.872 551.429 49.432 551.429 52.248V111H491.269ZM491.269 100.504H540.805V79.128H486.277V95.512C486.277 96.8773 486.746 98.072 487.685 99.096C488.709 100.035 489.904 100.504 491.269 100.504ZM561.662 111V12.44H572.158V36.76H621.822C624.638 36.76 627.198 37.4853 629.502 38.936C631.891 40.3013 633.769 42.1787 635.134 44.568C636.585 46.872 637.31 49.432 637.31 52.248V95.512C637.31 98.328 636.585 100.931 635.134 103.32C633.769 105.624 631.891 107.501 629.502 108.952C627.198 110.317 624.638 111 621.822 111H561.662ZM577.278 100.504H621.822C623.187 100.504 624.339 100.035 625.278 99.096C626.302 98.072 626.814 96.8773 626.814 95.512V52.248C626.814 50.8827 626.302 49.7307 625.278 48.792C624.339 47.768 623.187 47.256 621.822 47.256H577.278C575.913 47.256 574.718 47.768 573.694 48.792C572.67 49.7307 572.158 50.8827 572.158 52.248V95.512C572.158 96.8773 572.67 98.072 573.694 99.096C574.718 100.035 575.913 100.504 577.278 100.504ZM661.757 111C658.941 111 656.338 110.317 653.949 108.952C651.645 107.501 649.768 105.624 648.317 103.32C646.952 100.931 646.269 98.328 646.269 95.512V94.488H656.765V95.512C656.765 96.8773 657.234 98.072 658.173 99.096C659.197 100.035 660.392 100.504 661.757 100.504H706.301C707.666 100.504 708.818 100.035 709.757 99.096C710.781 98.072 711.293 96.8773 711.293 95.512V84.12C711.293 82.7547 710.781 81.6027 709.757 80.664C708.818 79.64 707.666 79.128 706.301 79.128H661.757C658.941 79.128 656.338 78.4453 653.949 77.08C651.645 75.6293 649.768 73.752 648.317 71.448C646.952 69.0587 646.269 66.456 646.269 63.64V52.248C646.269 49.432 646.952 46.872 648.317 44.568C649.768 42.1787 651.645 40.3013 653.949 38.936C656.338 37.4853 658.941 36.76 661.757 36.76H706.301C709.202 36.76 711.805 37.4853 714.109 38.936C716.498 40.3013 718.376 42.1787 719.741 44.568C721.192 46.872 721.917 49.432 721.917 52.248V53.272H711.293V52.248C711.293 50.8827 710.781 49.7307 709.757 48.792C708.818 47.768 707.666 47.256 706.301 47.256H661.757C660.392 47.256 659.197 47.768 658.173 48.792C657.234 49.7307 656.765 50.8827 656.765 52.248V63.64C656.765 65.0053 657.234 66.2 658.173 67.224C659.197 68.1627 660.392 68.632 661.757 68.632H706.301C709.202 68.632 711.805 69.3573 714.109 70.808C716.498 72.1733 718.376 74.0507 719.741 76.44C721.192 78.744 721.917 81.304 721.917 84.12V95.512C721.917 98.328 721.192 100.931 719.741 103.32C718.376 105.624 716.498 107.501 714.109 108.952C711.805 110.317 709.202 111 706.301 111H661.757Z" fill="#F8F8F2"/>
<path d="M18.72 108.952L13.622 117.555L13.69 117.595L13.7586 117.634L18.72 108.952ZM13.216 103.448L4.53357 108.409L4.57279 108.478L4.61309 108.546L13.216 103.448ZM13.216 26.52L21.8189 31.618L21.8592 31.55L21.8984 31.4814L13.216 26.52ZM18.72 20.888L13.7586 12.2056L13.69 12.2448L13.622 12.2851L18.72 20.888ZM103.072 18.84H113.072V8.84H103.072V18.84ZM103.072 29.208V39.208H113.072V29.208H103.072ZM22.944 30.744L30.0151 37.8151L30.0151 37.8151L22.944 30.744ZM22.944 99.224L15.5725 105.981L15.8663 106.302L16.1868 106.596L22.944 99.224ZM103.072 100.632H113.072V90.632H103.072V100.632ZM103.072 111V121H113.072V111H103.072ZM26.528 101C25.4099 101 24.5233 100.751 23.6814 100.27L13.7586 117.634C17.6953 119.884 22.0141 121 26.528 121V101ZM23.818 100.349C22.9579 99.8394 22.3286 99.2101 21.8189 98.35L4.61309 108.546C6.83407 112.294 9.87406 115.334 13.622 117.555L23.818 100.349ZM21.8984 98.4866C21.4173 97.6447 21.168 96.7581 21.168 95.64H1.168C1.168 100.154 2.28402 104.473 4.53357 108.409L21.8984 98.4866ZM21.168 95.64V34.2H1.168V95.64H21.168ZM21.168 34.2C21.168 33.0816 21.416 32.298 21.8189 31.618L4.61308 21.422C2.28537 25.35 1.168 29.6863 1.168 34.2H21.168ZM21.8984 31.4814C22.4292 30.5525 23.0463 29.9482 23.818 29.4909L13.622 12.2851C9.78569 14.5584 6.73347 17.7088 4.53357 21.5586L21.8984 31.4814ZM23.6814 29.5704C24.5233 29.0893 25.4099 28.84 26.528 28.84V8.84C22.0141 8.84 17.6953 9.95601 13.7586 12.2056L23.6814 29.5704ZM26.528 28.84H103.072V8.84H26.528V28.84ZM93.072 18.84V29.208H113.072V18.84H93.072ZM103.072 19.208H26.528V39.208H103.072V19.208ZM26.528 19.208C22.3371 19.208 18.646 20.8998 15.8729 23.6729L30.0151 37.8151C29.73 38.1001 29.2455 38.4842 28.5472 38.7834C27.8374 39.0877 27.13 39.208 26.528 39.208V19.208ZM15.8729 23.6729C12.9999 26.546 11.536 30.2671 11.536 34.2H31.536C31.536 34.6842 31.448 35.3509 31.1489 36.085C30.8476 36.8246 30.4241 37.4061 30.0151 37.8151L15.8729 23.6729ZM11.536 34.2V95.64H31.536V34.2H11.536ZM11.536 95.64C11.536 99.5551 12.9758 103.149 15.5725 105.981L30.3155 92.4668C30.6079 92.7857 30.9452 93.2662 31.1955 93.9035C31.447 94.5436 31.536 95.1518 31.536 95.64H11.536ZM16.1868 106.596C19.0195 109.192 22.6129 110.632 26.528 110.632V90.632C27.0162 90.632 27.6244 90.721 28.2645 90.9725C28.9018 91.2228 29.3823 91.5601 29.7012 91.8525L16.1868 106.596ZM26.528 110.632H103.072V90.632H26.528V110.632ZM93.072 100.632V111H113.072V100.632H93.072ZM103.072 101H26.528V121H103.072V101ZM123.458 108.952L118.13 117.414L118.311 117.528L118.497 117.634L123.458 108.952ZM117.826 103.32L109.144 108.281L109.25 108.467L109.364 108.648L117.826 103.32ZM117.826 44.568L109.278 39.3782L109.25 39.4239L109.223 39.47L117.826 44.568ZM123.458 38.936L128.556 47.5389L128.602 47.5116L128.648 47.4839L123.458 38.936ZM183.618 38.936L178.29 47.3983L178.471 47.5123L178.657 47.6184L183.618 38.936ZM189.25 44.568L180.568 49.5294L180.674 49.7151L180.788 49.8961L189.25 44.568ZM189.25 103.32L180.702 98.1302L180.674 98.176L180.647 98.222L189.25 103.32ZM183.618 108.952L188.716 117.555L188.762 117.528L188.808 117.5L183.618 108.952ZM179.266 99.096L186.337 106.167L186.337 106.167L179.266 99.096ZM179.266 48.792L171.894 55.5493L172.188 55.8697L172.509 56.1635L179.266 48.792ZM127.682 48.792L134.753 55.8631L127.682 48.792ZM127.682 99.096L120.31 105.853L120.604 106.174L120.925 106.468L127.682 99.096ZM131.266 101C130.148 101 129.261 100.751 128.419 100.27L118.497 117.634C122.433 119.884 126.752 121 131.266 121V101ZM128.786 100.49C127.748 99.8361 126.942 99.0298 126.288 97.9919L109.364 108.648C111.611 112.218 114.56 115.167 118.13 117.414L128.786 100.49ZM126.508 98.3586C126.027 97.5167 125.778 96.6301 125.778 95.512H105.778C105.778 100.026 106.894 104.345 109.144 108.281L126.508 98.3586ZM125.778 95.512V52.248H105.778V95.512H125.778ZM125.778 52.248C125.778 51.1296 126.026 50.346 126.429 49.666L109.223 39.47C106.895 43.398 105.778 47.7343 105.778 52.248H125.778ZM126.374 49.7578C127.011 48.7086 127.727 48.03 128.556 47.5389L118.36 30.3331C114.581 32.5727 111.542 35.6487 109.278 39.3782L126.374 49.7578ZM128.648 47.4839C129.46 46.9905 130.266 46.76 131.266 46.76V26.76C126.634 26.76 122.234 27.9802 118.268 30.3881L128.648 47.4839ZM131.266 46.76H175.81V26.76H131.266V46.76ZM175.81 46.76C176.955 46.76 177.687 47.019 178.29 47.3983L188.946 30.4737C184.941 27.9517 180.468 26.76 175.81 26.76V46.76ZM178.657 47.6184C179.496 48.0979 180.088 48.6904 180.568 49.5294L197.932 39.6066C195.681 35.667 192.519 32.5048 188.579 30.2536L178.657 47.6184ZM180.788 49.8961C181.198 50.5479 181.426 51.2494 181.426 52.248H201.426C201.426 47.6146 200.203 43.1961 197.712 39.2399L180.788 49.8961ZM181.426 52.248V95.512H201.426V52.248H181.426ZM181.426 95.512C181.426 96.5121 181.196 97.3176 180.702 98.1302L197.798 108.51C200.206 104.544 201.426 100.144 201.426 95.512H181.426ZM180.647 98.222C180.156 99.0506 179.477 99.7671 178.428 100.404L188.808 117.5C192.537 115.236 195.613 112.197 197.853 108.418L180.647 98.222ZM178.52 100.349C177.887 100.724 177.072 101 175.81 101V121C180.351 121 184.741 119.91 188.716 117.555L178.52 100.349ZM175.81 101H131.266V121H175.81V101ZM131.266 110.504H175.81V90.504H131.266V110.504ZM175.81 110.504C179.743 110.504 183.464 109.04 186.337 106.167L172.195 92.0249C172.604 91.6159 173.185 91.1924 173.925 90.8911C174.659 90.592 175.326 90.504 175.81 90.504V110.504ZM186.337 106.167C189.11 103.394 190.802 99.7029 190.802 95.512H170.802C170.802 94.91 170.922 94.2027 171.227 93.4928C171.526 92.7945 171.91 92.31 172.195 92.0249L186.337 106.167ZM190.802 95.512V52.248H170.802V95.512H190.802ZM190.802 52.248C190.802 48.0245 189.073 44.2157 186.023 41.4205L172.509 56.1635C172.112 55.7999 171.636 55.2232 171.28 54.4214C170.922 53.6155 170.802 52.8469 170.802 52.248H190.802ZM186.638 42.0347C183.842 38.9854 180.034 37.256 175.81 37.256V57.256C175.211 57.256 174.442 57.1363 173.637 56.7781C172.835 56.4218 172.258 55.946 171.894 55.5493L186.638 42.0347ZM175.81 37.256H131.266V57.256H175.81V37.256ZM131.266 37.256C127.075 37.256 123.384 38.9478 120.611 41.7209L134.753 55.8631C134.468 56.1481 133.983 56.5322 133.285 56.8314C132.575 57.1357 131.868 57.256 131.266 57.256V37.256ZM120.611 41.7209C117.738 44.594 116.274 48.3151 116.274 52.248H136.274C136.274 52.7323 136.186 53.399 135.887 54.133C135.586 54.8726 135.162 55.4541 134.753 55.8631L120.611 41.7209ZM116.274 52.248V95.512H136.274V52.248H116.274ZM116.274 95.512C116.274 99.4271 117.714 103.021 120.31 105.853L135.054 92.3388C135.346 92.6577 135.683 93.1382 135.934 93.7755C136.185 94.4156 136.274 95.0238 136.274 95.512H116.274ZM120.925 106.468C123.757 109.064 127.351 110.504 131.266 110.504V90.504C131.754 90.504 132.362 90.593 133.003 90.8445C133.64 91.0948 134.12 91.4321 134.439 91.7245L120.925 106.468ZM208.499 108.952L203.171 117.414L203.352 117.528L203.538 117.634L208.499 108.952ZM202.867 103.32L194.185 108.281L194.291 108.467L194.405 108.648L202.867 103.32ZM202.867 44.568L194.319 39.3782L194.291 39.4239L194.264 39.47L202.867 44.568ZM208.499 38.936L213.597 47.5389L213.643 47.5116L213.689 47.4839L208.499 38.936ZM265.971 36.76V46.76H275.971V36.76H265.971ZM265.971 12.44V2.43999H255.971V12.44H265.971ZM276.467 12.44H286.467V2.43999H276.467V12.44ZM276.467 111V121H286.467V111H276.467ZM264.435 99.096L271.506 106.167L271.506 106.167L264.435 99.096ZM264.435 48.792L257.063 55.5493L257.357 55.8697L257.678 56.1635L264.435 48.792ZM212.851 48.792L205.78 41.7209L205.78 41.7209L212.851 48.792ZM212.851 99.096L205.479 105.853L205.773 106.174L206.094 106.468L212.851 99.096ZM216.435 101C215.176 101 214.256 100.724 213.46 100.27L203.538 117.634C207.521 119.911 211.892 121 216.435 121V101ZM213.827 100.49C212.789 99.8361 211.983 99.0298 211.329 97.9919L194.405 108.648C196.652 112.218 199.601 115.167 203.171 117.414L213.827 100.49ZM211.549 98.3586C211.068 97.5167 210.819 96.6301 210.819 95.512H190.819C190.819 100.026 191.935 104.345 194.185 108.281L211.549 98.3586ZM210.819 95.512V52.248H190.819V95.512H210.819ZM210.819 52.248C210.819 51.1296 211.067 50.346 211.47 49.666L194.264 39.47C191.936 43.398 190.819 47.7343 190.819 52.248H210.819ZM211.415 49.7578C212.052 48.7086 212.768 48.03 213.597 47.5389L203.401 30.3331C199.622 32.5727 196.583 35.6487 194.319 39.3782L211.415 49.7578ZM213.689 47.4839C214.453 47.0201 215.291 46.76 216.435 46.76V26.76C211.776 26.76 207.324 27.9505 203.309 30.3881L213.689 47.4839ZM216.435 46.76H265.971V26.76H216.435V46.76ZM275.971 36.76V12.44H255.971V36.76H275.971ZM265.971 22.44H276.467V2.43999H265.971V22.44ZM266.467 12.44V111H286.467V12.44H266.467ZM276.467 101H216.435V121H276.467V101ZM216.435 110.504H260.979V90.504H216.435V110.504ZM260.979 110.504C264.912 110.504 268.633 109.04 271.506 106.167L257.364 92.0249C257.773 91.6159 258.354 91.1924 259.094 90.8911C259.828 90.592 260.495 90.504 260.979 90.504V110.504ZM271.506 106.167C274.279 103.394 275.971 99.7029 275.971 95.512H255.971C255.971 94.91 256.091 94.2027 256.396 93.4928C256.695 92.7945 257.079 92.31 257.364 92.0249L271.506 106.167ZM275.971 95.512V52.248H255.971V95.512H275.971ZM275.971 52.248C275.971 48.0245 274.242 44.2157 271.192 41.4205L257.678 56.1635C257.281 55.7999 256.805 55.2232 256.449 54.4214C256.091 53.6155 255.971 52.8469 255.971 52.248H275.971ZM271.807 42.0347C269.011 38.9854 265.203 37.256 260.979 37.256V57.256C260.38 57.256 259.611 57.1363 258.806 56.7781C258.004 56.4218 257.427 55.946 257.063 55.5493L271.807 42.0347ZM260.979 37.256H216.435V57.256H260.979V37.256ZM216.435 37.256C212.244 37.256 208.553 38.9478 205.78 41.7209L219.922 55.8631C219.637 56.1481 219.152 56.5322 218.454 56.8314C217.744 57.1357 217.037 57.256 216.435 57.256V37.256ZM205.78 41.7209C202.907 44.594 201.443 48.3151 201.443 52.248H221.443C221.443 52.7323 221.355 53.399 221.056 54.133C220.755 54.8726 220.331 55.4541 219.922 55.8631L205.78 41.7209ZM201.443 52.248V95.512H221.443V52.248H201.443ZM201.443 95.512C201.443 99.4271 202.883 103.021 205.479 105.853L220.223 92.3388C220.515 92.6577 220.852 93.1382 221.103 93.7755C221.354 94.4156 221.443 95.0238 221.443 95.512H201.443ZM206.094 106.468C208.926 109.064 212.52 110.504 216.435 110.504V90.504C216.923 90.504 217.531 90.593 218.172 90.8445C218.809 91.0948 219.289 91.4321 219.608 91.7245L206.094 106.468ZM294.958 108.952L289.63 117.414L289.811 117.528L289.997 117.634L294.958 108.952ZM289.326 103.32L280.644 108.281L280.75 108.467L280.864 108.648L289.326 103.32ZM289.326 44.568L280.778 39.3782L280.75 39.4239L280.723 39.47L289.326 44.568ZM294.958 38.936L300.056 47.5389L300.102 47.5116L300.148 47.4839L294.958 38.936ZM355.118 38.936L349.79 47.3983L349.971 47.5123L350.157 47.6184L355.118 38.936ZM360.75 44.568L352.068 49.5294L352.174 49.7151L352.288 49.8961L360.75 44.568ZM362.926 79.128V89.128H372.926V79.128H362.926ZM297.774 79.128V69.128H287.774V79.128H297.774ZM299.182 99.096L291.81 105.853L292.104 106.174L292.425 106.468L299.182 99.096ZM362.926 100.504H372.926V90.504H362.926V100.504ZM362.926 111V121H372.926V111H362.926ZM297.774 68.632H287.774V78.632H297.774V68.632ZM352.302 68.632V78.632H362.302V68.632H352.302ZM350.766 48.792L343.394 55.5493L343.688 55.8697L344.009 56.1635L350.766 48.792ZM299.182 48.792L306.253 55.8631L299.182 48.792ZM302.766 101C301.648 101 300.761 100.751 299.919 100.27L289.997 117.634C293.933 119.884 298.252 121 302.766 121V101ZM300.286 100.49C299.248 99.8361 298.442 99.0298 297.788 97.9919L280.864 108.648C283.111 112.218 286.06 115.167 289.63 117.414L300.286 100.49ZM298.008 98.3586C297.527 97.5167 297.278 96.6301 297.278 95.512H277.278C277.278 100.026 278.394 104.345 280.644 108.281L298.008 98.3586ZM297.278 95.512V52.248H277.278V95.512H297.278ZM297.278 52.248C297.278 51.1296 297.526 50.346 297.929 49.666L280.723 39.47C278.395 43.398 277.278 47.7343 277.278 52.248H297.278ZM297.874 49.7578C298.511 48.7086 299.227 48.03 300.056 47.5389L289.86 30.3331C286.081 32.5727 283.042 35.6487 280.778 39.3782L297.874 49.7578ZM300.148 47.4839C300.96 46.9905 301.766 46.76 302.766 46.76V26.76C298.134 26.76 293.734 27.9802 289.768 30.3881L300.148 47.4839ZM302.766 46.76H347.31V26.76H302.766V46.76ZM347.31 46.76C348.455 46.76 349.187 47.019 349.79 47.3983L360.446 30.4737C356.441 27.9517 351.968 26.76 347.31 26.76V46.76ZM350.157 47.6184C350.996 48.0979 351.588 48.6904 352.068 49.5294L369.432 39.6066C367.181 35.667 364.019 32.5048 360.079 30.2536L350.157 47.6184ZM352.288 49.8961C352.698 50.5479 352.926 51.2494 352.926 52.248H372.926C372.926 47.6146 371.703 43.1961 369.212 39.2399L352.288 49.8961ZM352.926 52.248V79.128H372.926V52.248H352.926ZM362.926 69.128H297.774V89.128H362.926V69.128ZM287.774 79.128V95.512H307.774V79.128H287.774ZM287.774 95.512C287.774 99.4271 289.214 103.021 291.81 105.853L306.554 92.3388C306.846 92.6577 307.183 93.1382 307.434 93.7755C307.685 94.4156 307.774 95.0238 307.774 95.512H287.774ZM292.425 106.468C295.257 109.064 298.851 110.504 302.766 110.504V90.504C303.254 90.504 303.862 90.593 304.503 90.8445C305.14 91.0948 305.62 91.4321 305.939 91.7245L292.425 106.468ZM302.766 110.504H362.926V90.504H302.766V110.504ZM352.926 100.504V111H372.926V100.504H352.926ZM362.926 101H302.766V121H362.926V101ZM297.774 78.632H352.302V58.632H297.774V78.632ZM362.302 68.632V52.248H342.302V68.632H362.302ZM362.302 52.248C362.302 48.0245 360.573 44.2157 357.523 41.4205L344.009 56.1635C343.612 55.7999 343.136 55.2232 342.78 54.4214C342.422 53.6155 342.302 52.8469 342.302 52.248H362.302ZM358.138 42.0347C355.342 38.9854 351.534 37.256 347.31 37.256V57.256C346.711 57.256 345.942 57.1363 345.137 56.7781C344.335 56.4218 343.758 55.946 343.394 55.5493L358.138 42.0347ZM347.31 37.256H302.766V57.256H347.31V37.256ZM302.766 37.256C298.575 37.256 294.884 38.9478 292.111 41.7209L306.253 55.8631C305.968 56.1481 305.483 56.5322 304.785 56.8314C304.075 57.1357 303.368 57.256 302.766 57.256V37.256ZM292.111 41.7209C289.238 44.594 287.774 48.3151 287.774 52.248H307.774C307.774 52.7323 307.686 53.399 307.387 54.133C307.086 54.8726 306.662 55.4541 306.253 55.8631L292.111 41.7209ZM287.774 52.248V68.632H307.774V52.248H287.774ZM376.671 111H366.671V121H376.671V111ZM376.671 18.712V8.712H366.671V18.712H376.671ZM387.039 18.712H397.039V8.712H387.039V18.712ZM387.039 100.632H377.039V110.632H387.039V100.632ZM468.831 100.632H478.831V90.632H468.831V100.632ZM468.831 111V121H478.831V111H468.831ZM386.671 111V18.712H366.671V111H386.671ZM376.671 28.712H387.039V8.712H376.671V28.712ZM377.039 18.712V100.632H397.039V18.712H377.039ZM387.039 110.632H468.831V90.632H387.039V110.632ZM458.831 100.632V111H478.831V100.632H458.831ZM468.831 101H376.671V121H468.831V101ZM483.461 108.952L478.133 117.414L478.314 117.528L478.5 117.634L483.461 108.952ZM477.829 103.32L469.147 108.281L469.253 108.467L469.367 108.648L477.829 103.32ZM475.781 68.632V58.632H465.781V68.632H475.781ZM540.805 68.632V78.632H550.805V68.632H540.805ZM539.269 48.792L531.897 55.5493L532.191 55.8697L532.512 56.1635L539.269 48.792ZM475.781 47.256H465.781V57.256H475.781V47.256ZM475.781 36.76V26.76H465.781V36.76H475.781ZM543.621 38.936L538.293 47.3983L538.474 47.5123L538.66 47.6184L543.621 38.936ZM549.253 44.568L540.571 49.5294L540.677 49.7151L540.791 49.8961L549.253 44.568ZM551.429 111V121H561.429V111H551.429ZM540.805 100.504V110.504H550.805V100.504H540.805ZM540.805 79.128H550.805V69.128H540.805V79.128ZM486.277 79.128V69.128H476.277V79.128H486.277ZM487.685 99.096L480.313 105.853L480.607 106.174L480.928 106.468L487.685 99.096ZM491.269 101C490.151 101 489.264 100.751 488.422 100.27L478.5 117.634C482.436 119.884 486.755 121 491.269 121V101ZM488.789 100.49C487.751 99.8361 486.945 99.0298 486.291 97.9919L469.367 108.648C471.614 112.218 474.563 115.167 478.133 117.414L488.789 100.49ZM486.511 98.3586C486.03 97.5167 485.781 96.6301 485.781 95.512H465.781C465.781 100.026 466.897 104.345 469.147 108.281L486.511 98.3586ZM485.781 95.512V68.632H465.781V95.512H485.781ZM475.781 78.632H540.805V58.632H475.781V78.632ZM550.805 68.632V52.248H530.805V68.632H550.805ZM550.805 52.248C550.805 48.0245 549.076 44.2157 546.026 41.4205L532.512 56.1635C532.115 55.7999 531.639 55.2232 531.283 54.4214C530.925 53.6155 530.805 52.8469 530.805 52.248H550.805ZM546.641 42.0347C543.845 38.9854 540.037 37.256 535.813 37.256V57.256C535.214 57.256 534.445 57.1363 533.64 56.7781C532.838 56.4218 532.261 55.946 531.897 55.5493L546.641 42.0347ZM535.813 37.256H475.781V57.256H535.813V37.256ZM485.781 47.256V36.76H465.781V47.256H485.781ZM475.781 46.76H535.813V26.76H475.781V46.76ZM535.813 46.76C536.958 46.76 537.69 47.019 538.293 47.3983L548.949 30.4737C544.944 27.9517 540.471 26.76 535.813 26.76V46.76ZM538.66 47.6184C539.499 48.0979 540.091 48.6904 540.571 49.5294L557.935 39.6066C555.684 35.667 552.522 32.5048 548.582 30.2536L538.66 47.6184ZM540.791 49.8961C541.201 50.5479 541.429 51.2494 541.429 52.248H561.429C561.429 47.6146 560.206 43.1961 557.715 39.2399L540.791 49.8961ZM541.429 52.248V111H561.429V52.248H541.429ZM551.429 101H491.269V121H551.429V101ZM491.269 110.504H540.805V90.504H491.269V110.504ZM550.805 100.504V79.128H530.805V100.504H550.805ZM540.805 69.128H486.277V89.128H540.805V69.128ZM476.277 79.128V95.512H496.277V79.128H476.277ZM476.277 95.512C476.277 99.4271 477.717 103.021 480.313 105.853L495.057 92.3388C495.349 92.6577 495.686 93.1382 495.937 93.7755C496.188 94.4156 496.277 95.0238 496.277 95.512H476.277ZM480.928 106.468C483.76 109.064 487.354 110.504 491.269 110.504V90.504C491.757 90.504 492.365 90.593 493.006 90.8445C493.643 91.0948 494.123 91.4321 494.442 91.7245L480.928 106.468ZM561.662 111H551.662V121H561.662V111ZM561.662 12.44V2.43999H551.662V12.44H561.662ZM572.158 12.44H582.158V2.43999H572.158V12.44ZM572.158 36.76H562.158V46.76H572.158V36.76ZM629.502 38.936L624.174 47.3983L624.355 47.5123L624.541 47.6184L629.502 38.936ZM635.134 44.568L626.452 49.5294L626.558 49.7151L626.672 49.8961L635.134 44.568ZM635.134 103.32L626.586 98.1302L626.558 98.176L626.531 98.222L635.134 103.32ZM629.502 108.952L634.6 117.555L634.646 117.528L634.692 117.5L629.502 108.952ZM625.278 99.096L618.207 92.0249L618.207 92.0249L625.278 99.096ZM625.278 48.792L617.906 55.5492L618.2 55.8697L618.521 56.1635L625.278 48.792ZM573.694 48.792L580.451 56.1635L580.611 56.0167L580.765 55.8631L573.694 48.792ZM573.694 99.096L566.623 106.167L566.777 106.321L566.937 106.468L573.694 99.096ZM571.662 111V12.44H551.662V111H571.662ZM561.662 22.44H572.158V2.43999H561.662V22.44ZM562.158 12.44V36.76H582.158V12.44H562.158ZM572.158 46.76H621.822V26.76H572.158V46.76ZM621.822 46.76C622.821 46.76 623.522 46.9879 624.174 47.3983L634.83 30.4737C630.874 27.9827 626.455 26.76 621.822 26.76V46.76ZM624.541 47.6184C625.38 48.0979 625.972 48.6904 626.452 49.5294L643.816 39.6066C641.565 35.667 638.403 32.5048 634.463 30.2536L624.541 47.6184ZM626.672 49.8961C627.082 50.5479 627.31 51.2494 627.31 52.248H647.31C647.31 47.6146 646.087 43.1961 643.596 39.2399L626.672 49.8961ZM627.31 52.248V95.512H647.31V52.248H627.31ZM627.31 95.512C627.31 96.5121 627.08 97.3176 626.586 98.1302L643.682 108.51C646.09 104.544 647.31 100.144 647.31 95.512H627.31ZM626.531 98.222C626.04 99.0506 625.361 99.7671 624.312 100.404L634.692 117.5C638.421 115.236 641.497 112.197 643.737 108.418L626.531 98.222ZM624.404 100.349C623.724 100.752 622.94 101 621.822 101V121C626.336 121 630.672 119.883 634.6 117.555L624.404 100.349ZM621.822 101H561.662V121H621.822V101ZM577.278 110.504H621.822V90.504H577.278V110.504ZM621.822 110.504C625.755 110.504 629.476 109.04 632.349 106.167L618.207 92.0249C618.616 91.616 619.197 91.1924 619.937 90.8911C620.671 90.592 621.338 90.504 621.822 90.504V110.504ZM632.349 106.167C635.122 103.394 636.814 99.7029 636.814 95.512H616.814C616.814 94.91 616.934 94.2026 617.239 93.4928C617.538 92.7945 617.922 92.31 618.207 92.0249L632.349 106.167ZM636.814 95.512V52.248H616.814V95.512H636.814ZM636.814 52.248C636.814 48.0245 635.085 44.2157 632.035 41.4205L618.521 56.1635C618.124 55.7999 617.648 55.2232 617.292 54.4214C616.934 53.6155 616.814 52.8469 616.814 52.248H636.814ZM632.65 42.0348C629.854 38.9854 626.046 37.256 621.822 37.256V57.256C621.223 57.256 620.454 57.1363 619.649 56.7781C618.847 56.4218 618.27 55.946 617.906 55.5492L632.65 42.0348ZM621.822 37.256H577.278V57.256H621.822V37.256ZM577.278 37.256C573.087 37.256 569.396 38.9478 566.623 41.7209L580.765 55.8631C580.48 56.1481 579.995 56.5322 579.297 56.8314C578.587 57.1357 577.88 57.256 577.278 57.256V37.256ZM566.937 41.4205C563.887 44.2157 562.158 48.0245 562.158 52.248H582.158C582.158 52.8469 582.038 53.6155 581.68 54.4214C581.324 55.2232 580.848 55.7999 580.451 56.1635L566.937 41.4205ZM562.158 52.248V95.512H582.158V52.248H562.158ZM562.158 95.512C562.158 99.7029 563.85 103.394 566.623 106.167L580.765 92.0249C581.05 92.31 581.434 92.7945 581.733 93.4928C582.038 94.2026 582.158 94.91 582.158 95.512H562.158ZM566.937 106.468C569.769 109.064 573.363 110.504 577.278 110.504V90.504C577.766 90.504 578.374 90.593 579.015 90.8445C579.652 91.0948 580.132 91.4321 580.451 91.7245L566.937 106.468ZM653.949 108.952L648.621 117.414L648.802 117.528L648.988 117.634L653.949 108.952ZM648.317 103.32L639.635 108.281L639.741 108.467L639.855 108.648L648.317 103.32ZM646.269 94.488V84.488H636.269V94.488H646.269ZM656.765 94.488H666.765V84.488H656.765V94.488ZM658.173 99.096L650.801 105.853L651.095 106.174L651.416 106.468L658.173 99.096ZM709.757 99.096L702.686 92.0249L702.686 92.0249L709.757 99.096ZM709.757 80.664L702.385 87.4212L702.679 87.7417L703 88.0355L709.757 80.664ZM653.949 77.08L648.621 85.5423L648.802 85.6563L648.988 85.7624L653.949 77.08ZM648.317 71.448L639.635 76.4094L639.741 76.5951L639.855 76.7761L648.317 71.448ZM648.317 44.568L639.769 39.3782L639.741 39.4239L639.714 39.47L648.317 44.568ZM653.949 38.936L659.047 47.5389L659.093 47.5116L659.139 47.4839L653.949 38.936ZM714.109 38.936L708.781 47.3983L708.962 47.5123L709.148 47.6184L714.109 38.936ZM719.741 44.568L711.059 49.5294L711.165 49.7151L711.279 49.8961L719.741 44.568ZM721.917 53.272V63.272H731.917V53.272H721.917ZM711.293 53.272H701.293V63.272H711.293V53.272ZM709.757 48.792L702.385 55.5492L702.679 55.8697L703 56.1635L709.757 48.792ZM658.173 48.792L651.102 41.7209L651.102 41.7209L658.173 48.792ZM658.173 67.224L650.801 73.9812L651.095 74.3018L651.416 74.5955L658.173 67.224ZM714.109 70.808L708.781 79.2703L708.962 79.3843L709.148 79.4904L714.109 70.808ZM719.741 76.44L711.059 81.4014L711.165 81.5871L711.279 81.7681L719.741 76.44ZM719.741 103.32L711.193 98.1302L711.165 98.1759L711.138 98.222L719.741 103.32ZM714.109 108.952L719.207 117.555L719.253 117.528L719.299 117.5L714.109 108.952ZM661.757 101C660.639 101 659.752 100.751 658.91 100.27L648.988 117.634C652.924 119.884 657.243 121 661.757 121V101ZM659.277 100.49C658.239 99.8361 657.433 99.0298 656.779 97.9919L639.855 108.648C642.102 112.218 645.051 115.167 648.621 117.414L659.277 100.49ZM656.999 98.3586C656.518 97.5167 656.269 96.6301 656.269 95.512H636.269C636.269 100.026 637.385 104.345 639.635 108.281L656.999 98.3586ZM656.269 95.512V94.488H636.269V95.512H656.269ZM646.269 104.488H656.765V84.488H646.269V104.488ZM646.765 94.488V95.512H666.765V94.488H646.765ZM646.765 95.512C646.765 99.4271 648.205 103.021 650.801 105.853L665.545 92.3388C665.837 92.6577 666.174 93.1382 666.425 93.7755C666.676 94.4156 666.765 95.0238 666.765 95.512H646.765ZM651.416 106.468C654.248 109.064 657.842 110.504 661.757 110.504V90.504C662.245 90.504 662.853 90.593 663.494 90.8445C664.131 91.0948 664.611 91.4321 664.93 91.7245L651.416 106.468ZM661.757 110.504H706.301V90.504H661.757V110.504ZM706.301 110.504C710.234 110.504 713.955 109.04 716.828 106.167L702.686 92.0249C703.095 91.6159 703.676 91.1924 704.416 90.8911C705.15 90.592 705.817 90.504 706.301 90.504V110.504ZM716.828 106.167C719.601 103.394 721.293 99.7029 721.293 95.512H701.293C701.293 94.91 701.413 94.2026 701.718 93.4928C702.017 92.7945 702.401 92.31 702.686 92.0249L716.828 106.167ZM721.293 95.512V84.12H701.293V95.512H721.293ZM721.293 84.12C721.293 79.8965 719.564 76.0877 716.514 73.2925L703 88.0355C702.603 87.6719 702.127 87.0952 701.771 86.2934C701.413 85.4875 701.293 84.7189 701.293 84.12H721.293ZM717.129 73.9068C714.333 70.8574 710.525 69.128 706.301 69.128V89.128C705.702 89.128 704.933 89.0083 704.128 88.6501C703.326 88.2938 702.749 87.818 702.385 87.4212L717.129 73.9068ZM706.301 69.128H661.757V89.128H706.301V69.128ZM661.757 69.128C660.639 69.128 659.752 68.8787 658.91 68.3976L648.988 85.7624C652.924 88.012 657.243 89.128 661.757 89.128V69.128ZM659.277 68.6177C658.239 67.9641 657.433 67.1578 656.779 66.1199L639.855 76.7761C642.102 80.3462 645.051 83.2945 648.621 85.5423L659.277 68.6177ZM656.999 66.4866C656.518 65.6447 656.269 64.7581 656.269 63.64H636.269C636.269 68.1539 637.385 72.4727 639.635 76.4094L656.999 66.4866ZM656.269 63.64V52.248H636.269V63.64H656.269ZM656.269 52.248C656.269 51.1297 656.517 50.346 656.92 49.666L639.714 39.47C637.386 43.398 636.269 47.7343 636.269 52.248H656.269ZM656.865 49.7578C657.502 48.7086 658.218 48.03 659.047 47.5389L648.851 30.3331C645.072 32.5727 642.033 35.6487 639.769 39.3782L656.865 49.7578ZM659.139 47.4839C659.951 46.9905 660.757 46.76 661.757 46.76V26.76C657.125 26.76 652.725 27.9802 648.759 30.3881L659.139 47.4839ZM661.757 46.76H706.301V26.76H661.757V46.76ZM706.301 46.76C707.446 46.76 708.178 47.019 708.781 47.3983L719.437 30.4737C715.432 27.9517 710.959 26.76 706.301 26.76V46.76ZM709.148 47.6184C709.987 48.0979 710.579 48.6904 711.059 49.5294L728.423 39.6066C726.172 35.667 723.01 32.5048 719.07 30.2536L709.148 47.6184ZM711.279 49.8961C711.689 50.5479 711.917 51.2494 711.917 52.248H731.917C731.917 47.6146 730.694 43.1961 728.203 39.2399L711.279 49.8961ZM711.917 52.248V53.272H731.917V52.248H711.917ZM721.917 43.272H711.293V63.272H721.917V43.272ZM721.293 53.272V52.248H701.293V53.272H721.293ZM721.293 52.248C721.293 48.0245 719.564 44.2157 716.514 41.4205L703 56.1635C702.603 55.7999 702.127 55.2232 701.771 54.4214C701.413 53.6155 701.293 52.8469 701.293 52.248H721.293ZM717.129 42.0348C714.333 38.9854 710.525 37.256 706.301 37.256V57.256C705.702 57.256 704.933 57.1363 704.128 56.7781C703.326 56.4218 702.749 55.946 702.385 55.5492L717.129 42.0348ZM706.301 37.256H661.757V57.256H706.301V37.256ZM661.757 37.256C657.566 37.256 653.875 38.9478 651.102 41.7209L665.244 55.8631C664.959 56.1481 664.474 56.5322 663.776 56.8314C663.066 57.1357 662.359 57.256 661.757 57.256V37.256ZM651.102 41.7209C648.229 44.594 646.765 48.3151 646.765 52.248H666.765C666.765 52.7323 666.677 53.3989 666.378 54.133C666.077 54.8726 665.653 55.4541 665.244 55.8631L651.102 41.7209ZM646.765 52.248V63.64H666.765V52.248H646.765ZM646.765 63.64C646.765 67.5551 648.205 71.1485 650.801 73.9812L665.545 60.4668C665.837 60.7857 666.174 61.2662 666.425 61.9035C666.676 62.5436 666.765 63.1518 666.765 63.64H646.765ZM651.416 74.5955C654.248 77.1922 657.842 78.632 661.757 78.632V58.632C662.245 58.632 662.853 58.721 663.494 58.9725C664.131 59.2228 664.611 59.56 664.93 59.8524L651.416 74.5955ZM661.757 78.632H706.301V58.632H661.757V78.632ZM706.301 78.632C707.446 78.632 708.178 78.891 708.781 79.2703L719.437 62.3457C715.432 59.8237 710.959 58.632 706.301 58.632V78.632ZM709.148 79.4904C709.987 79.9699 710.579 80.5624 711.059 81.4014L728.423 71.4786C726.172 67.539 723.01 64.3768 719.07 62.1256L709.148 79.4904ZM711.279 81.7681C711.689 82.4199 711.917 83.1214 711.917 84.12H731.917C731.917 79.4866 730.694 75.0681 728.203 71.1119L711.279 81.7681ZM711.917 84.12V95.512H731.917V84.12H711.917ZM711.917 95.512C711.917 96.5121 711.687 97.3176 711.193 98.1302L728.289 108.51C730.697 104.544 731.917 100.144 731.917 95.512H711.917ZM711.138 98.222C710.647 99.0506 709.968 99.7671 708.919 100.404L719.299 117.5C723.028 115.236 726.104 112.197 728.344 108.418L711.138 98.222ZM709.011 100.349C708.378 100.724 707.563 101 706.301 101V121C710.842 121 715.232 119.91 719.207 117.555L709.011 100.349ZM706.301 101H661.757V121H706.301V101Z" fill="#181D17" mask="url(#path-1-outside-1_439_4548)"/>
</g>
<defs>
<clipPath id="clip0_439_4548">
<rect width="734" height="127" fill="white"/>
</clipPath>
</defs>
</svg>
