<svg width="284" height="210" viewBox="0 0 284 210" fill="none" xmlns="http://www.w3.org/2000/svg">
<g clip-path="url(#clip0_223_2860)">
<path d="M201.585 154.023H48.6475C47.2848 154.021 45.9783 153.479 45.0148 152.515C44.0512 151.551 43.5091 150.245 43.5076 148.882V24.3164C43.5092 22.9533 44.0512 21.6465 45.0148 20.6826C45.9783 19.7188 47.2848 19.1766 48.6475 19.175H201.585C202.948 19.1766 204.254 19.7188 205.218 20.6826C206.182 21.6465 206.724 22.9533 206.725 24.3164V148.882C206.724 150.245 206.182 151.551 205.218 152.515C204.254 153.479 202.948 154.021 201.585 154.023Z" fill="#E6E6E6"/>
<path d="M52.1153 22.8345C50.8027 22.8361 49.5442 23.3583 48.616 24.2868C47.6879 25.2153 47.1658 26.4741 47.1643 27.7871V145.414C47.1659 146.727 47.688 147.985 48.6161 148.914C49.5443 149.842 50.8027 150.364 52.1153 150.366H156.795C169.064 150.352 180.826 145.471 189.501 136.794C198.176 128.116 203.056 116.351 203.07 104.079V27.7871C203.068 26.4741 202.546 25.2153 201.618 24.2868C200.69 23.3583 199.431 22.8361 198.119 22.8345L52.1153 22.8345Z" fill="white"/>
<path d="M173.697 75.7365H145.966C145.387 75.7359 144.833 75.5058 144.424 75.0967C144.015 74.6876 143.785 74.1329 143.784 73.5544V59.7483C143.785 59.1697 144.015 58.6151 144.424 58.206C144.833 57.7969 145.387 57.5668 145.966 57.5662H173.697C174.275 57.5668 174.83 57.7969 175.239 58.206C175.648 58.6151 175.878 59.1697 175.878 59.7483C177.594 64.6339 177.838 69.2763 175.878 73.5544C175.878 74.133 175.648 74.6876 175.239 75.0967C174.83 75.5058 174.275 75.7359 173.697 75.7365Z" fill="#E6E6E6"/>
<path d="M170.412 74.4022H146.851C146.36 74.4016 145.889 74.2061 145.541 73.8586C145.194 73.511 144.998 73.0398 144.998 72.5483V60.8185C144.998 60.327 145.194 59.8558 145.541 59.5082C145.889 59.1606 146.36 58.9651 146.851 58.9646H170.412C170.903 58.9651 171.374 59.1606 171.722 59.5082C172.069 59.8558 172.265 60.327 172.265 60.8185C173.855 64.9959 174.111 68.9489 172.265 72.5483C172.265 73.0398 172.069 73.511 171.722 73.8586C171.374 74.2061 170.903 74.4016 170.412 74.4022Z" fill="white"/>
<path d="M169.141 82.9686H150.46C149.911 82.9694 149.383 82.7518 148.994 82.3638C148.605 81.9757 148.386 81.449 148.385 80.8993C148.384 80.3496 148.601 79.822 148.989 79.4325C149.377 79.043 149.903 78.8235 150.453 78.8223H169.141C169.69 78.8233 170.216 79.0422 170.604 79.4309C170.992 79.8196 171.21 80.3463 171.21 80.8954C171.21 81.4446 170.992 81.9713 170.604 82.36C170.216 82.7487 169.69 82.9675 169.141 82.9686Z" fill="#E6E6E6"/>
<path d="M156.581 62.1318C156.366 62.1326 156.16 62.2184 156.008 62.3705C155.856 62.5226 155.771 62.7287 155.771 62.9436V71.7312C155.77 71.8731 155.808 72.0125 155.878 72.1355C155.949 72.2585 156.051 72.3608 156.174 72.4321C156.296 72.5034 156.436 72.5412 156.577 72.5418C156.719 72.5423 156.859 72.5056 156.982 72.4353L164.736 68.0127C164.861 67.9418 164.964 67.839 165.036 67.7149C165.108 67.5908 165.146 67.4498 165.146 67.3064C165.145 67.163 165.107 67.0222 165.034 66.8985C164.962 66.7748 164.857 66.6726 164.732 66.6024L156.979 62.237C156.857 62.1683 156.72 62.132 156.581 62.1318Z" fill="#E6E6E6"/>
<path d="M269.71 193.187C269.282 192.643 268.701 192.24 268.042 192.029C267.383 191.818 266.676 191.81 266.013 192.005L265.867 192.048L264.565 197.133C264.37 196.375 263.953 194.664 263.69 192.99L263.667 192.851L263.538 192.908C262.177 193.51 260.897 194.281 259.73 195.204C257.661 196.864 255.978 198.954 254.799 201.33C253.619 203.706 252.971 206.311 252.9 208.963L252.898 209.06L252.895 209.121L253.068 209.06L256.767 207.737C258.405 207.882 260.055 207.658 261.595 207.084C263.136 206.509 264.529 205.598 265.672 204.416C267.167 202.839 268.192 200.81 269.184 198.848C269.474 198.276 269.771 197.686 270.075 197.119C270.414 196.502 270.561 195.798 270.496 195.097C270.43 194.396 270.157 193.731 269.71 193.187Z" fill="#F2F2F2"/>
<path d="M175.234 63.5235C175.309 63.9084 175.466 64.2723 175.696 64.5896C175.926 64.907 176.223 65.17 176.566 65.3602C176.909 65.5504 177.289 65.6631 177.68 65.6904C178.071 65.7177 178.463 65.6589 178.829 65.5182L189.885 78.3841L191.285 73.6345L180.323 61.8637C180.046 61.2646 179.559 60.7881 178.955 60.5243C178.35 60.2605 177.669 60.2278 177.042 60.4324C176.414 60.637 175.884 61.0646 175.551 61.6344C175.218 62.2041 175.105 62.8762 175.234 63.5235Z" fill="#FFB8B8"/>
<path d="M219.795 205.984H216.136L214.396 191.867H219.796L219.795 205.984Z" fill="#FFB6B6"/>
<path d="M219.698 204.789L215.791 203.199L215.679 203.154L213.522 204.789C212.304 204.789 211.136 205.273 210.275 206.135C209.414 206.996 208.93 208.164 208.93 209.383V209.532H220.727V204.789H219.698Z" fill="#2F2E41"/>
<path d="M245.898 205.984H242.239L240.498 191.867H245.899L245.898 205.984Z" fill="#FFB6B6"/>
<path d="M245.8 204.789L241.893 203.199L241.782 203.154L239.625 204.789C238.407 204.789 237.239 205.273 236.377 206.135C235.516 206.996 235.032 208.164 235.032 209.383V209.532H246.83V204.789H245.8Z" fill="#2F2E41"/>
<path d="M237.262 121.681C237.262 121.681 241.852 126.457 241.852 130.381C241.852 134.306 240.704 139.694 241.852 140.873C242.999 142.053 244.433 143.487 242.712 145.209C240.991 146.93 240.13 147.791 241.278 148.939C242.425 150.086 241.852 170.171 241.852 170.171L247.875 197.141H240.286L230.665 170.171L228.083 147.791L219.734 169.31L220.656 197.372L212.722 197.141L209.438 167.301C209.438 167.301 214.315 138.917 213.454 138.189C212.594 137.462 213.454 135.993 213.454 135.993L215.749 125.124L237.262 121.681Z" fill="#2F2E41"/>
<path d="M228.276 87.8191C228.276 87.8191 229.837 81.6682 222.647 79.9046C215.458 78.1411 194.907 75.8754 194.907 75.8754L184.521 64.8516L181.001 69.9638L192.644 84.4361L220.232 90.1042L228.276 87.8191Z" fill="#3F3D56"/>
<path d="M182.712 69.587C183.035 69.169 183.287 68.7013 183.459 68.2022L184.949 64.5413L184.562 64.5252C184.027 64.4245 183.477 64.438 182.947 64.5649C182.418 64.6918 181.921 64.9292 181.49 65.2615C181.059 65.5937 180.702 66.0134 180.445 66.4931C180.187 66.9727 180.033 67.5014 179.994 68.0445C179.945 68.5143 180.029 68.9884 180.237 69.4125C180.343 69.6227 180.497 69.8049 180.687 69.9442C180.877 70.0834 181.097 70.1757 181.329 70.2135C181.593 70.2276 181.856 70.178 182.097 70.069C182.338 69.9599 182.549 69.7946 182.712 69.587Z" fill="#E6E6E6"/>
<path d="M214.284 126.59L213.424 132.83C213.424 132.83 215.145 134.679 216.005 134.447C216.866 134.216 220.021 132.871 220.021 132.871C220.021 132.871 223.75 134.91 225.758 135.141C227.766 135.372 238.379 133.985 238.666 133.292C238.953 132.599 242.287 129.885 242.287 129.885L240.961 121.968L214.284 126.59Z" fill="#E6E6E6"/>
<path d="M242.231 104.762C242.231 104.762 241.503 110.778 242.076 111.332C242.65 111.883 241.503 115.369 240.355 117.664C239.208 119.96 241.216 120.247 241.216 121.968C241.216 123.69 242.076 130.002 242.076 130.002C242.076 130.002 233.184 130.576 231.75 129.141C230.316 127.707 228.021 128.854 224.866 132.01C221.711 135.166 214.858 132.584 213.424 131.15C211.989 129.715 214.539 124.55 215.4 123.549C216.261 122.548 214.571 123.707 213.71 120.534C212.85 117.36 214.539 117.664 215.974 116.23C217.408 114.795 215.974 112.213 214.826 109.631C213.679 107.048 214.539 87.8248 214.539 83.2341C214.539 78.6434 220.85 78.0696 220.85 78.0696L223.348 74.9278L225.184 72.6181L228.781 72.4746L228.876 72.4718L232.355 72.3312L234.045 74.2995L237.774 78.6434L242.076 79.5042C245.518 80.6518 244.658 87.8248 244.658 87.8248L242.231 104.762Z" fill="#3F3D56"/>
<path d="M228.604 71.23C232.676 71.23 235.977 67.9279 235.977 63.8546C235.977 59.7814 232.676 56.4793 228.604 56.4793C224.532 56.4793 221.23 59.7814 221.23 63.8546C221.23 67.9279 224.532 71.23 228.604 71.23Z" fill="#FFB6B6"/>
<path d="M237.153 61.3736C235.125 60.1295 235.385 56.8767 233.431 55.7408C232.46 55.1808 231.368 54.8637 230.248 54.8167C229.127 54.7696 228.013 54.9939 226.998 55.4705C225.622 54.8815 223.973 55.3516 222.872 56.4151C221.771 57.4787 221.175 59.0477 220.999 60.6256C220.872 62.2109 220.986 63.8064 221.337 65.3576C221.446 64.7344 221.555 64.1111 221.665 63.4878L227.477 62.2171C226.963 62.6795 226.448 63.142 225.934 63.6044C228.566 64.2039 231.328 63.7718 233.652 62.397C236.183 63.5317 235.724 66.0801 233.503 69.462C234.363 70.8966 239.464 62.7912 237.153 61.3736Z" fill="#2F2E41"/>
<path d="M234.045 74.2994C234.028 74.3128 234.011 74.3253 233.993 74.3367C233.385 74.6992 232.69 74.8878 231.982 74.8819C231.056 74.9592 230.137 74.6708 229.421 74.0785C229.045 73.7227 227.551 74.4744 226.57 74.8905C225.541 75.3171 224.387 75.3304 223.348 74.9278L225.184 72.6181L228.21 71.9471H228.965L232.355 72.3312L234.045 74.2994Z" fill="#E6E6E6"/>
<path d="M283.553 209.884L180.917 210C180.858 210 180.799 209.989 180.745 209.967C180.69 209.944 180.64 209.911 180.598 209.87C180.556 209.828 180.523 209.779 180.5 209.724C180.477 209.67 180.465 209.612 180.465 209.553C180.465 209.493 180.476 209.435 180.498 209.38C180.52 209.325 180.553 209.276 180.595 209.234C180.636 209.192 180.686 209.158 180.74 209.135C180.795 209.113 180.853 209.101 180.912 209.1H180.917L283.553 208.984C283.672 208.985 283.785 209.032 283.869 209.117C283.953 209.201 284 209.315 284 209.434C284 209.553 283.953 209.667 283.869 209.751C283.785 209.836 283.672 209.883 283.553 209.884Z" fill="#CACACA"/>
<path d="M160.661 58.8192H159.905V4.77936H189.613V5.53493H160.661V58.8192Z" fill="#3F3D56"/>
<path d="M212.717 0H192.699C191.397 0 190.148 0.517434 189.228 1.43847C188.307 2.35951 187.79 3.6087 187.79 4.91124C187.79 6.21378 188.307 7.46297 189.228 8.38401C190.148 9.30504 191.397 9.82247 192.699 9.82247H212.717C214.019 9.82247 215.268 9.30504 216.189 8.38401C217.109 7.46297 217.627 6.21378 217.627 4.91124C217.627 3.6087 217.109 2.35951 216.189 1.43847C215.268 0.517434 214.019 0 212.717 0Z" fill="#50FA7B"/>
<path d="M159.845 63.7631C162.336 63.7631 164.356 61.7425 164.356 59.2501C164.356 56.7576 162.336 54.7371 159.845 54.7371C157.353 54.7371 155.333 56.7576 155.333 59.2501C155.333 61.7425 157.353 63.7631 159.845 63.7631Z" fill="#50FA7B"/>
<path d="M105.477 76.2081L125.27 71.6267L130.951 70.3116C131.662 70.1471 131.366 69.0527 130.656 69.2172L110.863 73.7987L105.181 75.1138C104.471 75.2783 104.766 76.3727 105.477 76.2081Z" fill="#F2F2F2"/>
<path d="M125.915 64.2767L136.511 69.1522C136.873 69.2773 137.212 69.4607 137.514 69.6952C137.806 69.9817 137.594 70.2573 137.355 70.5069C136.642 71.1731 135.889 71.7949 135.1 72.369L130.585 76.04C130.019 76.5009 130.818 77.305 131.38 76.8485L135.311 73.6511L137.277 72.0524C137.834 71.5995 138.512 71.1373 138.736 70.4157C139.206 68.8999 137.35 68.2971 136.319 67.8226L131.705 65.6994L126.492 63.301C125.835 62.9987 125.253 63.9721 125.915 64.2767Z" fill="#F2F2F2"/>
<path d="M272.137 101.392C270.249 100.112 267.956 99.6361 265.715 99.4747C263.167 99.336 260.613 99.339 258.066 99.4837C255.42 99.5885 252.779 99.7801 250.143 100.058C247.512 100.337 244.891 100.702 242.281 101.153C239.945 101.517 237.633 102.024 235.358 102.669C233.205 103.265 231.176 104.245 229.371 105.561C227.786 106.754 226.567 108.367 225.853 110.217C225.151 111.953 225.032 113.869 225.513 115.679C225.769 116.557 226.208 117.372 226.8 118.07C227.485 118.836 228.296 119.478 229.198 119.969C231.07 121.039 233.192 121.682 234.886 123.051C235.332 123.409 235.739 123.814 236.1 124.259C236.345 124.603 236.683 124.869 237.075 125.026C237.447 125.156 237.848 125.173 238.229 125.075C238.61 124.977 238.954 124.768 239.216 124.475C239.555 124.011 239.838 123.508 240.059 122.977L240.952 121.252C241.012 121.102 241.087 120.957 241.176 120.821C241.243 120.741 241.123 120.823 241.146 120.802C241.158 120.79 241.184 120.791 241.199 120.781C241.272 120.745 241.35 120.715 241.429 120.693C242.256 120.378 243.086 120.073 243.92 119.777C246.998 118.68 250.112 117.668 253.277 116.849C254.905 116.413 256.556 116.067 258.223 115.814C260.382 115.507 262.573 115.542 264.742 115.332C267.076 115.106 269.485 114.633 271.488 113.347C273.143 112.341 274.419 110.814 275.114 109.005C275.416 108.143 275.519 107.225 275.417 106.317C275.157 104.264 273.816 102.53 272.137 101.392Z" fill="#E6E6E6"/>
<path d="M268.274 102.546C266.568 101.389 264.496 100.959 262.47 100.813C260.168 100.688 257.86 100.69 255.558 100.821C253.167 100.916 250.78 101.089 248.399 101.34C246.02 101.592 243.652 101.922 241.294 102.33C239.182 102.659 237.093 103.116 235.037 103.7C233.091 104.239 231.259 105.124 229.627 106.313C228.195 107.391 227.093 108.848 226.448 110.521C225.814 112.089 225.706 113.821 226.141 115.456C226.372 116.25 226.768 116.987 227.304 117.617C227.922 118.309 228.655 118.89 229.47 119.333C231.163 120.3 233.08 120.881 234.611 122.118C235.014 122.442 235.382 122.808 235.708 123.21C235.929 123.521 236.235 123.761 236.589 123.903C236.925 124.021 237.288 124.036 237.632 123.947C237.976 123.859 238.287 123.67 238.524 123.405C238.831 122.986 239.086 122.531 239.285 122.051L240.093 120.493C240.147 120.357 240.214 120.226 240.295 120.103C240.355 120.031 240.247 120.105 240.268 120.086C240.279 120.075 240.302 120.076 240.315 120.067C240.382 120.034 240.452 120.007 240.524 119.987C241.271 119.703 242.021 119.427 242.775 119.16C245.556 118.168 248.371 117.254 251.23 116.514C252.701 116.119 254.194 115.807 255.7 115.579C257.651 115.301 259.631 115.333 261.591 115.143C263.701 114.938 265.878 114.511 267.687 113.349C269.183 112.44 270.336 111.06 270.964 109.426C271.237 108.647 271.33 107.816 271.237 106.996C271.002 105.141 269.791 103.574 268.274 102.546Z" fill="white"/>
<path d="M264.701 104.635L236.903 109.763C236.823 109.778 236.742 109.777 236.662 109.761C236.583 109.744 236.508 109.713 236.441 109.667C236.374 109.621 236.317 109.563 236.273 109.495C236.229 109.427 236.198 109.352 236.183 109.272C236.168 109.192 236.169 109.111 236.186 109.032C236.203 108.952 236.235 108.877 236.281 108.81C236.326 108.744 236.385 108.687 236.453 108.643C236.521 108.599 236.597 108.568 236.676 108.554L236.68 108.553L264.478 103.425C264.557 103.41 264.639 103.411 264.718 103.428C264.797 103.445 264.872 103.477 264.938 103.523C265.005 103.569 265.061 103.627 265.105 103.695C265.149 103.763 265.179 103.839 265.194 103.918C265.209 103.997 265.208 104.079 265.191 104.158C265.174 104.237 265.142 104.312 265.096 104.378C265.05 104.445 264.992 104.502 264.924 104.546C264.856 104.59 264.78 104.62 264.701 104.635Z" fill="#E6E6E6"/>
<path d="M265.386 108.348L237.588 113.476C237.508 113.492 237.426 113.491 237.347 113.474C237.268 113.458 237.193 113.426 237.126 113.38C237.059 113.335 237.002 113.276 236.958 113.209C236.913 113.141 236.883 113.065 236.868 112.986C236.853 112.906 236.854 112.824 236.871 112.745C236.887 112.666 236.92 112.591 236.965 112.524C237.011 112.457 237.07 112.4 237.138 112.356C237.205 112.312 237.281 112.282 237.361 112.267L237.364 112.266L265.162 107.138C265.242 107.123 265.323 107.125 265.402 107.141C265.481 107.158 265.556 107.191 265.623 107.236C265.689 107.282 265.746 107.341 265.79 107.408C265.834 107.476 265.864 107.552 265.879 107.631C265.893 107.711 265.892 107.792 265.875 107.871C265.859 107.95 265.826 108.025 265.781 108.092C265.735 108.158 265.676 108.215 265.609 108.259C265.541 108.303 265.465 108.333 265.386 108.348Z" fill="#E6E6E6"/>
<path d="M241.512 116.592L238.272 117.19C238.112 117.219 237.947 117.183 237.813 117.091C237.679 116.998 237.588 116.856 237.558 116.696C237.529 116.536 237.564 116.371 237.656 116.236C237.748 116.102 237.889 116.01 238.049 115.98L241.289 115.382C241.449 115.353 241.614 115.389 241.748 115.481C241.882 115.574 241.974 115.716 242.003 115.876C242.033 116.036 241.998 116.201 241.906 116.336C241.813 116.47 241.672 116.562 241.512 116.592Z" fill="#E6E6E6"/>
<path d="M239.165 132.03C240.585 131.768 241.523 130.405 241.262 128.985C241 127.564 239.636 126.626 238.217 126.887C236.797 127.149 235.858 128.513 236.12 129.933C236.382 131.353 237.745 132.292 239.165 132.03Z" fill="#D1D3D4"/>
<path d="M95.3054 75.0371H71.5618C70.4595 75.0358 69.4028 74.5972 68.6234 73.8176C67.844 73.038 67.4056 71.981 67.4043 70.8784V55.2257C67.4056 54.1232 67.844 53.0662 68.6234 52.2866C69.4028 51.507 70.4595 51.0684 71.5618 51.0671H95.3054C96.4076 51.0684 97.4643 51.507 98.2437 52.2866C99.0231 53.0662 99.4615 54.1232 99.4628 55.2257V70.8785C99.4615 71.981 99.0231 73.038 98.2437 73.8176C97.4643 74.5972 96.4076 75.0358 95.3054 75.0371Z" fill="#E6E6E6"/>
<path d="M92.6961 74.1938H72.0316C71.0724 74.1927 70.1527 73.811 69.4744 73.1325C68.796 72.454 68.4145 71.5341 68.4133 70.5745V56.9517C68.4145 55.9921 68.796 55.0722 69.4744 54.3937C70.1527 53.7152 71.0724 53.3335 72.0316 53.3324H92.6961C93.6554 53.3335 94.575 53.7152 95.2534 54.3937C95.9317 55.0722 96.3133 55.9921 96.3144 56.9517V70.5745C96.3133 71.5341 95.9317 72.454 95.2534 73.1325C94.575 73.811 93.6554 74.1927 92.6961 74.1938Z" fill="white"/>
<path d="M98.6495 89.1392H68.1834C67.9951 89.1388 67.8147 89.0637 67.6818 88.9303C67.5488 88.797 67.4741 88.6164 67.4741 88.4281C67.4741 88.2398 67.5488 88.0592 67.6818 87.9259C67.8147 87.7926 67.9951 87.7175 68.1834 87.717H98.6495C98.8378 87.7175 99.0182 87.7926 99.1511 87.9259C99.2841 88.0592 99.3588 88.2398 99.3588 88.4281C99.3588 88.6164 99.2841 88.797 99.1511 88.9303C99.0182 89.0637 98.8378 89.1388 98.6495 89.1392Z" fill="#E6E6E6"/>
<path d="M98.6495 85.076H68.1834C67.9951 85.0755 67.8147 85.0004 67.6818 84.8671C67.5488 84.7338 67.4741 84.5532 67.4741 84.3649C67.4741 84.1766 67.5488 83.996 67.6818 83.8627C67.8147 83.7294 67.9951 83.6542 68.1834 83.6538H98.6495C98.8378 83.6542 99.0182 83.7294 99.1511 83.8627C99.2841 83.996 99.3588 84.1766 99.3588 84.3649C99.3588 84.5532 99.2841 84.7338 99.1511 84.8671C99.0182 85.0004 98.8378 85.0755 98.6495 85.076Z" fill="#E6E6E6"/>
<path d="M98.6497 93.2025H68.1835C67.995 93.2025 67.8142 93.1276 67.6809 92.9942C67.5475 92.8609 67.4727 92.68 67.4727 92.4914C67.4727 92.3028 67.5475 92.122 67.6809 91.9886C67.8142 91.8553 67.995 91.7803 68.1835 91.7803H98.6497C98.8382 91.7803 99.019 91.8553 99.1524 91.9886C99.2857 92.122 99.3606 92.3028 99.3606 92.4914C99.3606 92.68 99.2857 92.8609 99.1524 92.9942C99.019 93.1276 98.8382 93.2025 98.6497 93.2025Z" fill="#E6E6E6"/>
<path d="M98.6497 97.2657H68.1835C67.995 97.2657 67.8142 97.1908 67.6809 97.0574C67.5475 96.9241 67.4727 96.7432 67.4727 96.5546C67.4727 96.3661 67.5475 96.1852 67.6809 96.0518C67.8142 95.9185 67.995 95.8436 68.1835 95.8436H98.6497C98.8382 95.8436 99.019 95.9185 99.1524 96.0518C99.2857 96.1852 99.3606 96.3661 99.3606 96.5546C99.3606 96.7432 99.2857 96.9241 99.1524 97.0574C99.019 97.1908 98.8382 97.2657 98.6497 97.2657Z" fill="#E6E6E6"/>
<path d="M98.6497 101.329H68.1835C67.995 101.329 67.8142 101.254 67.6809 101.121C67.5475 100.987 67.4727 100.807 67.4727 100.618C67.4727 100.429 67.5475 100.248 67.6809 100.115C67.8142 99.9818 67.995 99.9069 68.1835 99.9069H98.6497C98.8382 99.9069 99.019 99.9818 99.1524 100.115C99.2857 100.248 99.3606 100.429 99.3606 100.618C99.3606 100.807 99.2857 100.987 99.1524 101.121C99.019 101.254 98.8382 101.329 98.6497 101.329Z" fill="#E6E6E6"/>
<path d="M98.6495 105.392H68.1834C67.9951 105.392 67.8147 105.317 67.6818 105.183C67.5488 105.05 67.4741 104.869 67.4741 104.681C67.4741 104.493 67.5488 104.312 67.6818 104.179C67.8147 104.046 67.9951 103.971 68.1834 103.97H98.6495C98.8378 103.971 99.0182 104.046 99.1511 104.179C99.2841 104.312 99.3588 104.493 99.3588 104.681C99.3588 104.869 99.2841 105.05 99.1511 105.183C99.0182 105.317 98.8378 105.392 98.6495 105.392Z" fill="#E6E6E6"/>
<path d="M81.8932 96.0736H82.6486V125.179H28.0139V124.424H81.8932V96.0736Z" fill="#3F3D56"/>
<path d="M4.9099 129.959H24.9272C26.2294 129.959 27.4782 129.441 28.399 128.52C29.3198 127.599 29.8371 126.35 29.8371 125.048C29.8371 123.745 29.3198 122.496 28.399 121.575C27.4782 120.654 26.2294 120.136 24.9272 120.136H4.9099C3.60771 120.136 2.35886 120.654 1.43808 121.575C0.517293 122.496 0 123.745 0 125.048C0 126.35 0.517293 127.599 1.43808 128.52C2.35886 129.441 3.60771 129.959 4.9099 129.959Z" fill="#50FA7B"/>
<path d="M82.7969 98.2668C85.2887 98.2668 87.3087 96.2463 87.3087 93.7538C87.3087 91.2613 85.2887 89.2408 82.7969 89.2408C80.3052 89.2408 78.2852 91.2613 78.2852 93.7538C78.2852 96.2463 80.3052 98.2668 82.7969 98.2668Z" fill="#50FA7B"/>
<path d="M106.117 95.0079C112.741 96.4161 111.056 96.691 117.68 98.0992L123.384 99.3118C124.098 99.4635 124.293 98.3469 123.579 98.1952C116.955 96.7869 118.64 96.5121 112.016 95.1039L106.312 93.8913C105.599 93.7396 105.403 94.8561 106.117 95.0079Z" fill="#F2F2F2"/>
<path d="M121.374 91.7127L128.913 100.614C129.188 100.881 129.417 101.19 129.592 101.531C129.736 101.914 129.426 102.074 129.104 102.199C128.176 102.501 127.231 102.745 126.273 102.932L120.63 104.348C119.922 104.525 120.306 105.592 121.008 105.416L125.923 104.183L128.38 103.566C129.077 103.392 129.886 103.26 130.394 102.701C131.462 101.526 130.035 100.195 129.301 99.3283L126.018 95.4518L122.31 91.0728C121.842 90.5208 120.903 91.1566 121.374 91.7127Z" fill="#F2F2F2"/>
<path d="M145.277 130.516C151.072 130.516 155.769 125.817 155.769 120.021C155.769 114.225 151.072 109.526 145.277 109.526C139.483 109.526 134.785 114.225 134.785 120.021C134.785 125.817 139.483 130.516 145.277 130.516Z" fill="#E6E6E6"/>
<path d="M144.255 129.178C148.66 129.178 152.231 125.606 152.231 121.199C152.231 116.793 148.66 113.221 144.255 113.221C139.849 113.221 136.278 116.793 136.278 121.199C136.278 125.606 139.849 129.178 144.255 129.178Z" fill="white"/>
<path d="M142.823 126.662C142.642 126.662 142.464 126.619 142.301 126.538C142.139 126.457 141.999 126.34 141.89 126.195L139.027 122.377C138.935 122.254 138.868 122.115 138.83 121.966C138.792 121.818 138.784 121.663 138.805 121.512C138.827 121.36 138.878 121.214 138.956 121.082C139.034 120.95 139.138 120.835 139.26 120.743C139.383 120.65 139.522 120.583 139.671 120.545C139.819 120.507 139.974 120.499 140.125 120.52C140.277 120.542 140.423 120.593 140.555 120.671C140.687 120.749 140.802 120.853 140.894 120.975L140.895 120.976L142.767 123.474L147.577 116.257C147.662 116.129 147.771 116.02 147.899 115.934C148.026 115.849 148.169 115.789 148.32 115.759C148.47 115.729 148.625 115.728 148.775 115.758C148.926 115.788 149.069 115.847 149.197 115.932C149.324 116.017 149.434 116.127 149.519 116.254C149.604 116.382 149.664 116.525 149.694 116.675C149.724 116.826 149.724 116.981 149.694 117.131C149.664 117.282 149.605 117.425 149.519 117.552L143.795 126.142C143.691 126.297 143.552 126.425 143.388 126.516C143.225 126.606 143.043 126.656 142.856 126.661C142.845 126.661 142.834 126.662 142.823 126.662Z" fill="#E6E6E6"/>
<path d="M243.248 130.833C243.586 130.634 243.876 130.364 244.098 130.041C244.32 129.718 244.469 129.35 244.533 128.963C244.598 128.577 244.577 128.18 244.472 127.803C244.367 127.425 244.18 127.075 243.925 126.777L252.35 112.052L247.407 112.321L239.982 126.59C239.511 127.052 239.225 127.67 239.178 128.329C239.132 128.987 239.329 129.639 239.731 130.162C240.134 130.685 240.714 131.042 241.362 131.166C242.01 131.289 242.681 131.171 243.248 130.833Z" fill="#FFB8B8"/>
<path d="M233.759 79.2173C233.759 79.2173 242.682 76.3481 244.976 83.2341C247.271 90.1202 254.985 108.77 254.985 108.77L246.697 125.698L242.968 121.681L246.954 109.918L235.48 92.7025L233.759 79.2173Z" fill="#3F3D56"/>
<path d="M246.981 123.969C246.713 123.515 246.372 123.107 245.973 122.762L243.126 120.021L242.967 120.374C242.676 120.834 242.484 121.35 242.406 121.889C242.327 122.428 242.364 122.977 242.512 123.501C242.661 124.025 242.919 124.512 243.268 124.929C243.618 125.346 244.052 125.685 244.542 125.923C244.96 126.142 245.431 126.24 245.902 126.204C246.137 126.183 246.363 126.108 246.562 125.983C246.762 125.858 246.929 125.688 247.051 125.486C247.161 125.246 247.213 124.983 247.201 124.719C247.189 124.455 247.114 124.198 246.981 123.969Z" fill="#E6E6E6"/>
<path d="M145.187 134.14H144.431V163.246H169.984V162.49H145.187V134.14Z" fill="#3F3D56"/>
<path d="M197.998 163.114C197.997 161.812 197.479 160.564 196.559 159.643C195.638 158.722 194.39 158.204 193.088 158.203H173.071C171.769 158.203 170.52 158.721 169.599 159.642C168.678 160.563 168.161 161.812 168.161 163.114C168.161 164.417 168.678 165.666 169.599 166.587C170.52 167.508 171.769 168.026 173.071 168.026H193.088C194.39 168.024 195.638 167.507 196.559 166.586C197.479 165.665 197.997 164.417 197.998 163.114Z" fill="#50FA7B"/>
<path d="M144.283 136.334C146.775 136.334 148.795 134.313 148.795 131.821C148.795 129.328 146.775 127.307 144.283 127.307C141.791 127.307 139.771 129.328 139.771 131.821C139.771 134.313 141.791 136.334 144.283 136.334Z" fill="#50FA7B"/>
</g>
<defs>
<clipPath id="clip0_223_2860">
<rect width="284" height="210" fill="white"/>
</clipPath>
</defs>
</svg>
