<svg width="443" height="290" viewBox="0 0 443 290" fill="none" xmlns="http://www.w3.org/2000/svg">
<g clip-path="url(#clip0_125_1655)">
<path d="M408.733 140.034H49.5084C44.6934 140.034 40.7761 136.118 40.7761 131.305V8.72861C40.7761 3.91563 44.6934 0 49.5084 0H408.733C413.548 0 417.465 3.91563 417.465 8.72861V131.305C417.465 136.118 413.548 140.034 408.733 140.034ZM49.5084 1.04064C45.2676 1.04064 41.8172 4.48956 41.8172 8.72861V131.305C41.8172 135.544 45.2676 138.993 49.5084 138.993H408.733C412.973 138.993 416.424 135.544 416.424 131.305V8.72861C416.424 4.48956 412.973 1.04064 408.733 1.04064H49.5084Z" fill="#3F3D56"/>
<path d="M443 286.467H0V287.343H443V286.467Z" fill="#E6E6E6"/>
<path d="M443 241.719H0V242.595H443V241.719Z" fill="#E6E6E6"/>
<path d="M201.888 144.542C202.206 148.538 204.526 151.613 207.07 151.41C209.615 151.207 211.418 147.804 211.1 143.806C210.994 142.208 210.507 140.658 209.68 139.286L208.118 122.371L200.193 123.273L202.574 139.852C201.974 141.338 201.738 142.946 201.888 144.542Z" fill="#FFB6B6"/>
<path d="M192.42 65.6299C192.42 65.6299 199.828 61.7098 203.585 67.5679C207.341 73.4259 209.934 136.782 209.934 136.782L199.522 137.893L197.549 93.2478L192.42 65.6299Z" fill="#E6E6E6"/>
<path d="M177.044 238.414L183.076 238.413L185.945 215.158L177.043 215.158L177.044 238.414Z" fill="#FFB6B6"/>
<path d="M197.709 238.277C197.897 238.593 197.996 239.614 197.996 239.981C197.996 241.112 197.08 242.028 195.949 242.028H177.27C176.498 242.028 175.873 241.403 175.873 240.632V239.854C175.873 239.854 174.949 237.518 176.851 234.638C176.851 234.638 179.216 236.893 182.749 233.361L183.791 231.475L191.333 236.988L195.513 237.503C196.428 237.615 197.239 237.485 197.709 238.277Z" fill="#2F2E41"/>
<path d="M211.949 237.416L217.793 235.923L214.815 212.681L206.189 214.884L211.949 237.416Z" fill="#FFB6B6"/>
<path d="M231.937 232.171C232.198 232.431 232.546 233.395 232.637 233.751C232.917 234.846 232.256 235.96 231.161 236.24L213.062 240.861C212.315 241.052 211.554 240.601 211.363 239.854L211.171 239.101C211.171 239.101 209.697 237.066 210.827 233.805C210.827 233.805 213.677 235.405 216.225 231.109L216.768 229.023L225.44 232.499L229.618 231.964C230.532 231.846 231.286 231.52 231.937 232.171Z" fill="#2F2E41"/>
<path d="M172.054 60.6307L171.768 58.5562L175.167 50.2581L184.506 49.2208L186.523 61.1006L172.054 60.6307Z" fill="#FFB6B6"/>
<path opacity="0.1" d="M172.054 60.6307L171.768 58.5562L175.167 50.2581L184.506 49.2208L186.523 61.1006L172.054 60.6307Z" fill="black"/>
<path d="M161.158 119.236L157.007 130.646L160.12 136.869L175.686 227.111H186.034L183.988 147.242L207.855 227.111H218.097L209.861 173.173L203.704 123.385L199.97 121.079L181.912 110.938L161.158 119.236Z" fill="#2F2E41"/>
<path d="M187.619 127.015L181.393 128.053L173.092 108.345H191.77L187.619 127.015Z" fill="#E6E6E6"/>
<path d="M200.072 121.829L187.619 127.015L183.469 117.68L181.393 128.053L159.602 121.041L162.715 108.345L159.602 66.8542L170.591 59.5311L172.054 58.5562L185.544 59.5934L186.727 60.2365L194.883 64.7797L196.959 99.0093L200.072 121.829Z" fill="#2F2E41"/>
<path d="M186.727 60.2365L180.874 85.0063L170.591 59.5311L172.054 58.5562L185.544 59.5934L186.727 60.2365Z" fill="#E6E6E6"/>
<path d="M176.724 58.5562L174.648 62.1289L176.724 63.3199L175.686 85.0707L179.837 90.7112L183.988 82.3747L180.874 63.3199L181.912 58.5562H176.724Z" fill="#2F2E41"/>
<path d="M179.837 56.4816C185.281 56.4816 189.695 52.0699 189.695 46.6277C189.695 41.1855 185.281 36.7737 179.837 36.7737C174.392 36.7737 169.979 41.1855 169.979 46.6277C169.979 52.0699 174.392 56.4816 179.837 56.4816Z" fill="#FFB6B6"/>
<path d="M173.537 47.492L175.667 48.4212L176.596 42.846C176.596 42.846 180.315 40.9875 183.103 41.9168C185.892 42.846 190.54 41.9168 190.54 41.9168C190.54 41.9168 190.54 32.6246 184.033 32.6246C177.526 32.6246 171.019 33.5538 171.019 36.3415C171.019 39.1291 168.23 41.9168 168.23 41.9168C168.23 41.9168 164.511 47.492 168.23 51.2089C171.948 54.9257 173.807 54.9257 173.807 54.9257L173.537 47.492Z" fill="#2F2E41"/>
<path d="M154.408 144.25C154.3 148.257 156.281 151.561 158.832 151.63C161.384 151.698 163.539 148.505 163.646 144.496C163.711 142.896 163.392 141.303 162.715 139.851L162.958 122.866L154.982 122.922L155.589 139.66C154.834 141.074 154.429 142.648 154.408 144.25Z" fill="#FFB6B6"/>
<path d="M164.276 64.7603C164.276 64.7603 157.531 62.6857 154.418 68.9093C151.305 75.1329 155.456 138.406 155.456 138.406H165.927L163.148 93.8036L164.276 64.7603Z" fill="#E6E6E6"/>
<path d="M423.023 182.637L397.87 174.941C397.313 174.77 396.73 174.708 396.15 174.758L268.668 185.602C266.85 185.757 266.393 188.208 268.033 189.006L272.117 190.995H272.008V286.189H275.856V192.816L288.654 199.048C289.633 199.525 290.726 199.719 291.809 199.61L293.171 199.472V286.189H297.019V199.084L395.62 189.128V286.189H399.468V188.74L415.821 187.089V286.189H419.669V186.7L422.653 186.399C424.747 186.188 425.036 183.253 423.023 182.637Z" fill="#3F3D56"/>
<path d="M305.677 185.226C308.081 185.226 343.674 180.899 343.674 180.899L348.965 188.11L311.929 195.322L305.677 185.226Z" fill="white"/>
<path d="M344.74 282.492L338.556 282.48L335.656 258.634L344.782 258.65L344.74 282.492Z" fill="#A0616A"/>
<path d="M323.554 282.315C323.361 282.639 323.257 283.685 323.257 284.062C323.255 285.22 324.193 286.161 325.352 286.163L344.502 286.196C345.293 286.197 345.935 285.558 345.937 284.767L345.938 283.97C345.938 283.97 346.889 281.577 344.944 278.621C344.944 278.621 342.516 280.929 338.9 277.302L337.835 275.366L330.093 281.005L325.807 281.525C324.869 281.639 324.038 281.504 323.554 282.315Z" fill="#2F2E41"/>
<path d="M377.929 271.403L373.05 275.081L356.533 258.021L363.734 252.592L377.929 271.403Z" fill="#A0616A"/>
<path d="M361.13 283.896C361.172 284.266 361.714 285.152 361.939 285.449C362.629 286.363 363.929 286.545 364.844 285.856L379.952 274.463C380.576 273.993 380.7 273.106 380.23 272.482L379.755 271.853C379.755 271.853 379.076 269.4 375.78 268.231C375.78 268.231 375.244 271.497 370.23 270.796L368.236 269.905L365.501 278.964L362.434 281.93C361.763 282.579 361.028 282.968 361.13 283.896Z" fill="#2F2E41"/>
<path d="M365.005 148.156C365.005 153.857 360.382 158.477 354.68 158.477C348.977 158.477 344.354 153.857 344.354 148.156C344.354 142.456 348.977 137.836 354.68 137.836C360.382 137.836 365.005 142.456 365.005 148.156Z" fill="#A0616A"/>
<path d="M364.032 207.664C364.032 207.664 326.016 205.513 323.864 209.815C321.712 214.117 335.497 273.208 335.497 273.208L347.796 270.631L341.796 229.174C341.796 229.174 373.52 237.572 377.824 227.534C382.127 217.496 380.888 213.759 380.888 213.759L364.032 207.664Z" fill="#2F2E41"/>
<path d="M373.772 200.443C373.772 200.443 336.541 208.421 335.604 213.139C334.668 217.856 363.6 271.197 363.6 271.197L374.778 265.46L358.021 227.066C358.021 227.066 390.837 226.776 392.331 215.958C393.825 205.14 391.641 201.863 391.641 201.863L373.772 200.443Z" fill="#2F2E41"/>
<path d="M378.019 159.985H360.132L347.893 180.06C347.893 180.06 345.024 193.034 347.893 194.434C350.762 195.834 350.762 210.891 350.762 210.891L380.889 213.758C380.889 213.758 385.192 168.589 383.758 164.287C382.323 159.985 378.019 159.985 378.019 159.985Z" fill="#50FA7B"/>
<path d="M349.687 173.249L347.893 194.434L327.724 185.877L322.91 183.457C321.967 182.228 320.743 181.243 319.341 180.584C315.855 178.885 312.154 179.306 311.073 181.523C309.992 183.74 311.941 186.913 315.426 188.61C316.81 189.308 318.341 189.664 319.891 189.649L333.975 197.646L333.992 197.614L334.054 197.726L356.142 206.947L361.224 179.136L349.687 173.249Z" fill="#A0616A"/>
<path d="M347.535 149.588C347.535 149.588 336.775 151.022 341.079 141.702C341.079 141.702 340.423 136.649 343.62 136.307C346.817 135.966 351.121 130.23 351.121 130.23C351.121 130.23 360.988 125.211 366.097 130.23C371.205 135.249 386.268 164.645 386.268 164.645L376.226 175.4C376.226 175.4 370.189 159.536 363.166 161.374C356.142 163.211 349.687 168.69 349.687 168.69C349.687 168.69 342.559 165.125 345.764 162.017C348.969 158.909 347.535 149.588 347.535 149.588Z" fill="#2F2E41"/>
<path d="M361.88 165.362C361.88 165.362 356.859 158.909 353.273 163.928C349.687 168.947 346.817 175.4 346.817 175.4L361.163 180.419L361.88 165.362Z" fill="#50FA7B"/>
<path d="M416.349 284.762L399.682 231.808L399.684 231.808H399.723L399.655 231.721L399.654 231.72L398.467 227.948L398.467 227.947C400.276 226.39 401.507 224.164 401.752 221.601L394.134 179.716C394.658 174.216 390.44 169.408 384.913 169.211L367.723 169.168C362.836 168.995 358.604 172.523 357.892 177.36L357.512 179.927L352.245 215.74C352.053 217.029 352.13 218.298 352.433 219.486L348.642 219.981L347.493 220.135L342.948 220.726L342.933 220.731L342.366 220.803H341.75V236.188H341.789V285.362C341.789 285.679 342.048 285.939 342.366 285.939C342.688 285.939 342.948 285.679 342.948 285.362V236.188H349.691L356.42 285.304C356.463 285.593 356.709 285.804 356.997 285.804C357.021 285.804 357.05 285.804 357.074 285.799C357.392 285.756 357.613 285.463 357.569 285.145L350.865 236.188H383.22C386.433 236.188 389.41 235.169 391.834 233.424L404.662 285.214C404.729 285.476 404.965 285.65 405.223 285.65C405.271 285.65 405.319 285.645 405.367 285.632C405.677 285.554 405.864 285.238 405.785 284.928L392.833 232.637C393.005 232.494 393.177 232.341 393.34 232.183L398.49 231.88L415.244 285.109C415.322 285.356 415.55 285.515 415.796 285.515C415.854 285.515 415.912 285.506 415.97 285.488C416.275 285.392 416.445 285.067 416.349 284.762ZM397.366 228.77C397.409 228.745 397.448 228.717 397.486 228.693L397.61 229.086L397.366 228.77Z" fill="#E6E6E6"/>
<path d="M89.3071 195.004L100.524 187.873L105.085 190.623L89.3071 208.745V195.004Z" fill="#FFB6B6"/>
<path d="M73.9677 167.405C73.9677 167.405 66.5172 169.157 70.0234 179.233C73.5295 189.309 84.9244 210.336 88.4305 209.022C91.9367 207.708 92.3749 194.566 92.3749 194.566C92.3749 194.566 91.9367 195.004 90.1836 193.251C88.4305 191.499 88.4305 192.299 88.4305 190.366C88.4305 188.432 86.9967 186.999 86.9967 186.999L85.3627 183.614C85.3627 183.614 85.3627 167.843 78.7887 166.967C72.2147 166.09 73.9677 167.405 73.9677 167.405Z" fill="#E6E6E6"/>
<path d="M108.777 190.152C111.687 187.243 112.588 183.429 110.791 181.633C108.994 179.837 105.179 180.738 102.269 183.647C99.3594 186.555 98.4576 190.369 100.255 192.165C102.052 193.962 105.867 193.06 108.777 190.152Z" fill="#FFB6B6"/>
<path d="M44.9478 225.45L52.6019 238.114L97.2068 235.476L85.3298 220.174L44.9478 225.45Z" fill="#E6E6E6"/>
<path d="M58.2759 284.679C58.0161 284.679 57.7898 284.487 57.7536 284.223L44.4249 186.919C44.3853 186.63 44.5874 186.364 44.8762 186.324C45.1649 186.283 45.4311 186.487 45.4708 186.775L58.7995 284.079C58.8391 284.368 58.637 284.634 58.3482 284.674C58.3238 284.677 58.2997 284.679 58.2759 284.679Z" fill="#E6E6E6"/>
<path d="M44.9478 284.802C44.6563 284.802 44.4199 284.566 44.4199 284.275V186.866C44.4199 186.574 44.6563 186.338 44.9478 186.338C45.2393 186.338 45.4757 186.574 45.4757 186.866V284.275C45.4757 284.566 45.2393 284.802 44.9478 284.802Z" fill="#E6E6E6"/>
<path d="M111.855 284.415C111.631 284.415 111.423 284.271 111.352 284.046L79.8116 183.84C79.7241 183.562 79.8786 183.265 80.1567 183.178C80.4347 183.091 80.7312 183.245 80.8186 183.523L112.359 283.729C112.446 284.007 112.292 284.303 112.014 284.391C111.961 284.407 111.908 284.415 111.855 284.415Z" fill="#E6E6E6"/>
<path d="M102.221 284.538C101.986 284.538 101.771 284.38 101.71 284.141L79.8035 195.702C79.7317 195.42 79.9025 195.132 80.185 195.061C80.4684 194.989 80.7548 195.16 80.8268 195.442L102.733 283.881C102.805 284.163 102.634 284.45 102.352 284.522C102.308 284.533 102.264 284.538 102.221 284.538Z" fill="#E6E6E6"/>
<path d="M44.9478 188.418L81.5027 187.856L88.2331 226.242H45.4756L44.9478 188.418Z" fill="#E6E6E6"/>
<path d="M101.124 244.862L91.9111 261.074L102.608 263.428L107.067 251.897L101.124 244.862Z" fill="#FFB6B6"/>
<path d="M95.2203 258.014C95.2203 258.014 94.8623 255.37 92.7577 256.209C90.6532 257.048 84.5793 260.166 84.5793 260.166C84.5793 260.166 100.421 285.896 103.428 284.697C106.434 283.499 102.835 276.226 102.835 276.226L103.63 263.369L95.2203 258.014Z" fill="#2F2E41"/>
<path d="M60.3816 213.403C60.3816 213.403 57.0946 228.517 67.1747 233.774C77.2548 239.031 111.659 226.107 111.659 226.107L95.8811 249.738L106.838 254.145C106.838 254.145 131.819 221.288 130.066 216.032C128.313 210.775 116.48 210.336 116.48 210.336L89.7454 211.651L82.7331 209.46L60.3816 213.403Z" fill="#2F2E41"/>
<path d="M87.4946 252.057L73.0117 263.807L82.118 269.891L90.4694 260.772L87.4946 252.057Z" fill="#FFB6B6"/>
<path d="M77.2081 262.16C77.2081 262.16 77.8371 259.567 75.5714 259.583C73.3057 259.599 66.5132 260.294 66.5132 260.294C66.5132 260.294 71.9023 290.023 75.1391 290C78.3758 289.977 77.6713 281.893 77.6713 281.893L83.0913 270.207L77.2081 262.16Z" fill="#2F2E41"/>
<path d="M60.9976 207.936C60.9976 207.936 52.434 220.818 59.9094 229.381C67.3847 237.944 104.135 238.42 104.135 238.42L80.8363 254.692L89.4376 262.782C89.4376 262.782 124.667 241.265 124.948 235.73C125.229 230.196 114.366 225.484 114.366 225.484L88.9863 216.984L83.2522 212.393L60.9976 207.936Z" fill="#2F2E41"/>
<path d="M82.997 178.098C82.997 178.098 74.6699 175.032 70.7255 175.032C70.3486 175.032 69.9761 175.075 69.6036 175.154C67.0792 175.689 64.7564 177.857 63.6432 179.04C63.2093 179.504 62.9595 179.815 62.9595 179.815C62.9595 179.815 62.9858 179.513 63.0384 178.983C63.2969 176.197 64.2523 167.054 65.966 161.201C66.5795 159.112 67.2852 157.443 68.0959 156.632C69.9849 154.74 70.857 152.47 71.2602 150.779C71.6021 149.329 71.6021 148.309 71.6021 148.309L68.4071 146.933L67.8154 143.069C67.7103 143.525 67.2238 144.414 65.5891 146.118C65.4488 146.263 65.2954 146.386 65.1333 146.491C62.7754 147.971 57.9676 145.395 55.3774 143.775C56.4556 140.029 58.4103 136.603 61.9602 136.042C70.2873 134.728 70.2873 129.909 75.5465 135.166C75.9804 135.6 76.4186 136.016 76.8569 136.419C78.5398 139.635 79.1534 143.945 79.3725 146.942C79.5303 149.04 79.4909 150.499 79.4909 150.499C79.4909 150.499 81.6822 163.642 85.1883 166.27C88.6945 168.898 82.997 178.098 82.997 178.098Z" fill="#2F2E41"/>
<path d="M66.7811 157.07L60.8594 165.753L74.2317 169.337V157.07H66.7811Z" fill="#FFB6B6"/>
<path opacity="0.1" d="M66.7811 157.07L60.8594 165.753L74.2317 169.337V157.07H66.7811Z" fill="black"/>
<path d="M75.0634 165.433L62.3536 160.176C62.3536 160.176 45.2613 167.624 46.576 182.08C47.8908 196.537 60.1623 221.508 60.1623 221.508L84.7052 210.994L82.0756 182.956L75.0634 165.433Z" fill="#E6E6E6"/>
<path d="M69.6139 160.947C75.8067 160.947 80.827 155.929 80.827 149.738C80.827 143.548 75.8067 138.53 69.6139 138.53C63.4211 138.53 58.4009 143.548 58.4009 149.738C58.4009 155.929 63.4211 160.947 69.6139 160.947Z" fill="#FFB6B6"/>
<path d="M84.7501 145.68C82.5588 147.871 80.8057 150.061 80.8057 150.061L79.9292 146.556C79.9292 146.556 79.7276 146.705 79.3726 146.942C77.9833 147.888 74.2537 150.267 71.2603 150.779C69.928 151.007 68.7447 150.863 67.9733 150.061C66.3386 148.357 65.8521 147.468 65.7469 147.012L65.1552 150.876L61.9603 152.251C61.9603 152.251 61.9603 157.062 65.4664 160.575C65.6374 160.746 65.8039 160.956 65.9661 161.201C67.6402 163.725 68.8411 169.902 69.6037 175.154C70.2786 179.824 70.6029 183.758 70.6029 183.758C70.6029 183.758 67.2852 179.605 63.6432 179.04C63.4416 179.009 63.24 178.987 63.0384 178.983C62.9727 178.974 62.9026 178.974 62.8368 178.974C58.8924 178.974 50.5654 182.041 50.5654 182.041C50.5654 182.041 44.8679 172.841 48.374 170.213C51.8802 167.584 54.0715 154.442 54.0715 154.442C54.0715 154.442 53.9269 148.817 55.3775 143.775C56.4557 140.029 58.4104 136.603 61.9603 136.042C70.2874 134.728 70.2874 129.909 75.5466 135.166C75.9804 135.6 76.4187 136.016 76.857 136.419C81.7568 140.923 86.7618 143.669 84.7501 145.68Z" fill="#2F2E41"/>
<path d="M35.5706 204.487H31.4062V286.698H35.5706V204.487Z" fill="#3F3D56"/>
<path d="M136.556 204.487H132.392V286.698H136.556V204.487Z" fill="#3F3D56"/>
<path d="M110.008 169.625H82.4197V197.202H110.008V169.625Z" fill="#50FA7B"/>
<path d="M66.5173 198.946L77.7345 191.816L82.2949 194.566L66.5173 212.687V198.946Z" fill="#FFB6B6"/>
<path d="M51.178 171.347C51.178 171.347 43.7274 173.1 47.2336 183.175C50.7397 193.251 62.1346 214.279 65.6407 212.965C69.1469 211.651 69.5851 198.508 69.5851 198.508C69.5851 198.508 69.1469 198.946 67.3938 197.194C65.6407 195.442 65.6407 196.242 65.6407 194.309C65.6407 192.375 64.2069 190.942 64.2069 190.942L62.5729 187.556C62.5729 187.556 62.5729 171.785 55.9989 170.909C49.4249 170.033 51.178 171.347 51.178 171.347Z" fill="#E6E6E6"/>
<path d="M85.9872 194.094C88.8968 191.186 89.7986 187.372 88.0015 185.576C86.2044 183.779 82.3889 184.681 79.4793 187.589C76.5696 190.498 75.6678 194.312 77.4649 196.108C79.262 197.904 83.0776 197.003 85.9872 194.094Z" fill="#FFB6B6"/>
<path d="M144.885 201.365H18.9133V210.73H144.885V201.365Z" fill="#3F3D56"/>
<path d="M272.871 126.438H254.267C252.792 126.438 251.596 127.633 251.596 129.108V136.777C251.596 138.251 252.792 139.446 254.267 139.446H272.871C274.346 139.446 275.541 138.251 275.541 136.777V129.108C275.541 127.633 274.346 126.438 272.871 126.438Z" fill="#3F3D56"/>
<path d="M311.912 134.108H293.307C291.832 134.108 290.637 135.303 290.637 136.777V136.777C290.637 138.251 291.832 139.446 293.307 139.446H311.912C313.386 139.446 314.582 138.251 314.582 136.777V136.777C314.582 135.303 313.386 134.108 311.912 134.108Z" fill="#50FA7B"/>
<path d="M279.921 85.8132L276.57 82.4899C271.845 77.8037 271.836 70.1673 276.55 65.4697L279.921 62.1095C286.493 55.5636 291.872 50.1711 291.93 50.0846C292.105 49.7674 294.314 52.2474 294.314 52.7953C294.314 53.199 290.912 56.7459 283.992 63.609C278.322 69.2321 273.67 73.9037 273.67 73.9902C273.67 74.0767 278.38 78.8059 284.138 84.5156C289.895 90.2252 294.605 94.9544 294.605 95.0121C294.605 95.214 292.192 97.6362 291.988 97.6362C291.901 97.6362 286.464 92.3015 279.921 85.8132Z" fill="#50FA7B"/>
<path d="M345.598 96.3113C344.949 95.6034 344.975 94.5097 345.657 93.8335L354.944 84.618C360.72 78.8866 365.451 74.048 365.451 73.904C365.451 73.7312 360.749 68.9502 355.002 63.2476C349.255 57.545 344.553 52.8216 344.553 52.7064C344.553 52.62 345.163 51.9864 345.888 51.2951C346.635 50.6028 347.794 50.6216 348.518 51.3378L358.833 61.5483C361.336 64.0317 363.686 66.3767 365.625 68.3266C368.802 71.5193 369.047 75.8638 365.915 79.0996C364.332 80.7355 362.169 82.921 359.182 85.8853C354.002 91.0246 349.499 95.4212 347.77 97.0063C347.286 97.4496 346.722 97.4884 346.256 97.0259C346.048 96.8184 345.819 96.5724 345.598 96.3113Z" fill="#50FA7B"/>
<path d="M316.031 46.4835L331.132 50.5299L319.579 93.6491C318.461 97.8192 314.175 100.294 310.005 99.1766C305.835 98.0592 303.36 93.7729 304.477 89.6028L316.031 46.4835Z" fill="#13201E"/>
<path d="M319.076 47.2091L328.514 49.7381L316.907 93.0566C316.209 95.6629 313.53 97.2096 310.923 96.5113C308.317 95.8129 306.77 93.1339 307.469 90.5276L319.076 47.2091Z" fill="white"/>
<path d="M315.434 66.465L322.041 68.2353L315.465 92.7748C314.976 94.5992 313.101 95.6819 311.277 95.193C309.452 94.7042 308.37 92.8289 308.858 91.0045L315.434 66.465Z" fill="#50FA7B"/>
<path d="M314.461 41.7819C315.069 39.5105 317.404 38.1625 319.676 38.7712L332.179 42.1213C334.45 42.7299 335.798 45.0647 335.189 47.3361C334.581 49.6076 332.246 50.9556 329.974 50.3469L323.558 48.6278L318.623 47.3053L317.472 46.9968C315.2 46.3881 313.852 44.0534 314.461 41.7819Z" fill="#13201E"/>
<rect x="317.417" y="40.189" width="16.691" height="4.42821" rx="2.21411" transform="rotate(15 317.417 40.189)" fill="white"/>
<rect x="319.582" y="45.3214" width="4.88561" height="2.4428" transform="rotate(15 319.582 45.3214)" fill="white"/>
<path d="M318.27 65.9802L322.132 68.2055L314.431 68.2448L314.913 66.5641L318.27 65.9802Z" fill="white"/>
<rect x="322.759" y="33.8684" width="2.11152" height="2.25229" rx="1.05576" fill="#50FA7B"/>
<path d="M330.008 32.6718C330.008 32.011 330.544 31.4753 331.205 31.4753C331.866 31.4753 332.401 32.011 332.401 32.6718C332.401 33.3326 331.866 33.8683 331.205 33.8683C330.544 33.8683 330.008 33.3326 330.008 32.6718Z" fill="#50FA7B"/>
<path d="M325.855 26.3373C325.855 25.5987 326.454 25 327.193 25C327.931 25 328.53 25.5987 328.53 26.3373C328.53 27.0759 327.931 27.6746 327.193 27.6746C326.454 27.6746 325.855 27.0759 325.855 26.3373Z" fill="#50FA7B"/>
</g>
<defs>
<clipPath id="clip0_125_1655">
<rect width="443" height="290" fill="white"/>
</clipPath>
</defs>
</svg>
